<mxfile host="app.diagrams.net" modified="2024-02-16T02:46:17.996Z" agent="Mozilla/5.0 (Windows NT 10.0; Win64; x64) AppleWebKit/537.36 (KHTML, like Gecko) Chrome/121.0.0.0 Safari/537.36" etag="Jmgb6Q2zF8H53_oL4lVx" version="23.1.5" type="device">
  <diagram name="PÃ¡gina-1" id="Lq6cEnp9Ma7ipdZHymol">
    <mxGraphModel dx="1354" dy="720" grid="1" gridSize="10" guides="1" tooltips="1" connect="1" arrows="1" fold="1" page="1" pageScale="1" pageWidth="827" pageHeight="1169" math="0" shadow="0">
      <root>
        <mxCell id="0" />
        <mxCell id="1" parent="0" />
        <mxCell id="KHGWq4t0KqPDSNJ2tSIA-1" value="" style="rounded=0;whiteSpace=wrap;html=1;" vertex="1" parent="1">
          <mxGeometry x="62" y="80" width="698" height="120" as="geometry" />
        </mxCell>
        <mxCell id="KHGWq4t0KqPDSNJ2tSIA-2" value="" style="shape=module;align=left;spacingLeft=20;align=center;verticalAlign=top;whiteSpace=wrap;html=1;fillColor=#dae8fc;strokeColor=#6c8ebf;" vertex="1" parent="1">
          <mxGeometry x="82" y="104" width="100" height="50" as="geometry" />
        </mxCell>
        <mxCell id="KHGWq4t0KqPDSNJ2tSIA-3" value="" style="shape=cylinder3;whiteSpace=wrap;html=1;boundedLbl=1;backgroundOutline=1;size=15;fillColor=#ffe6cc;strokeColor=#d79b00;" vertex="1" parent="1">
          <mxGeometry x="222" y="104" width="60" height="50" as="geometry" />
        </mxCell>
        <mxCell id="KHGWq4t0KqPDSNJ2tSIA-11" value="" style="group" vertex="1" connectable="0" parent="1">
          <mxGeometry x="332" y="120" width="50" height="60" as="geometry" />
        </mxCell>
        <mxCell id="KHGWq4t0KqPDSNJ2tSIA-12" value="Rest API" style="text;html=1;align=center;verticalAlign=middle;whiteSpace=wrap;rounded=0;" vertex="1" parent="KHGWq4t0KqPDSNJ2tSIA-11">
          <mxGeometry x="-10" y="30" width="60" height="30" as="geometry" />
        </mxCell>
        <mxCell id="KHGWq4t0KqPDSNJ2tSIA-48" value="" style="shape=image;verticalLabelPosition=bottom;labelBackgroundColor=default;verticalAlign=top;aspect=fixed;imageAspect=0;image=data:image/png,iVBORw0KGgoAAAANSUhEUgAAAV8AAAEACAYAAAAUbXWjAAAAAXNSR0IArs4c6QAAAARnQU1BAACxjwv8YQUAAAAJcEhZcwAADsMAAA7DAcdvqGQAACFPSURBVHhe7d0JdBXVGQfwCwJhJ1QgbCIByio7JQSIQSGhyA4VFJFCUSvQorJDPR7PwUgLQisoS9GiyO4CiBzKvoRNIUWBEkAoW9hL2WI0KLzyTT8oy832Mm/uMv/fOd9x7oQjd2bu+2eYN3MnT+AmAQAAnsrL/wUAAA/hzBc8d+nSJXHw4EHxn//8R3z33Xf3VWpqqnS9rEiRIkWyVUWLFpWu/9nPfiaqV68uwsPDnf8fgBcQvhASP/74oxOwsjp37hz/Kb2UKVPGCWFZ5c+fn/8UgDsQvpArx44dcwL1wIEDdwXskSNH+E/YITIy8q4wrlGjhvPfhx9+mP8EQM4gfCHbjh8/LjZs2CDWr18vkpKSnJBNT0/nn/pTWFiYE8JNmjQRrVu3Fo899pgoX748/xQgYwhfyNCpU6duh+3GjRvFt99+yz+BzNSuXdsJ4scff1xER0eLiIgI/gnA/yF84Ta6FktBm5iYKLZs2SK+/vpr/gnkRtOmTZ0wpiBu3ry5ePDBB/kn4GcIXx+juw1uBS3V1q1b+ScQSnRGTCFMRYGMuyz8CeHrM3Q2u3Tp0tuBm5aWxj8BFehWtxYtWjhB3LlzZ9GgQQP+CdgO4esDp0+fdgJ3yZIlYuXKlbwWdNS2bVvRpUsXJ4jLlSvHa8FGCF9L3bhx43bg0n8vX77MPwETlChRwgngW0GcNy8eRrUNwtcydN32VujSrWBgPrqV7VYI0+UJsAPC1wKHDx++Hbj0BRrYKyYm5nYQV61aldeCiRC+hqL5D+68rECP84J/0OPOd16WoHkrwCwIX8N8+eWXYs6cOU7opqSk8Frws4oVKzoh3Lt3bxEVFcVrQXcIX0OsXr1afPDBB2LevHm8BuB+vXr1En379hVxcXG8BnSF8NXcp59+6oTuF198wWsAstahQwcnhLt3785rQDcIX01R4M6aNUts2rSJ1wDk3KOPPir69evnBDHoBeGrkStXrtwOXcyrAG6iJ+duhXDx4sV5LaiE8NUAfXF2K3T/9a9/8VoA91WpUuV2CNMXdaAOwleh5ORkJ3ApeM+fP89rAUKvdOnSTgBTENeqVYvXgpcQvgrQk2eTJk1yQtfvk5GDWjQZPIXwkCFDnCfpwDsIX49NnDhR/OlPf8KZLmiFzoRHjhwphg4dymsg1BC+HlmxYoUTuvRGCABdxcbGOiHcrl07XgOhgvANMXrBJIXutGnTeA2A/gYMGOCEMF4QGjoI3xB65513nODFY8BgIrobggL4d7/7Ha8BNyF8Q2DdunVO6K5atYrXAJgrPj7eCWF6/RG4B+HrojNnzjih+5e//IXXANjj5ZdfdkK4bNmyvAZyA+HrkpkzZzrBS3PrAtiK5hCmAH7++ed5DQQL4ZtL9BJKCt1ly5bxGgD7dezY0QlhevknBAfhmwvjx493BiCAX9GJx4gRI7gFOYHwDcLx48ed0F2wYAGvAfCvp556ygnhSpUq8RrIDrwSNYfolT307S+CF+B/6LNAnwn6bED2IXxz4PXXX3de13LgwAFeAwCEPhP02aDPCGQPLjtkw/79+53rWvhSDSBr9GUcfR9Ss2ZNXgMyOPPNAr0zjd6HheAFyB76rNBnBu8bzBzOfDNw48YN50u1t956i9cAQE4NGzbM+TIub16c590Le0QiKSnJ+QIBwQuQO/QZos8Sfabgbgjfe7z33nvOYFm7di2vAYDcoM8SfaboswX/h8sO7Pr162Lw4MFi6tSpvAYA3DZw4EDx9ttvi3z58vEa/0L43nT16lXx7LPP4j5FAA+0b9/eeYVWqVKleI0/+T58aSYyCt41a9bwGgAItejoaDF79mxRrVo1XuM/vr7mSzOQde/eHcEL4LFt27aJDh06iJ07d/Ia//Htme+ePXtEp06dxNGjR3kNAHiNXtxJ9wO3adOG1/iHL8N3+/btIiYmRvz000+8BgBUeeCBB8T8+fPFk08+yWv8wXeXHegVP3S9CcELoAe606hHjx7OCwn8xFdnvvTYI11qAH2UKFFC1KpVy6nIyEhRuHDhHBVJS0vLUR05ckQkJyc7dfnyZef/AXqgOSGGDx/OLbv5JnznzJnj3NUAapQvX96ZaOVW0FJRm9ardOrUKWfipFthTEVtWg9qjBkzRiQkJHDLXr4IX3q2fNSoUdyCUGvQoIFo1aqVqFev3u2gpTNck9AZ8a0w3r17t0hMTMQjsh6ihzHeffddbtnJ+vD9/e9/L9555x1uQShERUU519FjY2Od0A0PD+ef2OXKlSvOLVKbNm1ywpgKQqdXr15i7ty53LKP1eHbrVs3sXjxYm6BGwoVKuSEbdOmTZ3AtTlss3IrjOnuGfovhTFdUwb3PPHEE2L58uXcsou14du2bVuxatUqbkFu0OUD+kV2K3D9GrZZuTOM6VH1Xbt28U8gN375y1+KFStWcMseVoZvz549xaJFi7gFwShevLgTuFT0ZgLIOXpy8vPPP3fq2LFjvBaC0adPH/Hhhx9yyxIUvjZ54YUX6JcJKshq1apVYPLkyYGUlBTeo5Bb33//fWDhwoWBZ555JlCsWDHpfkdlXcOGDeM9agerwnfEiBHSg4bKvCpXrhwYMmRIYPPmzbwnIVROnjwZmDp1auDmP6WlxwKVeU2YMIH3pPmsCd8333xTerBQGVe3bt0Cc+bMCaSlpfFeBC/t3r078MYbbwQaN24sPT4oeX3wwQe8B81mRfjSmYTsIKHur+LFiwcGDx4c2LVrF+890MGMGTMQwjmo+fPn854zl/HhO2/ePOnBQd1dFStWDLz66quBw4cP854DHSGEs1+fffYZ7zUzGR2+K1askB4U1P+rVq1agfHjxwfOnTvHew1MgBDOXi1fvpz3mHmMDd9t27YFwsPDpQcEJQJRUVGB6dOnB3744QfeY2AihHDWtXbtWt5bZjEyfJOTkwNVqlSRHgi/V1xcXGDu3Lm8p8AWCOGMq0CBAkbeqWNc+J4+fTrQpEkT6UHwc0VHRweWLFnCewlsNWXKlEClSpWkY8DPRd9p7Nixg/eSGYwKX7pZPT4+Xrrz/Vp090JCQkLg+vXrvJfAdidOnHDuWJGNBz9X9erVndv3TGFU+Pbu3Vu60/1a9MSUSYMN3EXXOtu1aycdG36t5s2bB65evcp7SG/GzO3wxz/+UYwePZpb/kbz5Y4cOVI89dRTvMYeJ0+eFCkpKc5k5mfPnhXnz58XFy9edObXTU1NdWYNS09Pd14DRUM3T548Il++fCIsLMx5s0XRokWduYNLlizpvJwxIiLCmbD95j9LRYUKFfhvscuMGTPEhAkTnLdxgxC//e1vxfTp07mlLyPClyYm6dy5M7f8K3/+/E7oUlHImIqC85tvvnHeIL1v3z7nzRGHDh1ywuPatWv8p9xXoEABUbVqVVGtWjXnLRq1a9cWdevWFfXr13cC3GT0i4oCeOLEibzG32gO70GDBnFLUxS+Orv5oQzc/MDc9U8LP1bXrl0D27dv571ilm+//dZ5JHTAgAHOl6U3z1al26iqqD/UL+of9ZP6a6pNmzYFOnbsKN1OP1WhQoWcfaEz7cO3U6dO0p3rlypbtmzg/fff571hhjNnzgQ++uijQL9+/QKRkZHS7dK9aLIh6j9tB22PaWjM0NiRbZtfqmnTpoGLFy/yHtGP1uE7atQo6U71S9HMV6Z8obZ3797AuHHjAi1btpRui+lF20XbR9tpCho7fp897bnnnuO9oR9tw5fOOGQ70y81cuRI3hP6on+e021ujRo1km6DrUXbS9ttyuUJGkuy7fBLvf3227wn9KJl+CYlJQVKly4t3ZG210MPPaT1jE10P/GsWbMCbdq0kfbfb0X7gfaH7vdZ05iisSXbBtsrf/78gXXr1vGe0Id24UtzEdDbFGQ70fbq0KFDYN++fbwn9EL/3H7llVcwn0YGRfuF9o/OlyVobNEYk/Xf9qJHs//973/zntCDduE7cOBA6c6zvWi6Rx2tXLky0KVLF2mfUfKi/UX7TVc01mT9tr369u3Le0APWoXvu+++K91pNhfdDfDJJ5/wHtDHxx9/HIiJiZH2GZW9ov1H+1FHNOZMvRMlNzVx4kTeA+ppE77r168PhIWFSXeYrUX37ur2pQ2FRbNmzaT9RQVXtD91DGEaezQGZX22tfLmzRtYvXo17wG1tAhfmujbb9+YDxo0iLdeD/TPZL9ea/eqaP/qeDnCb2/8rl+/vhb3bmsRvnQzu2wn2Vpjx47lLVePviDq0aOHtJ+o0BTtb92+mBszZoy0r7YWZY5qysN30aJF0p1ja82cOZO3XC26NWr06NHSPqK8Kdr/Ot2iRtdDZf20tSh7VFIavjT1W8OGDaU7xsZatmwZb7laNOgwX4YeRcdBdQjcaeHChc51UVlfbSvKHpXTTyoNXz+deekwyz5d58KcyHoWHRdd5pCg+4H98pATZZAqysKXZhyS7QzbqlixYs6bB1Sjx7VLlSol7SNKj6LjQ8dJF/Tma1k/bStVs58pC18/zMBPL/n88ccfeYvVoFcv9e/fX9o/lJ5Fx4uOmw7atm0r7aNNRVmkgpLwnTx5snQn2FR0b6dqGzZs8M3Zi21Fx42Onw6GDRsm7aNNRZnkNc/Dl27stn2e0bp16/LWquO3b65tLV2eyHrppZek/bOlKJO8fuDJ8/C1/Z7e8uXL85aq47f7pm0vHe5JJb169ZL2z5byej97Gr6239NbsmRJ3lI16Dd3dHS0tG8os4uOqw6Pots+laiXt/15Fr6239NL81IcO3aMt9Z7a9asCUREREj7hrKj6PjScVaNHs+V9c+G8vLeX8/C1/Z7ehMTE3lLvTd79mxpn1B2Fh1vlWhe3HLlykn7ZkN5de+vJ+Fr+z29c+fO5S31Hr5Y82ep/iKO5qbIly+ftG82lBf3/noSvjbf0zt9+nTeSu+99tpr0j6h/FF0/FWiSyCyftlQXtz7G/Lw/etf/yrdOBtq0qRJvJXeGz58uLRPKH8VjQOV5syZI+2XDUXZFUohD9+oqCjphpleb7zxBm+h9+hdYbI+ofxZNB5Ueuutt6T9Mr0ou0IppOH74YcfSjfK9KL3zKkyZMgQaZ9Q/i4aFyq9+OKL0n6ZXpRhoRLS8H300UelG2Ry0dsI6A3LKvhpFjhUzkvlDF1Xrlyx8vVTlGGhErLwXbBggXRjTC6aZi8pKYm30FsJCQnSPqFQdxaNE1XoDoGCBQtK+2VyUZaFQsjC18YnYVRN9zdt2jRpf1AoWdF4UWXKlCnSPplclGWhEJLwXbx4sXQjTK5Ro0bx1nnrs88+k/YHhcqsaNyoYuMUppRpbgtJ+LZv3166AaZWp06deMu8RW+/sPGfcajQF40bVW9PuXDhQqBx48bSfplalGlucz18ly9fLu28qUXv2Dp06BBvnXfoEc4aNWpI+4RCZado/NA4UmHt2rXWPQFH2eYm18O3W7du0o6bWkuXLuUt81aHDh2k/UGhclI0jlShh5BkfTK1KNvc5Gr42va44bhx43jLvDVixAhpf1CoYIrGkyp9+vSR9snUcnNWOVfD9+mnn5Z22MSit8mqMG/ePGl/UKjcFI0rFeiNzPXq1ZP2ycSijHOLa+FLUyrKOmti0f28Bw4c4C3zDk2WTW87lvUJhcpN0bhSNRn7xx9/LO2TqeXW9LGuhW/fvn2lHTWxVE3XFxcXJ+0PCuVG0fhS5bnnnpP2ycSirHODK+H71VdfSTtpYtHjwyqMHTtW2h8Uys2icabCkSNHApUqVZL2ycSizMstV8J30KBB0g6aWH//+995q7yzZcsWaV9QqFAUjTcVaO5rWX9MLMq83Mp1+NKEGhUqVJB20LRyY4cGw8YJSVD6Fo03Vbp27Srtk2lFmUfZlxu5Dl9bpo18+OGHA8ePH+et8g4uN6BUlKrLDzt37gwUKVJE2ifTKrfTTeY6fG35TTZ16lTeIu/s2bNH2hcUyoui8aeCLTP0UfblRq7CNzk5Wdop0+qJJ57gLfJWx44dpf1BobwoGn+qxMbGSvtkWlEGBivvzf9B0BYvXsxLZhs5ciQveWf+/Pli2bJl3ALwHo0/GocqjBkzhpfMlqsM5BAOStOmTaW/DUwqVS8grF69urQ/KJSXReNQlaFDh0r7ZFJRBgYr6PC1YR6HMmXKBFJSUniLvENzRsj6g0KpKFVzmNBnjz6Dsj6ZVMHO9xD0ZQcbLjn85je/ERUqVOCWNy5cuCASEhK4BaAejUcal16jzx59Bk0XdBZyCOeIDff2qnrWnS5zyPqDQqksVZffbJjPJNh7foMKXxvu7X3ppZd4a7xz4sQJaV9QKB2KxqcK9FmU9cekCuae36AuOyxZsoSXzJQvXz4l/9yZNGkSLwHoR9X4pM8ifSZNFlQmcghnmw339r7wwgu8Nd45ffp0IE+ePNL+oFA6FI1PGqcq0GdS1ieTKqf3/Ob4zNeWL9q8NmXKFPpFxy0A/dD4pHGqgi+/eHMiOAdMv7dXxRsq0tPTA+Hh4dL+oFA6FY1TGq8q0GdT1idTKqf3/ObozHft2rXiq6++4paZ+vfvz0vemTFjhrh06RK3APRF45TGqwoqPptuomykjMyuHIXv8uXLeclM3bt3F61ateKWd2bOnMlLAPpTNV7ps0mfUZPlJCNzFL7btm3jJTOpuK60YsUKsWfPHm4B6I/GK41bFUy/9rtlyxZeyga+/JClY8eOSa9zmFItW7bkLfFWz549pf1BoXQuGreqxMTESPtkSh0+fJi3JHPZPvPdunUrL5mpa9euvOSds2fPioULF3ILwBw0bmn8qtCtWzdeMtPmzZt5KXPZDl+TLzmEhYWJLl26cMs7qqbrA3CDqvFL4VukSBFumSe7lx6yHb6JiYm8ZB4K3ipVqnDLOzjrBZOpGr+VKlUy+uw329d9+fJDpugaBv1RU2vBggW8Jd7Zu3evtC8olElF41iFxYsXS/tjSh04cIC3JGPZOvM1+ZIDnfGquORgw5OAAKrGMX1m69Spwy3zrF+/npcylq3wze4FZB3RQaRrvl5bunQpLwGYS+U4NvnSQ7Yyk8+AM/Xzn/9cemptQiUmJvJWeIfmKJX1BYUysVTMe0127dol7Y8JFRkZyVuRsSzPfG/ueKdM1LJlS6e8puoGdYBQUDWeGzRoINq3b88tsxw5ckTs27ePW3JZhm+OntjQjIp7e8nKlSt5CcB8KsezyZcesrrum2X45mSiCJ2ourf3xo0bYs2aNdwCMB+NZxrXKlD4litXjltm2bBhAy/JZRm+69at4yWzqLq3l37bpaencwvAfDSes/PtfSiEh4cbe/ab1bMRmYZvcnKyOHXqFLfM0rZtW17y1saNG3kJwB4qx/Vjjz3GS2ahx7N3797NrftlGr6mXnIgjz76KC95y+Tb8gAyonJct2jRQuTPn59bZsns0oOV4du8eXNRtWpVbnnL9Gk3AWRUjuuyZcs6n2kTZXa5JtPw/frrr3nJLKrOenfs2CF++OEHbgHYg8b1zp07ueU9Ovs1UWYZmmH4pqWliaNHj3LLLKrCNykpiZcA7KMyfGNiYnjJLJShlKUyGYYvfdlmIrrFTFX47tq1i5cA7KNyfMfFxYnixYtzyywZZWmG4ZvV0xm6at26tbK5QDP7ZhPAdCrH9wMPPGDsdd+MstS68G3Tpg0veW/v3r28BGAf1eM7NjaWl8zim/BV8XZiQtd2UlNTuQVgHxrfKr8Hio+P5yWz+CJ8y5QpIxo2bMgtbx08eJCXAOylcpw3atRIREREcMscOQrfa9euiUOHDnHLHCovORw+fJiXAOylepyb+LQbZSll6r2k4WvqJQf6sk0VmkIOwHaqxznd9WAiWaZKw9fU28yioqJ4yXvHjx/nJQB7qR7nKj/juSHLVKvOfGvWrMlL3jt58iQvAdhL9ThX+RnPjWyf+ZoYvtWrV3fuBVTl9OnTvARgL9XjnD7j9Fk3jdXhW6tWLV5S49y5c7wEYC8dxrnqz3owshW+NGP9/v37uWUOlQeEJpu+evUqtwDsReNc9csCTAxfytR73wZyX/iaeNZLVB6QS5cu8RKA/VSPdxPDl9ybrdaEr8oL8TjrBT9RPd5t+dLtvvA19TYzlb8Nv/vuO14CsJ/q8W7qme+92Xpf+F6+fJmXzFGxYkVRrFgxbnkPE6iDn6ge7/RZp8+8ae69XHNf+F65coWXzKH6N6Hs0UEAW+kw3k08+733xNaKM1/VB+LebzEBbKbDeLcyfE088zX1AjwABMfEzzzOfEMgb977diOAtXQY7yae+WZ5zffixYu8ZI4SJUrwkhoFChTgJQD76TDew8PDeckcWZ75mvjAgOoX6xUsWJCXAOynw3hXfcIVDCvDV/WBUPXCTgAVdBjvJr7JONPwpW8xTbxtSvWBUHmPMYDXdBjvJn7mKFvvvFPkrvA18U4HOgiqr0GZeP0JIFg6jHf6zJt+9ntX+Jp4p4MO137CwsJw9gu+QOOcxrsOTP/SzfgzX10uvNObkwFsp9M4NzF87/xODeHrknLlyvESgL10Guem3/FwV/jiNrPgVahQgZcA7KXTOEf4KqbLAahUqRIvAdhLp3Fu1RduCN/gRUZG8hKAvXQa56aHb57ATbwsEhISxKpVq8T169elRfeoydbfqsx+fsdf46phw4aJCRMmcEsd2m9t27blFoCdVq5cKeLj47ml1ogRI0L22c+TJ4/zpuRgiua+kC1TxcXFiVdfffV/f8ed4RtK9NfcG8iysA5mXWxsLP8t6hw9ehRnv2C9I0eOiMqVK3NLrY0bN94VbHfWvaGX0zaFb6h5Fr5+QPdApqamcgvALkWLFsX7Cl101zVfyJ1HHnmElwDsg/HtLoSvi+rVq8dLAPbB+HYXwtdFDRs25CUA+2B8uwvh66ImTZrwEoB9GjduzEvgBnzh5rJChQrhVfJgHZpA/fvvv+cWuAFnvi6Ljo7mJQB7YFy7D+HrspYtW/ISgD0wrt2H8HWZDg98ALgN49p9uObrMnryrnDhwiI9PZ3XAJiNJk9PS0tzngID92BvuowGaJs2bbgFYD4azwhe92GPhgAm2AGbYDyHBsI3BNq1a8dLAObDeA4NhG8IVKtWDQ9cgBVoHNN4BvchfEOkc+fOvARgLozj0EH4hkjXrl15CcBcGMehg/ANkTp16ohmzZpxC8A8NH5pHENoIHxDqGfPnrwEYB6M39DCQxYhdPbsWVG2bFluAZjlzJkzIiIiglvgNpz5hhANXJw9gIlo3CJ4QwvhG2K//vWveQnAHBi3oYfLDh6g16/s2bOHWwB6q1u3rti9eze3IFRw5uuB559/npcA9Ifx6g2c+Xrg2rVrzvWzS5cu8RoAPYWHhztfFBcoUIDXQKjgzNcDNJAHDhzILQB90ThF8HoDZ74eodt2ypcvL7C7QVd58uQRp06dwu2RHsGZr0doQL/88svcAtAPjU8Er3dw5uuhlJQU8dBDD3ELQC8nTpwQFStW5BaEGs58PUQDe/jw4dwC0AeNSwSvt3Dm67ELFy6IypUri9TUVF4DoFbRokXF0aNHxYMPPshrwAs48/UYDfA//OEP3AJQj8Yjgtd7OPNVpEaNGuLgwYPcAlCjevXq4sCBA9wCL+HMV5HXX3+dlwDUwThUB2e+CnXq1EksW7aMWwDe6tixo/j888+5BV5D+Cq0d+9eZxITABVosqdHHnmEW+A1XHZQiAb+2LFjuQXgHRp3CF61cOargejoaLF9+3ZuAYQWvZtt27Zt3AJVcOargYkTJ/ISQOhhvOkB4auB5s2b4/IDeILGGY03UA+XHTQSHx8vVq9ezS0Ad8XFxYlVq1ZxC1RD+Grk0KFDolGjRuLq1au8BsAdxYoVE//4xz9EtWrVeA2ohssOGqEPxowZM7gF4B4aVwhevSB8NfP000+LESNGcAsg92g80bgCveCyg6bo6aMvvviCWwDB6dChA56i1BTCV1M09WSLFi0w6QkEjSZv2rJlC2Ys0xQuO2iKPjBz5swRBQsW5DUA2UfjhsYPgldfCF+NNWnSRMybN49bANlH44bGD+gL4au5rl27imnTpnELIGs0XmjcgN4QvgZ48cUXRUJCArcAMkbjhMYL6A/ha4gxY8aI0aNHcwvgfjQ+aJyAGXC3g2GGDh0qJk2axC2A/xkyZAgmzDEMwtdA9EH785//zC3wu1deeQW/kA2Eyw4Gog/a8OHDuQV+RuMAwWsmhK+hxo8fL1577TVugR/R8adxAGbCZQfD0VkPXQcGf6Hru3T5CcyF8LXARx99JPr06cMtsN3s2bPFs88+yy0wFcLXEmvXrhXPPPOMOHv2LK8B20RERIi5c+eK1q1b8xowGa75WoI+kJs3b3Zexgn2oeNKxxfBaw+Er0VosuytW7eKfv368RqwAR1POq6YDN0uCF8L/e1vf8MN95ag40jHE+yDa74W27hxoxgwYIBITk7mNWCKWrVqORPkxMbG8hqwDc58LUYfXHppYv/+/XkNmICOFx03BK/dEL6Wo0m133vvPed2tFKlSvFa0BEdHzpOdLwwib79EL4+0bt3b7F3717nv6AfHB//Qfj6CN0nSmdWixYtElWrVuW1oBIdBzoedFzo+IB/IHx96MknnxQHDx7E/MCK0f6n40DHA/wH4etTefPmFW+++abzT90ePXrwWvAC7W/a77T/6TiAP+FWM3CsWrVKjBs3TmzYsIHXgNtatWrlnO3Gx8fzGvAzhC/c5ZNPPnFu7N++fTuvgdxq1qyZM/Pcr371K14DgPCFDFAIT548WSQmJvIayKmYmBgxePBghC5IIXwhU3Q5gp60WrJkCa+BrHTp0sV5shCXFyAzCF/Iln/+85/i/fffF7NmzRKXLl3itXBLeHi4MwEOPZ1Wp04dXguQMYQv5MiNGzecybxpXtk1a9bwWv9q06aNM48yTWaPOxcgJxC+ELRDhw45Dwh8+umnzlwEftGoUSPRvXt355YxTPMIwUL4givossSyZcvE8uXLnUm/bdOyZUvRvn170bFjR1xWAFcgfMF19Cqj1atXi3Xr1on169eLo0eP8k/MERkZ6dyX+/jjj4u4uDg8+guuQ/hCyNHliS1btogvv/xS7NixQyQlJQmdhl2ePHlE48aNxS9+8QsRFRUlWrRogcsJEHIIX/DcTz/9JL755huxZ88esW/fPrF//34noA8fPiyuXbvGf8p9BQoUcCayoWCtWbOmqF27tqhbt66oX7++yJcvH/8pAG8gfEErJ0+eFCkpKeLUqVPO5Yvz58+LixcvisuXL4vU1FSRlpYm0tPTnQCnoUtnrRScYWFhonDhwqJo0aKiRIkSomTJkqJ06dLO5YLy5cuLihUrigoVKvDfAqAewhcAQAHcmAgAoADCFwDAc0L8F/rxMJbU5j6wAAAAAElFTkSuQmCC;" vertex="1" parent="KHGWq4t0KqPDSNJ2tSIA-11">
          <mxGeometry x="-0.5" y="-6.950000000000003" width="41" height="29.9" as="geometry" />
        </mxCell>
        <mxCell id="KHGWq4t0KqPDSNJ2tSIA-15" value="" style="shape=image;verticalLabelPosition=bottom;labelBackgroundColor=default;verticalAlign=top;aspect=fixed;imageAspect=0;image=https://upload.wikimedia.org/wikipedia/commons/thumb/1/17/GraphQL_Logo.svg/2048px-GraphQL_Logo.svg.png;" vertex="1" parent="1">
          <mxGeometry x="413" y="103" width="50" height="50" as="geometry" />
        </mxCell>
        <mxCell id="KHGWq4t0KqPDSNJ2tSIA-17" value="GraphQL" style="text;html=1;align=center;verticalAlign=middle;whiteSpace=wrap;rounded=0;" vertex="1" parent="1">
          <mxGeometry x="408" y="150" width="60" height="30" as="geometry" />
        </mxCell>
        <mxCell id="KHGWq4t0KqPDSNJ2tSIA-22" value="DB" style="text;html=1;align=center;verticalAlign=middle;whiteSpace=wrap;rounded=0;" vertex="1" parent="1">
          <mxGeometry x="222" y="153" width="60" height="30" as="geometry" />
        </mxCell>
        <mxCell id="KHGWq4t0KqPDSNJ2tSIA-23" value="Component" style="text;html=1;align=center;verticalAlign=middle;whiteSpace=wrap;rounded=0;" vertex="1" parent="1">
          <mxGeometry x="102" y="154" width="60" height="30" as="geometry" />
        </mxCell>
        <mxCell id="KHGWq4t0KqPDSNJ2tSIA-24" value="" style="sketch=0;pointerEvents=1;shadow=0;dashed=0;html=1;strokeColor=none;fillColor=#505050;labelPosition=center;verticalLabelPosition=bottom;verticalAlign=top;outlineConnect=0;align=center;shape=mxgraph.office.concepts.folder;" vertex="1" parent="1">
          <mxGeometry x="512" y="109.5" width="40" height="37" as="geometry" />
        </mxCell>
        <mxCell id="KHGWq4t0KqPDSNJ2tSIA-25" value="Filesystem" style="text;html=1;align=center;verticalAlign=middle;whiteSpace=wrap;rounded=0;" vertex="1" parent="1">
          <mxGeometry x="502" y="150" width="60" height="30" as="geometry" />
        </mxCell>
        <mxCell id="KHGWq4t0KqPDSNJ2tSIA-33" value="Service Bus" style="text;html=1;align=center;verticalAlign=middle;whiteSpace=wrap;rounded=0;" vertex="1" parent="1">
          <mxGeometry x="587.81" y="154" width="76.12" height="30" as="geometry" />
        </mxCell>
        <mxCell id="KHGWq4t0KqPDSNJ2tSIA-60" style="edgeStyle=orthogonalEdgeStyle;rounded=0;orthogonalLoop=1;jettySize=auto;html=1;endArrow=none;endFill=0;" edge="1" parent="1" source="KHGWq4t0KqPDSNJ2tSIA-34" target="KHGWq4t0KqPDSNJ2tSIA-57">
          <mxGeometry relative="1" as="geometry">
            <Array as="points">
              <mxPoint x="240" y="320" />
              <mxPoint x="414" y="320" />
            </Array>
          </mxGeometry>
        </mxCell>
        <mxCell id="KHGWq4t0KqPDSNJ2tSIA-34" value="Web App&lt;div&gt;&lt;br/&gt;&lt;/div&gt;" style="shape=module;align=left;spacingLeft=20;align=center;verticalAlign=top;whiteSpace=wrap;html=1;fillColor=#dae8fc;strokeColor=#6c8ebf;" vertex="1" parent="1">
          <mxGeometry x="190" y="260" width="100" height="50" as="geometry" />
        </mxCell>
        <mxCell id="KHGWq4t0KqPDSNJ2tSIA-35" value="&lt;font style=&quot;font-size: 31px;&quot;&gt;&lt;b&gt;PflanzUN - Component View&lt;/b&gt;&lt;/font&gt;" style="text;html=1;align=center;verticalAlign=middle;whiteSpace=wrap;rounded=0;" vertex="1" parent="1">
          <mxGeometry x="164" y="20" width="499" height="30" as="geometry" />
        </mxCell>
        <mxCell id="KHGWq4t0KqPDSNJ2tSIA-61" style="edgeStyle=orthogonalEdgeStyle;rounded=0;orthogonalLoop=1;jettySize=auto;html=1;entryX=0.5;entryY=0;entryDx=0;entryDy=0;endArrow=none;endFill=0;" edge="1" parent="1" source="KHGWq4t0KqPDSNJ2tSIA-36" target="KHGWq4t0KqPDSNJ2tSIA-57">
          <mxGeometry relative="1" as="geometry">
            <Array as="points">
              <mxPoint x="580" y="320" />
              <mxPoint x="414" y="320" />
            </Array>
          </mxGeometry>
        </mxCell>
        <mxCell id="KHGWq4t0KqPDSNJ2tSIA-36" value="Mobile App&lt;div&gt;&lt;br&gt;&lt;/div&gt;" style="shape=module;align=left;spacingLeft=20;align=center;verticalAlign=top;whiteSpace=wrap;html=1;fillColor=#dae8fc;strokeColor=#6c8ebf;" vertex="1" parent="1">
          <mxGeometry x="530" y="260" width="100" height="50" as="geometry" />
        </mxCell>
        <mxCell id="KHGWq4t0KqPDSNJ2tSIA-67" style="edgeStyle=orthogonalEdgeStyle;rounded=0;orthogonalLoop=1;jettySize=auto;html=1;endArrow=none;endFill=0;" edge="1" parent="1" source="KHGWq4t0KqPDSNJ2tSIA-37" target="KHGWq4t0KqPDSNJ2tSIA-66">
          <mxGeometry relative="1" as="geometry">
            <mxPoint x="200" y="590" as="targetPoint" />
            <Array as="points">
              <mxPoint x="411" y="560" />
              <mxPoint x="122" y="560" />
            </Array>
          </mxGeometry>
        </mxCell>
        <mxCell id="KHGWq4t0KqPDSNJ2tSIA-80" style="edgeStyle=orthogonalEdgeStyle;rounded=0;orthogonalLoop=1;jettySize=auto;html=1;entryX=0.5;entryY=0;entryDx=0;entryDy=0;endArrow=none;endFill=0;" edge="1" parent="1" source="KHGWq4t0KqPDSNJ2tSIA-37" target="KHGWq4t0KqPDSNJ2tSIA-74">
          <mxGeometry relative="1" as="geometry">
            <Array as="points">
              <mxPoint x="411" y="560" />
              <mxPoint x="270" y="560" />
            </Array>
          </mxGeometry>
        </mxCell>
        <mxCell id="KHGWq4t0KqPDSNJ2tSIA-85" style="edgeStyle=orthogonalEdgeStyle;rounded=0;orthogonalLoop=1;jettySize=auto;html=1;endArrow=none;endFill=0;" edge="1" parent="1" source="KHGWq4t0KqPDSNJ2tSIA-37" target="KHGWq4t0KqPDSNJ2tSIA-75">
          <mxGeometry relative="1" as="geometry" />
        </mxCell>
        <mxCell id="KHGWq4t0KqPDSNJ2tSIA-88" style="edgeStyle=orthogonalEdgeStyle;rounded=0;orthogonalLoop=1;jettySize=auto;html=1;entryX=0.5;entryY=0;entryDx=0;entryDy=0;endArrow=none;endFill=0;" edge="1" parent="1" source="KHGWq4t0KqPDSNJ2tSIA-37" target="KHGWq4t0KqPDSNJ2tSIA-76">
          <mxGeometry relative="1" as="geometry">
            <Array as="points">
              <mxPoint x="411" y="560" />
              <mxPoint x="564" y="560" />
            </Array>
          </mxGeometry>
        </mxCell>
        <mxCell id="KHGWq4t0KqPDSNJ2tSIA-90" style="edgeStyle=orthogonalEdgeStyle;rounded=0;orthogonalLoop=1;jettySize=auto;html=1;entryX=0.5;entryY=0;entryDx=0;entryDy=0;endArrow=none;endFill=0;" edge="1" parent="1" source="KHGWq4t0KqPDSNJ2tSIA-37" target="KHGWq4t0KqPDSNJ2tSIA-77">
          <mxGeometry relative="1" as="geometry">
            <Array as="points">
              <mxPoint x="411" y="560" />
              <mxPoint x="718" y="560" />
            </Array>
          </mxGeometry>
        </mxCell>
        <mxCell id="KHGWq4t0KqPDSNJ2tSIA-37" value="Api Gateway" style="shape=module;align=left;spacingLeft=20;align=center;verticalAlign=top;whiteSpace=wrap;html=1;fillColor=#dae8fc;strokeColor=#6c8ebf;" vertex="1" parent="1">
          <mxGeometry x="361" y="500" width="100" height="50" as="geometry" />
        </mxCell>
        <mxCell id="KHGWq4t0KqPDSNJ2tSIA-38" value="" style="shadow=0;dashed=0;html=1;labelPosition=center;verticalLabelPosition=bottom;verticalAlign=top;align=center;outlineConnect=0;shape=mxgraph.veeam.3d.proxy;" vertex="1" parent="1">
          <mxGeometry x="700" y="105.25" width="46" height="46" as="geometry" />
        </mxCell>
        <mxCell id="KHGWq4t0KqPDSNJ2tSIA-41" value="Reverse Proxy" style="text;html=1;align=center;verticalAlign=middle;whiteSpace=wrap;rounded=0;" vertex="1" parent="1">
          <mxGeometry x="680" y="159" width="76.12" height="30" as="geometry" />
        </mxCell>
        <mxCell id="KHGWq4t0KqPDSNJ2tSIA-62" style="edgeStyle=orthogonalEdgeStyle;rounded=0;orthogonalLoop=1;jettySize=auto;html=1;entryX=0.5;entryY=0;entryDx=0;entryDy=0;endArrow=none;endFill=0;" edge="1" parent="1" source="KHGWq4t0KqPDSNJ2tSIA-42" target="KHGWq4t0KqPDSNJ2tSIA-58">
          <mxGeometry relative="1" as="geometry" />
        </mxCell>
        <mxCell id="KHGWq4t0KqPDSNJ2tSIA-42" value="" style="shadow=0;dashed=0;html=1;labelPosition=center;verticalLabelPosition=bottom;verticalAlign=top;align=center;outlineConnect=0;shape=mxgraph.veeam.3d.proxy;" vertex="1" parent="1">
          <mxGeometry x="384.5" y="380" width="59" height="60" as="geometry" />
        </mxCell>
        <mxCell id="KHGWq4t0KqPDSNJ2tSIA-59" style="edgeStyle=orthogonalEdgeStyle;rounded=0;orthogonalLoop=1;jettySize=auto;html=1;endArrow=none;endFill=0;" edge="1" parent="1" source="KHGWq4t0KqPDSNJ2tSIA-57" target="KHGWq4t0KqPDSNJ2tSIA-42">
          <mxGeometry relative="1" as="geometry" />
        </mxCell>
        <mxCell id="KHGWq4t0KqPDSNJ2tSIA-57" value="" style="shape=image;verticalLabelPosition=bottom;labelBackgroundColor=default;verticalAlign=top;aspect=fixed;imageAspect=0;image=https://upload.wikimedia.org/wikipedia/commons/thumb/1/17/GraphQL_Logo.svg/2048px-GraphQL_Logo.svg.png;" vertex="1" parent="1">
          <mxGeometry x="399.5" y="330" width="29" height="29" as="geometry" />
        </mxCell>
        <mxCell id="KHGWq4t0KqPDSNJ2tSIA-63" value="" style="edgeStyle=orthogonalEdgeStyle;rounded=0;orthogonalLoop=1;jettySize=auto;html=1;endArrow=none;endFill=0;" edge="1" parent="1" source="KHGWq4t0KqPDSNJ2tSIA-58" target="KHGWq4t0KqPDSNJ2tSIA-37">
          <mxGeometry relative="1" as="geometry">
            <Array as="points">
              <mxPoint x="414" y="510" />
              <mxPoint x="414" y="510" />
            </Array>
          </mxGeometry>
        </mxCell>
        <mxCell id="KHGWq4t0KqPDSNJ2tSIA-58" value="" style="shape=image;verticalLabelPosition=bottom;labelBackgroundColor=default;verticalAlign=top;aspect=fixed;imageAspect=0;image=data:image/png,iVBORw0KGgoAAAANSUhEUgAAAV8AAAEACAYAAAAUbXWjAAAAAXNSR0IArs4c6QAAAARnQU1BAACxjwv8YQUAAAAJcEhZcwAADsMAAA7DAcdvqGQAACFPSURBVHhe7d0JdBXVGQfwCwJhJ1QgbCIByio7JQSIQSGhyA4VFJFCUSvQorJDPR7PwUgLQisoS9GiyO4CiBzKvoRNIUWBEkAoW9hL2WI0KLzyTT8oy832Mm/uMv/fOd9x7oQjd2bu+2eYN3MnT+AmAQAAnsrL/wUAAA/hzBc8d+nSJXHw4EHxn//8R3z33Xf3VWpqqnS9rEiRIkWyVUWLFpWu/9nPfiaqV68uwsPDnf8fgBcQvhASP/74oxOwsjp37hz/Kb2UKVPGCWFZ5c+fn/8UgDsQvpArx44dcwL1wIEDdwXskSNH+E/YITIy8q4wrlGjhvPfhx9+mP8EQM4gfCHbjh8/LjZs2CDWr18vkpKSnJBNT0/nn/pTWFiYE8JNmjQRrVu3Fo899pgoX748/xQgYwhfyNCpU6duh+3GjRvFt99+yz+BzNSuXdsJ4scff1xER0eLiIgI/gnA/yF84Ta6FktBm5iYKLZs2SK+/vpr/gnkRtOmTZ0wpiBu3ry5ePDBB/kn4GcIXx+juw1uBS3V1q1b+ScQSnRGTCFMRYGMuyz8CeHrM3Q2u3Tp0tuBm5aWxj8BFehWtxYtWjhB3LlzZ9GgQQP+CdgO4esDp0+fdgJ3yZIlYuXKlbwWdNS2bVvRpUsXJ4jLlSvHa8FGCF9L3bhx43bg0n8vX77MPwETlChRwgngW0GcNy8eRrUNwtcydN32VujSrWBgPrqV7VYI0+UJsAPC1wKHDx++Hbj0BRrYKyYm5nYQV61aldeCiRC+hqL5D+68rECP84J/0OPOd16WoHkrwCwIX8N8+eWXYs6cOU7opqSk8Frws4oVKzoh3Lt3bxEVFcVrQXcIX0OsXr1afPDBB2LevHm8BuB+vXr1En379hVxcXG8BnSF8NXcp59+6oTuF198wWsAstahQwcnhLt3785rQDcIX01R4M6aNUts2rSJ1wDk3KOPPir69evnBDHoBeGrkStXrtwOXcyrAG6iJ+duhXDx4sV5LaiE8NUAfXF2K3T/9a9/8VoA91WpUuV2CNMXdaAOwleh5ORkJ3ApeM+fP89rAUKvdOnSTgBTENeqVYvXgpcQvgrQk2eTJk1yQtfvk5GDWjQZPIXwkCFDnCfpwDsIX49NnDhR/OlPf8KZLmiFzoRHjhwphg4dymsg1BC+HlmxYoUTuvRGCABdxcbGOiHcrl07XgOhgvANMXrBJIXutGnTeA2A/gYMGOCEMF4QGjoI3xB65513nODFY8BgIrobggL4d7/7Ha8BNyF8Q2DdunVO6K5atYrXAJgrPj7eCWF6/RG4B+HrojNnzjih+5e//IXXANjj5ZdfdkK4bNmyvAZyA+HrkpkzZzrBS3PrAtiK5hCmAH7++ed5DQQL4ZtL9BJKCt1ly5bxGgD7dezY0QlhevknBAfhmwvjx493BiCAX9GJx4gRI7gFOYHwDcLx48ed0F2wYAGvAfCvp556ygnhSpUq8RrIDrwSNYfolT307S+CF+B/6LNAnwn6bED2IXxz4PXXX3de13LgwAFeAwCEPhP02aDPCGQPLjtkw/79+53rWvhSDSBr9GUcfR9Ss2ZNXgMyOPPNAr0zjd6HheAFyB76rNBnBu8bzBzOfDNw48YN50u1t956i9cAQE4NGzbM+TIub16c590Le0QiKSnJ+QIBwQuQO/QZos8Sfabgbgjfe7z33nvOYFm7di2vAYDcoM8SfaboswX/h8sO7Pr162Lw4MFi6tSpvAYA3DZw4EDx9ttvi3z58vEa/0L43nT16lXx7LPP4j5FAA+0b9/eeYVWqVKleI0/+T58aSYyCt41a9bwGgAItejoaDF79mxRrVo1XuM/vr7mSzOQde/eHcEL4LFt27aJDh06iJ07d/Ia//Htme+ePXtEp06dxNGjR3kNAHiNXtxJ9wO3adOG1/iHL8N3+/btIiYmRvz000+8BgBUeeCBB8T8+fPFk08+yWv8wXeXHegVP3S9CcELoAe606hHjx7OCwn8xFdnvvTYI11qAH2UKFFC1KpVy6nIyEhRuHDhHBVJS0vLUR05ckQkJyc7dfnyZef/AXqgOSGGDx/OLbv5JnznzJnj3NUAapQvX96ZaOVW0FJRm9ardOrUKWfipFthTEVtWg9qjBkzRiQkJHDLXr4IX3q2fNSoUdyCUGvQoIFo1aqVqFev3u2gpTNck9AZ8a0w3r17t0hMTMQjsh6ihzHeffddbtnJ+vD9/e9/L9555x1uQShERUU519FjY2Od0A0PD+ef2OXKlSvOLVKbNm1ywpgKQqdXr15i7ty53LKP1eHbrVs3sXjxYm6BGwoVKuSEbdOmTZ3AtTlss3IrjOnuGfovhTFdUwb3PPHEE2L58uXcsou14du2bVuxatUqbkFu0OUD+kV2K3D9GrZZuTOM6VH1Xbt28U8gN375y1+KFStWcMseVoZvz549xaJFi7gFwShevLgTuFT0ZgLIOXpy8vPPP3fq2LFjvBaC0adPH/Hhhx9yyxIUvjZ54YUX6JcJKshq1apVYPLkyYGUlBTeo5Bb33//fWDhwoWBZ555JlCsWDHpfkdlXcOGDeM9agerwnfEiBHSg4bKvCpXrhwYMmRIYPPmzbwnIVROnjwZmDp1auDmP6WlxwKVeU2YMIH3pPmsCd8333xTerBQGVe3bt0Cc+bMCaSlpfFeBC/t3r078MYbbwQaN24sPT4oeX3wwQe8B81mRfjSmYTsIKHur+LFiwcGDx4c2LVrF+890MGMGTMQwjmo+fPn854zl/HhO2/ePOnBQd1dFStWDLz66quBw4cP854DHSGEs1+fffYZ7zUzGR2+K1askB4U1P+rVq1agfHjxwfOnTvHew1MgBDOXi1fvpz3mHmMDd9t27YFwsPDpQcEJQJRUVGB6dOnB3744QfeY2AihHDWtXbtWt5bZjEyfJOTkwNVqlSRHgi/V1xcXGDu3Lm8p8AWCOGMq0CBAkbeqWNc+J4+fTrQpEkT6UHwc0VHRweWLFnCewlsNWXKlEClSpWkY8DPRd9p7Nixg/eSGYwKX7pZPT4+Xrrz/Vp090JCQkLg+vXrvJfAdidOnHDuWJGNBz9X9erVndv3TGFU+Pbu3Vu60/1a9MSUSYMN3EXXOtu1aycdG36t5s2bB65evcp7SG/GzO3wxz/+UYwePZpb/kbz5Y4cOVI89dRTvMYeJ0+eFCkpKc5k5mfPnhXnz58XFy9edObXTU1NdWYNS09Pd14DRUM3T548Il++fCIsLMx5s0XRokWduYNLlizpvJwxIiLCmbD95j9LRYUKFfhvscuMGTPEhAkTnLdxgxC//e1vxfTp07mlLyPClyYm6dy5M7f8K3/+/E7oUlHImIqC85tvvnHeIL1v3z7nzRGHDh1ywuPatWv8p9xXoEABUbVqVVGtWjXnLRq1a9cWdevWFfXr13cC3GT0i4oCeOLEibzG32gO70GDBnFLUxS+Orv5oQzc/MDc9U8LP1bXrl0D27dv571ilm+//dZ5JHTAgAHOl6U3z1al26iqqD/UL+of9ZP6a6pNmzYFOnbsKN1OP1WhQoWcfaEz7cO3U6dO0p3rlypbtmzg/fff571hhjNnzgQ++uijQL9+/QKRkZHS7dK9aLIh6j9tB22PaWjM0NiRbZtfqmnTpoGLFy/yHtGP1uE7atQo6U71S9HMV6Z8obZ3797AuHHjAi1btpRui+lF20XbR9tpCho7fp897bnnnuO9oR9tw5fOOGQ70y81cuRI3hP6on+e021ujRo1km6DrUXbS9ttyuUJGkuy7fBLvf3227wn9KJl+CYlJQVKly4t3ZG210MPPaT1jE10P/GsWbMCbdq0kfbfb0X7gfaH7vdZ05iisSXbBtsrf/78gXXr1vGe0Id24UtzEdDbFGQ70fbq0KFDYN++fbwn9EL/3H7llVcwn0YGRfuF9o/OlyVobNEYk/Xf9qJHs//973/zntCDduE7cOBA6c6zvWi6Rx2tXLky0KVLF2mfUfKi/UX7TVc01mT9tr369u3Le0APWoXvu+++K91pNhfdDfDJJ5/wHtDHxx9/HIiJiZH2GZW9ov1H+1FHNOZMvRMlNzVx4kTeA+ppE77r168PhIWFSXeYrUX37ur2pQ2FRbNmzaT9RQVXtD91DGEaezQGZX22tfLmzRtYvXo17wG1tAhfmujbb9+YDxo0iLdeD/TPZL9ea/eqaP/qeDnCb2/8rl+/vhb3bmsRvnQzu2wn2Vpjx47lLVePviDq0aOHtJ+o0BTtb92+mBszZoy0r7YWZY5qysN30aJF0p1ja82cOZO3XC26NWr06NHSPqK8Kdr/Ot2iRtdDZf20tSh7VFIavjT1W8OGDaU7xsZatmwZb7laNOgwX4YeRcdBdQjcaeHChc51UVlfbSvKHpXTTyoNXz+deekwyz5d58KcyHoWHRdd5pCg+4H98pATZZAqysKXZhyS7QzbqlixYs6bB1Sjx7VLlSol7SNKj6LjQ8dJF/Tma1k/bStVs58pC18/zMBPL/n88ccfeYvVoFcv9e/fX9o/lJ5Fx4uOmw7atm0r7aNNRVmkgpLwnTx5snQn2FR0b6dqGzZs8M3Zi21Fx42Onw6GDRsm7aNNRZnkNc/Dl27stn2e0bp16/LWquO3b65tLV2eyHrppZek/bOlKJO8fuDJ8/C1/Z7e8uXL85aq47f7pm0vHe5JJb169ZL2z5byej97Gr6239NbsmRJ3lI16Dd3dHS0tG8os4uOqw6Pots+laiXt/15Fr6239NL81IcO3aMt9Z7a9asCUREREj7hrKj6PjScVaNHs+V9c+G8vLeX8/C1/Z7ehMTE3lLvTd79mxpn1B2Fh1vlWhe3HLlykn7ZkN5de+vJ+Fr+z29c+fO5S31Hr5Y82ep/iKO5qbIly+ftG82lBf3/noSvjbf0zt9+nTeSu+99tpr0j6h/FF0/FWiSyCyftlQXtz7G/Lw/etf/yrdOBtq0qRJvJXeGz58uLRPKH8VjQOV5syZI+2XDUXZFUohD9+oqCjphpleb7zxBm+h9+hdYbI+ofxZNB5Ueuutt6T9Mr0ou0IppOH74YcfSjfK9KL3zKkyZMgQaZ9Q/i4aFyq9+OKL0n6ZXpRhoRLS8H300UelG2Ry0dsI6A3LKvhpFjhUzkvlDF1Xrlyx8vVTlGGhErLwXbBggXRjTC6aZi8pKYm30FsJCQnSPqFQdxaNE1XoDoGCBQtK+2VyUZaFQsjC18YnYVRN9zdt2jRpf1AoWdF4UWXKlCnSPplclGWhEJLwXbx4sXQjTK5Ro0bx1nnrs88+k/YHhcqsaNyoYuMUppRpbgtJ+LZv3166AaZWp06deMu8RW+/sPGfcajQF40bVW9PuXDhQqBx48bSfplalGlucz18ly9fLu28qUXv2Dp06BBvnXfoEc4aNWpI+4RCZado/NA4UmHt2rXWPQFH2eYm18O3W7du0o6bWkuXLuUt81aHDh2k/UGhclI0jlShh5BkfTK1KNvc5Gr42va44bhx43jLvDVixAhpf1CoYIrGkyp9+vSR9snUcnNWOVfD9+mnn5Z22MSit8mqMG/ePGl/UKjcFI0rFeiNzPXq1ZP2ycSijHOLa+FLUyrKOmti0f28Bw4c4C3zDk2WTW87lvUJhcpN0bhSNRn7xx9/LO2TqeXW9LGuhW/fvn2lHTWxVE3XFxcXJ+0PCuVG0fhS5bnnnpP2ycSirHODK+H71VdfSTtpYtHjwyqMHTtW2h8Uys2icabCkSNHApUqVZL2ycSizMstV8J30KBB0g6aWH//+995q7yzZcsWaV9QqFAUjTcVaO5rWX9MLMq83Mp1+NKEGhUqVJB20LRyY4cGw8YJSVD6Fo03Vbp27Srtk2lFmUfZlxu5Dl9bpo18+OGHA8ePH+et8g4uN6BUlKrLDzt37gwUKVJE2ifTKrfTTeY6fG35TTZ16lTeIu/s2bNH2hcUyoui8aeCLTP0UfblRq7CNzk5Wdop0+qJJ57gLfJWx44dpf1BobwoGn+qxMbGSvtkWlEGBivvzf9B0BYvXsxLZhs5ciQveWf+/Pli2bJl3ALwHo0/GocqjBkzhpfMlqsM5BAOStOmTaW/DUwqVS8grF69urQ/KJSXReNQlaFDh0r7ZFJRBgYr6PC1YR6HMmXKBFJSUniLvENzRsj6g0KpKFVzmNBnjz6Dsj6ZVMHO9xD0ZQcbLjn85je/ERUqVOCWNy5cuCASEhK4BaAejUcal16jzx59Bk0XdBZyCOeIDff2qnrWnS5zyPqDQqksVZffbJjPJNh7foMKXxvu7X3ppZd4a7xz4sQJaV9QKB2KxqcK9FmU9cekCuae36AuOyxZsoSXzJQvXz4l/9yZNGkSLwHoR9X4pM8ifSZNFlQmcghnmw339r7wwgu8Nd45ffp0IE+ePNL+oFA6FI1PGqcq0GdS1ieTKqf3/Ob4zNeWL9q8NmXKFPpFxy0A/dD4pHGqgi+/eHMiOAdMv7dXxRsq0tPTA+Hh4dL+oFA6FY1TGq8q0GdT1idTKqf3/ObozHft2rXiq6++4paZ+vfvz0vemTFjhrh06RK3APRF45TGqwoqPptuomykjMyuHIXv8uXLeclM3bt3F61ateKWd2bOnMlLAPpTNV7ps0mfUZPlJCNzFL7btm3jJTOpuK60YsUKsWfPHm4B6I/GK41bFUy/9rtlyxZeyga+/JClY8eOSa9zmFItW7bkLfFWz549pf1BoXQuGreqxMTESPtkSh0+fJi3JHPZPvPdunUrL5mpa9euvOSds2fPioULF3ILwBw0bmn8qtCtWzdeMtPmzZt5KXPZDl+TLzmEhYWJLl26cMs7qqbrA3CDqvFL4VukSBFumSe7lx6yHb6JiYm8ZB4K3ipVqnDLOzjrBZOpGr+VKlUy+uw329d9+fJDpugaBv1RU2vBggW8Jd7Zu3evtC8olElF41iFxYsXS/tjSh04cIC3JGPZOvM1+ZIDnfGquORgw5OAAKrGMX1m69Spwy3zrF+/npcylq3wze4FZB3RQaRrvl5bunQpLwGYS+U4NvnSQ7Yyk8+AM/Xzn/9cemptQiUmJvJWeIfmKJX1BYUysVTMe0127dol7Y8JFRkZyVuRsSzPfG/ueKdM1LJlS6e8puoGdYBQUDWeGzRoINq3b88tsxw5ckTs27ePW3JZhm+OntjQjIp7e8nKlSt5CcB8KsezyZcesrrum2X45mSiCJ2ourf3xo0bYs2aNdwCMB+NZxrXKlD4litXjltm2bBhAy/JZRm+69at4yWzqLq3l37bpaencwvAfDSes/PtfSiEh4cbe/ab1bMRmYZvcnKyOHXqFLfM0rZtW17y1saNG3kJwB4qx/Vjjz3GS2ahx7N3797NrftlGr6mXnIgjz76KC95y+Tb8gAyonJct2jRQuTPn59bZsns0oOV4du8eXNRtWpVbnnL9Gk3AWRUjuuyZcs6n2kTZXa5JtPw/frrr3nJLKrOenfs2CF++OEHbgHYg8b1zp07ueU9Ovs1UWYZmmH4pqWliaNHj3LLLKrCNykpiZcA7KMyfGNiYnjJLJShlKUyGYYvfdlmIrrFTFX47tq1i5cA7KNyfMfFxYnixYtzyywZZWmG4ZvV0xm6at26tbK5QDP7ZhPAdCrH9wMPPGDsdd+MstS68G3Tpg0veW/v3r28BGAf1eM7NjaWl8zim/BV8XZiQtd2UlNTuQVgHxrfKr8Hio+P5yWz+CJ8y5QpIxo2bMgtbx08eJCXAOylcpw3atRIREREcMscOQrfa9euiUOHDnHLHCovORw+fJiXAOylepyb+LQbZSll6r2k4WvqJQf6sk0VmkIOwHaqxznd9WAiWaZKw9fU28yioqJ4yXvHjx/nJQB7qR7nKj/juSHLVKvOfGvWrMlL3jt58iQvAdhL9ThX+RnPjWyf+ZoYvtWrV3fuBVTl9OnTvARgL9XjnD7j9Fk3jdXhW6tWLV5S49y5c7wEYC8dxrnqz3owshW+NGP9/v37uWUOlQeEJpu+evUqtwDsReNc9csCTAxfytR73wZyX/iaeNZLVB6QS5cu8RKA/VSPdxPDl9ybrdaEr8oL8TjrBT9RPd5t+dLtvvA19TYzlb8Nv/vuO14CsJ/q8W7qme+92Xpf+F6+fJmXzFGxYkVRrFgxbnkPE6iDn6ge7/RZp8+8ae69XHNf+F65coWXzKH6N6Hs0UEAW+kw3k08+733xNaKM1/VB+LebzEBbKbDeLcyfE088zX1AjwABMfEzzzOfEMgb977diOAtXQY7yae+WZ5zffixYu8ZI4SJUrwkhoFChTgJQD76TDew8PDeckcWZ75mvjAgOoX6xUsWJCXAOynw3hXfcIVDCvDV/WBUPXCTgAVdBjvJr7JONPwpW8xTbxtSvWBUHmPMYDXdBjvJn7mKFvvvFPkrvA18U4HOgiqr0GZeP0JIFg6jHf6zJt+9ntX+Jp4p4MO137CwsJw9gu+QOOcxrsOTP/SzfgzX10uvNObkwFsp9M4NzF87/xODeHrknLlyvESgL10Guem3/FwV/jiNrPgVahQgZcA7KXTOEf4KqbLAahUqRIvAdhLp3Fu1RduCN/gRUZG8hKAvXQa56aHb57ATbwsEhISxKpVq8T169elRfeoydbfqsx+fsdf46phw4aJCRMmcEsd2m9t27blFoCdVq5cKeLj47ml1ogRI0L22c+TJ4/zpuRgiua+kC1TxcXFiVdfffV/f8ed4RtK9NfcG8iysA5mXWxsLP8t6hw9ehRnv2C9I0eOiMqVK3NLrY0bN94VbHfWvaGX0zaFb6h5Fr5+QPdApqamcgvALkWLFsX7Cl101zVfyJ1HHnmElwDsg/HtLoSvi+rVq8dLAPbB+HYXwtdFDRs25CUA+2B8uwvh66ImTZrwEoB9GjduzEvgBnzh5rJChQrhVfJgHZpA/fvvv+cWuAFnvi6Ljo7mJQB7YFy7D+HrspYtW/ISgD0wrt2H8HWZDg98ALgN49p9uObrMnryrnDhwiI9PZ3XAJiNJk9PS0tzngID92BvuowGaJs2bbgFYD4azwhe92GPhgAm2AGbYDyHBsI3BNq1a8dLAObDeA4NhG8IVKtWDQ9cgBVoHNN4BvchfEOkc+fOvARgLozj0EH4hkjXrl15CcBcGMehg/ANkTp16ohmzZpxC8A8NH5pHENoIHxDqGfPnrwEYB6M39DCQxYhdPbsWVG2bFluAZjlzJkzIiIiglvgNpz5hhANXJw9gIlo3CJ4QwvhG2K//vWveQnAHBi3oYfLDh6g16/s2bOHWwB6q1u3rti9eze3IFRw5uuB559/npcA9Ifx6g2c+Xrg2rVrzvWzS5cu8RoAPYWHhztfFBcoUIDXQKjgzNcDNJAHDhzILQB90ThF8HoDZ74eodt2ypcvL7C7QVd58uQRp06dwu2RHsGZr0doQL/88svcAtAPjU8Er3dw5uuhlJQU8dBDD3ELQC8nTpwQFStW5BaEGs58PUQDe/jw4dwC0AeNSwSvt3Dm67ELFy6IypUri9TUVF4DoFbRokXF0aNHxYMPPshrwAs48/UYDfA//OEP3AJQj8Yjgtd7OPNVpEaNGuLgwYPcAlCjevXq4sCBA9wCL+HMV5HXX3+dlwDUwThUB2e+CnXq1EksW7aMWwDe6tixo/j888+5BV5D+Cq0d+9eZxITABVosqdHHnmEW+A1XHZQiAb+2LFjuQXgHRp3CF61cOargejoaLF9+3ZuAYQWvZtt27Zt3AJVcOargYkTJ/ISQOhhvOkB4auB5s2b4/IDeILGGY03UA+XHTQSHx8vVq9ezS0Ad8XFxYlVq1ZxC1RD+Grk0KFDolGjRuLq1au8BsAdxYoVE//4xz9EtWrVeA2ohssOGqEPxowZM7gF4B4aVwhevSB8NfP000+LESNGcAsg92g80bgCveCyg6bo6aMvvviCWwDB6dChA56i1BTCV1M09WSLFi0w6QkEjSZv2rJlC2Ys0xQuO2iKPjBz5swRBQsW5DUA2UfjhsYPgldfCF+NNWnSRMybN49bANlH44bGD+gL4au5rl27imnTpnELIGs0XmjcgN4QvgZ48cUXRUJCArcAMkbjhMYL6A/ha4gxY8aI0aNHcwvgfjQ+aJyAGXC3g2GGDh0qJk2axC2A/xkyZAgmzDEMwtdA9EH785//zC3wu1deeQW/kA2Eyw4Gog/a8OHDuQV+RuMAwWsmhK+hxo8fL1577TVugR/R8adxAGbCZQfD0VkPXQcGf6Hru3T5CcyF8LXARx99JPr06cMtsN3s2bPFs88+yy0wFcLXEmvXrhXPPPOMOHv2LK8B20RERIi5c+eK1q1b8xowGa75WoI+kJs3b3Zexgn2oeNKxxfBaw+Er0VosuytW7eKfv368RqwAR1POq6YDN0uCF8L/e1vf8MN95ag40jHE+yDa74W27hxoxgwYIBITk7mNWCKWrVqORPkxMbG8hqwDc58LUYfXHppYv/+/XkNmICOFx03BK/dEL6Wo0m133vvPed2tFKlSvFa0BEdHzpOdLwwib79EL4+0bt3b7F3717nv6AfHB//Qfj6CN0nSmdWixYtElWrVuW1oBIdBzoedFzo+IB/IHx96MknnxQHDx7E/MCK0f6n40DHA/wH4etTefPmFW+++abzT90ePXrwWvAC7W/a77T/6TiAP+FWM3CsWrVKjBs3TmzYsIHXgNtatWrlnO3Gx8fzGvAzhC/c5ZNPPnFu7N++fTuvgdxq1qyZM/Pcr371K14DgPCFDFAIT548WSQmJvIayKmYmBgxePBghC5IIXwhU3Q5gp60WrJkCa+BrHTp0sV5shCXFyAzCF/Iln/+85/i/fffF7NmzRKXLl3itXBLeHi4MwEOPZ1Wp04dXguQMYQv5MiNGzecybxpXtk1a9bwWv9q06aNM48yTWaPOxcgJxC+ELRDhw45Dwh8+umnzlwEftGoUSPRvXt355YxTPMIwUL4givossSyZcvE8uXLnUm/bdOyZUvRvn170bFjR1xWAFcgfMF19Cqj1atXi3Xr1on169eLo0eP8k/MERkZ6dyX+/jjj4u4uDg8+guuQ/hCyNHliS1btogvv/xS7NixQyQlJQmdhl2ePHlE48aNxS9+8QsRFRUlWrRogcsJEHIIX/DcTz/9JL755huxZ88esW/fPrF//34noA8fPiyuXbvGf8p9BQoUcCayoWCtWbOmqF27tqhbt66oX7++yJcvH/8pAG8gfEErJ0+eFCkpKeLUqVPO5Yvz58+LixcvisuXL4vU1FSRlpYm0tPTnQCnoUtnrRScYWFhonDhwqJo0aKiRIkSomTJkqJ06dLO5YLy5cuLihUrigoVKvDfAqAewhcAQAHcmAgAoADCFwDAc0L8F/rxMJbU5j6wAAAAAElFTkSuQmCC;" vertex="1" parent="1">
          <mxGeometry x="402" y="460" width="24" height="17.5" as="geometry" />
        </mxCell>
        <mxCell id="KHGWq4t0KqPDSNJ2tSIA-128" style="edgeStyle=orthogonalEdgeStyle;rounded=0;orthogonalLoop=1;jettySize=auto;html=1;endArrow=none;endFill=0;entryX=0.132;entryY=-0.003;entryDx=0;entryDy=0;entryPerimeter=0;" edge="1" parent="1" source="KHGWq4t0KqPDSNJ2tSIA-64" target="KHGWq4t0KqPDSNJ2tSIA-115">
          <mxGeometry relative="1" as="geometry">
            <mxPoint x="160" y="790" as="targetPoint" />
            <Array as="points">
              <mxPoint x="150" y="730" />
              <mxPoint x="150" y="730" />
            </Array>
          </mxGeometry>
        </mxCell>
        <mxCell id="KHGWq4t0KqPDSNJ2tSIA-64" value="Oauth2" style="shape=module;align=left;spacingLeft=20;align=center;verticalAlign=top;whiteSpace=wrap;html=1;fillColor=#dae8fc;strokeColor=#6c8ebf;" vertex="1" parent="1">
          <mxGeometry x="64" y="620" width="100" height="50" as="geometry" />
        </mxCell>
        <mxCell id="KHGWq4t0KqPDSNJ2tSIA-66" value="" style="shape=image;verticalLabelPosition=bottom;labelBackgroundColor=default;verticalAlign=top;aspect=fixed;imageAspect=0;image=data:image/png,iVBORw0KGgoAAAANSUhEUgAAAV8AAAEACAYAAAAUbXWjAAAAAXNSR0IArs4c6QAAAARnQU1BAACxjwv8YQUAAAAJcEhZcwAADsMAAA7DAcdvqGQAACFPSURBVHhe7d0JdBXVGQfwCwJhJ1QgbCIByio7JQSIQSGhyA4VFJFCUSvQorJDPR7PwUgLQisoS9GiyO4CiBzKvoRNIUWBEkAoW9hL2WI0KLzyTT8oy832Mm/uMv/fOd9x7oQjd2bu+2eYN3MnT+AmAQAAnsrL/wUAAA/hzBc8d+nSJXHw4EHxn//8R3z33Xf3VWpqqnS9rEiRIkWyVUWLFpWu/9nPfiaqV68uwsPDnf8fgBcQvhASP/74oxOwsjp37hz/Kb2UKVPGCWFZ5c+fn/8UgDsQvpArx44dcwL1wIEDdwXskSNH+E/YITIy8q4wrlGjhvPfhx9+mP8EQM4gfCHbjh8/LjZs2CDWr18vkpKSnJBNT0/nn/pTWFiYE8JNmjQRrVu3Fo899pgoX748/xQgYwhfyNCpU6duh+3GjRvFt99+yz+BzNSuXdsJ4scff1xER0eLiIgI/gnA/yF84Ta6FktBm5iYKLZs2SK+/vpr/gnkRtOmTZ0wpiBu3ry5ePDBB/kn4GcIXx+juw1uBS3V1q1b+ScQSnRGTCFMRYGMuyz8CeHrM3Q2u3Tp0tuBm5aWxj8BFehWtxYtWjhB3LlzZ9GgQQP+CdgO4esDp0+fdgJ3yZIlYuXKlbwWdNS2bVvRpUsXJ4jLlSvHa8FGCF9L3bhx43bg0n8vX77MPwETlChRwgngW0GcNy8eRrUNwtcydN32VujSrWBgPrqV7VYI0+UJsAPC1wKHDx++Hbj0BRrYKyYm5nYQV61aldeCiRC+hqL5D+68rECP84J/0OPOd16WoHkrwCwIX8N8+eWXYs6cOU7opqSk8Frws4oVKzoh3Lt3bxEVFcVrQXcIX0OsXr1afPDBB2LevHm8BuB+vXr1En379hVxcXG8BnSF8NXcp59+6oTuF198wWsAstahQwcnhLt3785rQDcIX01R4M6aNUts2rSJ1wDk3KOPPir69evnBDHoBeGrkStXrtwOXcyrAG6iJ+duhXDx4sV5LaiE8NUAfXF2K3T/9a9/8VoA91WpUuV2CNMXdaAOwleh5ORkJ3ApeM+fP89rAUKvdOnSTgBTENeqVYvXgpcQvgrQk2eTJk1yQtfvk5GDWjQZPIXwkCFDnCfpwDsIX49NnDhR/OlPf8KZLmiFzoRHjhwphg4dymsg1BC+HlmxYoUTuvRGCABdxcbGOiHcrl07XgOhgvANMXrBJIXutGnTeA2A/gYMGOCEMF4QGjoI3xB65513nODFY8BgIrobggL4d7/7Ha8BNyF8Q2DdunVO6K5atYrXAJgrPj7eCWF6/RG4B+HrojNnzjih+5e//IXXANjj5ZdfdkK4bNmyvAZyA+HrkpkzZzrBS3PrAtiK5hCmAH7++ed5DQQL4ZtL9BJKCt1ly5bxGgD7dezY0QlhevknBAfhmwvjx493BiCAX9GJx4gRI7gFOYHwDcLx48ed0F2wYAGvAfCvp556ygnhSpUq8RrIDrwSNYfolT307S+CF+B/6LNAnwn6bED2IXxz4PXXX3de13LgwAFeAwCEPhP02aDPCGQPLjtkw/79+53rWvhSDSBr9GUcfR9Ss2ZNXgMyOPPNAr0zjd6HheAFyB76rNBnBu8bzBzOfDNw48YN50u1t956i9cAQE4NGzbM+TIub16c590Le0QiKSnJ+QIBwQuQO/QZos8Sfabgbgjfe7z33nvOYFm7di2vAYDcoM8SfaboswX/h8sO7Pr162Lw4MFi6tSpvAYA3DZw4EDx9ttvi3z58vEa/0L43nT16lXx7LPP4j5FAA+0b9/eeYVWqVKleI0/+T58aSYyCt41a9bwGgAItejoaDF79mxRrVo1XuM/vr7mSzOQde/eHcEL4LFt27aJDh06iJ07d/Ia//Htme+ePXtEp06dxNGjR3kNAHiNXtxJ9wO3adOG1/iHL8N3+/btIiYmRvz000+8BgBUeeCBB8T8+fPFk08+yWv8wXeXHegVP3S9CcELoAe606hHjx7OCwn8xFdnvvTYI11qAH2UKFFC1KpVy6nIyEhRuHDhHBVJS0vLUR05ckQkJyc7dfnyZef/AXqgOSGGDx/OLbv5JnznzJnj3NUAapQvX96ZaOVW0FJRm9ardOrUKWfipFthTEVtWg9qjBkzRiQkJHDLXr4IX3q2fNSoUdyCUGvQoIFo1aqVqFev3u2gpTNck9AZ8a0w3r17t0hMTMQjsh6ihzHeffddbtnJ+vD9/e9/L9555x1uQShERUU519FjY2Od0A0PD+ef2OXKlSvOLVKbNm1ywpgKQqdXr15i7ty53LKP1eHbrVs3sXjxYm6BGwoVKuSEbdOmTZ3AtTlss3IrjOnuGfovhTFdUwb3PPHEE2L58uXcsou14du2bVuxatUqbkFu0OUD+kV2K3D9GrZZuTOM6VH1Xbt28U8gN375y1+KFStWcMseVoZvz549xaJFi7gFwShevLgTuFT0ZgLIOXpy8vPPP3fq2LFjvBaC0adPH/Hhhx9yyxIUvjZ54YUX6JcJKshq1apVYPLkyYGUlBTeo5Bb33//fWDhwoWBZ555JlCsWDHpfkdlXcOGDeM9agerwnfEiBHSg4bKvCpXrhwYMmRIYPPmzbwnIVROnjwZmDp1auDmP6WlxwKVeU2YMIH3pPmsCd8333xTerBQGVe3bt0Cc+bMCaSlpfFeBC/t3r078MYbbwQaN24sPT4oeX3wwQe8B81mRfjSmYTsIKHur+LFiwcGDx4c2LVrF+890MGMGTMQwjmo+fPn854zl/HhO2/ePOnBQd1dFStWDLz66quBw4cP854DHSGEs1+fffYZ7zUzGR2+K1askB4U1P+rVq1agfHjxwfOnTvHew1MgBDOXi1fvpz3mHmMDd9t27YFwsPDpQcEJQJRUVGB6dOnB3744QfeY2AihHDWtXbtWt5bZjEyfJOTkwNVqlSRHgi/V1xcXGDu3Lm8p8AWCOGMq0CBAkbeqWNc+J4+fTrQpEkT6UHwc0VHRweWLFnCewlsNWXKlEClSpWkY8DPRd9p7Nixg/eSGYwKX7pZPT4+Xrrz/Vp090JCQkLg+vXrvJfAdidOnHDuWJGNBz9X9erVndv3TGFU+Pbu3Vu60/1a9MSUSYMN3EXXOtu1aycdG36t5s2bB65evcp7SG/GzO3wxz/+UYwePZpb/kbz5Y4cOVI89dRTvMYeJ0+eFCkpKc5k5mfPnhXnz58XFy9edObXTU1NdWYNS09Pd14DRUM3T548Il++fCIsLMx5s0XRokWduYNLlizpvJwxIiLCmbD95j9LRYUKFfhvscuMGTPEhAkTnLdxgxC//e1vxfTp07mlLyPClyYm6dy5M7f8K3/+/E7oUlHImIqC85tvvnHeIL1v3z7nzRGHDh1ywuPatWv8p9xXoEABUbVqVVGtWjXnLRq1a9cWdevWFfXr13cC3GT0i4oCeOLEibzG32gO70GDBnFLUxS+Orv5oQzc/MDc9U8LP1bXrl0D27dv571ilm+//dZ5JHTAgAHOl6U3z1al26iqqD/UL+of9ZP6a6pNmzYFOnbsKN1OP1WhQoWcfaEz7cO3U6dO0p3rlypbtmzg/fff571hhjNnzgQ++uijQL9+/QKRkZHS7dK9aLIh6j9tB22PaWjM0NiRbZtfqmnTpoGLFy/yHtGP1uE7atQo6U71S9HMV6Z8obZ3797AuHHjAi1btpRui+lF20XbR9tpCho7fp897bnnnuO9oR9tw5fOOGQ70y81cuRI3hP6on+e021ujRo1km6DrUXbS9ttyuUJGkuy7fBLvf3227wn9KJl+CYlJQVKly4t3ZG210MPPaT1jE10P/GsWbMCbdq0kfbfb0X7gfaH7vdZ05iisSXbBtsrf/78gXXr1vGe0Id24UtzEdDbFGQ70fbq0KFDYN++fbwn9EL/3H7llVcwn0YGRfuF9o/OlyVobNEYk/Xf9qJHs//973/zntCDduE7cOBA6c6zvWi6Rx2tXLky0KVLF2mfUfKi/UX7TVc01mT9tr369u3Le0APWoXvu+++K91pNhfdDfDJJ5/wHtDHxx9/HIiJiZH2GZW9ov1H+1FHNOZMvRMlNzVx4kTeA+ppE77r168PhIWFSXeYrUX37ur2pQ2FRbNmzaT9RQVXtD91DGEaezQGZX22tfLmzRtYvXo17wG1tAhfmujbb9+YDxo0iLdeD/TPZL9ea/eqaP/qeDnCb2/8rl+/vhb3bmsRvnQzu2wn2Vpjx47lLVePviDq0aOHtJ+o0BTtb92+mBszZoy0r7YWZY5qysN30aJF0p1ja82cOZO3XC26NWr06NHSPqK8Kdr/Ot2iRtdDZf20tSh7VFIavjT1W8OGDaU7xsZatmwZb7laNOgwX4YeRcdBdQjcaeHChc51UVlfbSvKHpXTTyoNXz+deekwyz5d58KcyHoWHRdd5pCg+4H98pATZZAqysKXZhyS7QzbqlixYs6bB1Sjx7VLlSol7SNKj6LjQ8dJF/Tma1k/bStVs58pC18/zMBPL/n88ccfeYvVoFcv9e/fX9o/lJ5Fx4uOmw7atm0r7aNNRVmkgpLwnTx5snQn2FR0b6dqGzZs8M3Zi21Fx42Onw6GDRsm7aNNRZnkNc/Dl27stn2e0bp16/LWquO3b65tLV2eyHrppZek/bOlKJO8fuDJ8/C1/Z7e8uXL85aq47f7pm0vHe5JJb169ZL2z5byej97Gr6239NbsmRJ3lI16Dd3dHS0tG8os4uOqw6Pots+laiXt/15Fr6239NL81IcO3aMt9Z7a9asCUREREj7hrKj6PjScVaNHs+V9c+G8vLeX8/C1/Z7ehMTE3lLvTd79mxpn1B2Fh1vlWhe3HLlykn7ZkN5de+vJ+Fr+z29c+fO5S31Hr5Y82ep/iKO5qbIly+ftG82lBf3/noSvjbf0zt9+nTeSu+99tpr0j6h/FF0/FWiSyCyftlQXtz7G/Lw/etf/yrdOBtq0qRJvJXeGz58uLRPKH8VjQOV5syZI+2XDUXZFUohD9+oqCjphpleb7zxBm+h9+hdYbI+ofxZNB5Ueuutt6T9Mr0ou0IppOH74YcfSjfK9KL3zKkyZMgQaZ9Q/i4aFyq9+OKL0n6ZXpRhoRLS8H300UelG2Ry0dsI6A3LKvhpFjhUzkvlDF1Xrlyx8vVTlGGhErLwXbBggXRjTC6aZi8pKYm30FsJCQnSPqFQdxaNE1XoDoGCBQtK+2VyUZaFQsjC18YnYVRN9zdt2jRpf1AoWdF4UWXKlCnSPplclGWhEJLwXbx4sXQjTK5Ro0bx1nnrs88+k/YHhcqsaNyoYuMUppRpbgtJ+LZv3166AaZWp06deMu8RW+/sPGfcajQF40bVW9PuXDhQqBx48bSfplalGlucz18ly9fLu28qUXv2Dp06BBvnXfoEc4aNWpI+4RCZado/NA4UmHt2rXWPQFH2eYm18O3W7du0o6bWkuXLuUt81aHDh2k/UGhclI0jlShh5BkfTK1KNvc5Gr42va44bhx43jLvDVixAhpf1CoYIrGkyp9+vSR9snUcnNWOVfD9+mnn5Z22MSit8mqMG/ePGl/UKjcFI0rFeiNzPXq1ZP2ycSijHOLa+FLUyrKOmti0f28Bw4c4C3zDk2WTW87lvUJhcpN0bhSNRn7xx9/LO2TqeXW9LGuhW/fvn2lHTWxVE3XFxcXJ+0PCuVG0fhS5bnnnpP2ycSirHODK+H71VdfSTtpYtHjwyqMHTtW2h8Uys2icabCkSNHApUqVZL2ycSizMstV8J30KBB0g6aWH//+995q7yzZcsWaV9QqFAUjTcVaO5rWX9MLMq83Mp1+NKEGhUqVJB20LRyY4cGw8YJSVD6Fo03Vbp27Srtk2lFmUfZlxu5Dl9bpo18+OGHA8ePH+et8g4uN6BUlKrLDzt37gwUKVJE2ifTKrfTTeY6fG35TTZ16lTeIu/s2bNH2hcUyoui8aeCLTP0UfblRq7CNzk5Wdop0+qJJ57gLfJWx44dpf1BobwoGn+qxMbGSvtkWlEGBivvzf9B0BYvXsxLZhs5ciQveWf+/Pli2bJl3ALwHo0/GocqjBkzhpfMlqsM5BAOStOmTaW/DUwqVS8grF69urQ/KJSXReNQlaFDh0r7ZFJRBgYr6PC1YR6HMmXKBFJSUniLvENzRsj6g0KpKFVzmNBnjz6Dsj6ZVMHO9xD0ZQcbLjn85je/ERUqVOCWNy5cuCASEhK4BaAejUcal16jzx59Bk0XdBZyCOeIDff2qnrWnS5zyPqDQqksVZffbJjPJNh7foMKXxvu7X3ppZd4a7xz4sQJaV9QKB2KxqcK9FmU9cekCuae36AuOyxZsoSXzJQvXz4l/9yZNGkSLwHoR9X4pM8ifSZNFlQmcghnmw339r7wwgu8Nd45ffp0IE+ePNL+oFA6FI1PGqcq0GdS1ieTKqf3/Ob4zNeWL9q8NmXKFPpFxy0A/dD4pHGqgi+/eHMiOAdMv7dXxRsq0tPTA+Hh4dL+oFA6FY1TGq8q0GdT1idTKqf3/ObozHft2rXiq6++4paZ+vfvz0vemTFjhrh06RK3APRF45TGqwoqPptuomykjMyuHIXv8uXLeclM3bt3F61ateKWd2bOnMlLAPpTNV7ps0mfUZPlJCNzFL7btm3jJTOpuK60YsUKsWfPHm4B6I/GK41bFUy/9rtlyxZeyga+/JClY8eOSa9zmFItW7bkLfFWz549pf1BoXQuGreqxMTESPtkSh0+fJi3JHPZPvPdunUrL5mpa9euvOSds2fPioULF3ILwBw0bmn8qtCtWzdeMtPmzZt5KXPZDl+TLzmEhYWJLl26cMs7qqbrA3CDqvFL4VukSBFumSe7lx6yHb6JiYm8ZB4K3ipVqnDLOzjrBZOpGr+VKlUy+uw329d9+fJDpugaBv1RU2vBggW8Jd7Zu3evtC8olElF41iFxYsXS/tjSh04cIC3JGPZOvM1+ZIDnfGquORgw5OAAKrGMX1m69Spwy3zrF+/npcylq3wze4FZB3RQaRrvl5bunQpLwGYS+U4NvnSQ7Yyk8+AM/Xzn/9cemptQiUmJvJWeIfmKJX1BYUysVTMe0127dol7Y8JFRkZyVuRsSzPfG/ueKdM1LJlS6e8puoGdYBQUDWeGzRoINq3b88tsxw5ckTs27ePW3JZhm+OntjQjIp7e8nKlSt5CcB8KsezyZcesrrum2X45mSiCJ2ourf3xo0bYs2aNdwCMB+NZxrXKlD4litXjltm2bBhAy/JZRm+69at4yWzqLq3l37bpaencwvAfDSes/PtfSiEh4cbe/ab1bMRmYZvcnKyOHXqFLfM0rZtW17y1saNG3kJwB4qx/Vjjz3GS2ahx7N3797NrftlGr6mXnIgjz76KC95y+Tb8gAyonJct2jRQuTPn59bZsns0oOV4du8eXNRtWpVbnnL9Gk3AWRUjuuyZcs6n2kTZXa5JtPw/frrr3nJLKrOenfs2CF++OEHbgHYg8b1zp07ueU9Ovs1UWYZmmH4pqWliaNHj3LLLKrCNykpiZcA7KMyfGNiYnjJLJShlKUyGYYvfdlmIrrFTFX47tq1i5cA7KNyfMfFxYnixYtzyywZZWmG4ZvV0xm6at26tbK5QDP7ZhPAdCrH9wMPPGDsdd+MstS68G3Tpg0veW/v3r28BGAf1eM7NjaWl8zim/BV8XZiQtd2UlNTuQVgHxrfKr8Hio+P5yWz+CJ8y5QpIxo2bMgtbx08eJCXAOylcpw3atRIREREcMscOQrfa9euiUOHDnHLHCovORw+fJiXAOylepyb+LQbZSll6r2k4WvqJQf6sk0VmkIOwHaqxznd9WAiWaZKw9fU28yioqJ4yXvHjx/nJQB7qR7nKj/juSHLVKvOfGvWrMlL3jt58iQvAdhL9ThX+RnPjWyf+ZoYvtWrV3fuBVTl9OnTvARgL9XjnD7j9Fk3jdXhW6tWLV5S49y5c7wEYC8dxrnqz3owshW+NGP9/v37uWUOlQeEJpu+evUqtwDsReNc9csCTAxfytR73wZyX/iaeNZLVB6QS5cu8RKA/VSPdxPDl9ybrdaEr8oL8TjrBT9RPd5t+dLtvvA19TYzlb8Nv/vuO14CsJ/q8W7qme+92Xpf+F6+fJmXzFGxYkVRrFgxbnkPE6iDn6ge7/RZp8+8ae69XHNf+F65coWXzKH6N6Hs0UEAW+kw3k08+733xNaKM1/VB+LebzEBbKbDeLcyfE088zX1AjwABMfEzzzOfEMgb977diOAtXQY7yae+WZ5zffixYu8ZI4SJUrwkhoFChTgJQD76TDew8PDeckcWZ75mvjAgOoX6xUsWJCXAOynw3hXfcIVDCvDV/WBUPXCTgAVdBjvJr7JONPwpW8xTbxtSvWBUHmPMYDXdBjvJn7mKFvvvFPkrvA18U4HOgiqr0GZeP0JIFg6jHf6zJt+9ntX+Jp4p4MO137CwsJw9gu+QOOcxrsOTP/SzfgzX10uvNObkwFsp9M4NzF87/xODeHrknLlyvESgL10Guem3/FwV/jiNrPgVahQgZcA7KXTOEf4KqbLAahUqRIvAdhLp3Fu1RduCN/gRUZG8hKAvXQa56aHb57ATbwsEhISxKpVq8T169elRfeoydbfqsx+fsdf46phw4aJCRMmcEsd2m9t27blFoCdVq5cKeLj47ml1ogRI0L22c+TJ4/zpuRgiua+kC1TxcXFiVdfffV/f8ed4RtK9NfcG8iysA5mXWxsLP8t6hw9ehRnv2C9I0eOiMqVK3NLrY0bN94VbHfWvaGX0zaFb6h5Fr5+QPdApqamcgvALkWLFsX7Cl101zVfyJ1HHnmElwDsg/HtLoSvi+rVq8dLAPbB+HYXwtdFDRs25CUA+2B8uwvh66ImTZrwEoB9GjduzEvgBnzh5rJChQrhVfJgHZpA/fvvv+cWuAFnvi6Ljo7mJQB7YFy7D+HrspYtW/ISgD0wrt2H8HWZDg98ALgN49p9uObrMnryrnDhwiI9PZ3XAJiNJk9PS0tzngID92BvuowGaJs2bbgFYD4azwhe92GPhgAm2AGbYDyHBsI3BNq1a8dLAObDeA4NhG8IVKtWDQ9cgBVoHNN4BvchfEOkc+fOvARgLozj0EH4hkjXrl15CcBcGMehg/ANkTp16ohmzZpxC8A8NH5pHENoIHxDqGfPnrwEYB6M39DCQxYhdPbsWVG2bFluAZjlzJkzIiIiglvgNpz5hhANXJw9gIlo3CJ4QwvhG2K//vWveQnAHBi3oYfLDh6g16/s2bOHWwB6q1u3rti9eze3IFRw5uuB559/npcA9Ifx6g2c+Xrg2rVrzvWzS5cu8RoAPYWHhztfFBcoUIDXQKjgzNcDNJAHDhzILQB90ThF8HoDZ74eodt2ypcvL7C7QVd58uQRp06dwu2RHsGZr0doQL/88svcAtAPjU8Er3dw5uuhlJQU8dBDD3ELQC8nTpwQFStW5BaEGs58PUQDe/jw4dwC0AeNSwSvt3Dm67ELFy6IypUri9TUVF4DoFbRokXF0aNHxYMPPshrwAs48/UYDfA//OEP3AJQj8Yjgtd7OPNVpEaNGuLgwYPcAlCjevXq4sCBA9wCL+HMV5HXX3+dlwDUwThUB2e+CnXq1EksW7aMWwDe6tixo/j888+5BV5D+Cq0d+9eZxITABVosqdHHnmEW+A1XHZQiAb+2LFjuQXgHRp3CF61cOargejoaLF9+3ZuAYQWvZtt27Zt3AJVcOargYkTJ/ISQOhhvOkB4auB5s2b4/IDeILGGY03UA+XHTQSHx8vVq9ezS0Ad8XFxYlVq1ZxC1RD+Grk0KFDolGjRuLq1au8BsAdxYoVE//4xz9EtWrVeA2ohssOGqEPxowZM7gF4B4aVwhevSB8NfP000+LESNGcAsg92g80bgCveCyg6bo6aMvvviCWwDB6dChA56i1BTCV1M09WSLFi0w6QkEjSZv2rJlC2Ys0xQuO2iKPjBz5swRBQsW5DUA2UfjhsYPgldfCF+NNWnSRMybN49bANlH44bGD+gL4au5rl27imnTpnELIGs0XmjcgN4QvgZ48cUXRUJCArcAMkbjhMYL6A/ha4gxY8aI0aNHcwvgfjQ+aJyAGXC3g2GGDh0qJk2axC2A/xkyZAgmzDEMwtdA9EH785//zC3wu1deeQW/kA2Eyw4Gog/a8OHDuQV+RuMAwWsmhK+hxo8fL1577TVugR/R8adxAGbCZQfD0VkPXQcGf6Hru3T5CcyF8LXARx99JPr06cMtsN3s2bPFs88+yy0wFcLXEmvXrhXPPPOMOHv2LK8B20RERIi5c+eK1q1b8xowGa75WoI+kJs3b3Zexgn2oeNKxxfBaw+Er0VosuytW7eKfv368RqwAR1POq6YDN0uCF8L/e1vf8MN95ag40jHE+yDa74W27hxoxgwYIBITk7mNWCKWrVqORPkxMbG8hqwDc58LUYfXHppYv/+/XkNmICOFx03BK/dEL6Wo0m133vvPed2tFKlSvFa0BEdHzpOdLwwib79EL4+0bt3b7F3717nv6AfHB//Qfj6CN0nSmdWixYtElWrVuW1oBIdBzoedFzo+IB/IHx96MknnxQHDx7E/MCK0f6n40DHA/wH4etTefPmFW+++abzT90ePXrwWvAC7W/a77T/6TiAP+FWM3CsWrVKjBs3TmzYsIHXgNtatWrlnO3Gx8fzGvAzhC/c5ZNPPnFu7N++fTuvgdxq1qyZM/Pcr371K14DgPCFDFAIT548WSQmJvIayKmYmBgxePBghC5IIXwhU3Q5gp60WrJkCa+BrHTp0sV5shCXFyAzCF/Iln/+85/i/fffF7NmzRKXLl3itXBLeHi4MwEOPZ1Wp04dXguQMYQv5MiNGzecybxpXtk1a9bwWv9q06aNM48yTWaPOxcgJxC+ELRDhw45Dwh8+umnzlwEftGoUSPRvXt355YxTPMIwUL4givossSyZcvE8uXLnUm/bdOyZUvRvn170bFjR1xWAFcgfMF19Cqj1atXi3Xr1on169eLo0eP8k/MERkZ6dyX+/jjj4u4uDg8+guuQ/hCyNHliS1btogvv/xS7NixQyQlJQmdhl2ePHlE48aNxS9+8QsRFRUlWrRogcsJEHIIX/DcTz/9JL755huxZ88esW/fPrF//34noA8fPiyuXbvGf8p9BQoUcCayoWCtWbOmqF27tqhbt66oX7++yJcvH/8pAG8gfEErJ0+eFCkpKeLUqVPO5Yvz58+LixcvisuXL4vU1FSRlpYm0tPTnQCnoUtnrRScYWFhonDhwqJo0aKiRIkSomTJkqJ06dLO5YLy5cuLihUrigoVKvDfAqAewhcAQAHcmAgAoADCFwDAc0L8F/rxMJbU5j6wAAAAAElFTkSuQmCC;" vertex="1" parent="1">
          <mxGeometry x="110" y="584" width="24" height="17.5" as="geometry" />
        </mxCell>
        <mxCell id="KHGWq4t0KqPDSNJ2tSIA-69" style="edgeStyle=orthogonalEdgeStyle;rounded=0;orthogonalLoop=1;jettySize=auto;html=1;entryX=0.58;entryY=-0.033;entryDx=0;entryDy=0;entryPerimeter=0;endArrow=none;endFill=0;" edge="1" parent="1" source="KHGWq4t0KqPDSNJ2tSIA-66" target="KHGWq4t0KqPDSNJ2tSIA-64">
          <mxGeometry relative="1" as="geometry" />
        </mxCell>
        <mxCell id="KHGWq4t0KqPDSNJ2tSIA-70" value="User Manager" style="shape=module;align=left;spacingLeft=20;align=center;verticalAlign=top;whiteSpace=wrap;html=1;fillColor=#dae8fc;strokeColor=#6c8ebf;" vertex="1" parent="1">
          <mxGeometry x="210" y="620" width="100" height="50" as="geometry" />
        </mxCell>
        <mxCell id="KHGWq4t0KqPDSNJ2tSIA-71" value="Plant Manager" style="shape=module;align=left;spacingLeft=20;align=center;verticalAlign=top;whiteSpace=wrap;html=1;fillColor=#dae8fc;strokeColor=#6c8ebf;" vertex="1" parent="1">
          <mxGeometry x="361" y="620" width="100" height="50" as="geometry" />
        </mxCell>
        <mxCell id="KHGWq4t0KqPDSNJ2tSIA-72" value="AI - Plant Identifier" style="shape=module;align=left;spacingLeft=20;align=center;verticalAlign=top;whiteSpace=wrap;html=1;fillColor=#dae8fc;strokeColor=#6c8ebf;" vertex="1" parent="1">
          <mxGeometry x="512" y="620" width="100" height="50" as="geometry" />
        </mxCell>
        <mxCell id="KHGWq4t0KqPDSNJ2tSIA-73" value="File Manager" style="shape=module;align=left;spacingLeft=20;align=center;verticalAlign=top;whiteSpace=wrap;html=1;fillColor=#dae8fc;strokeColor=#6c8ebf;" vertex="1" parent="1">
          <mxGeometry x="663" y="620" width="100" height="50" as="geometry" />
        </mxCell>
        <mxCell id="KHGWq4t0KqPDSNJ2tSIA-74" value="" style="shape=image;verticalLabelPosition=bottom;labelBackgroundColor=default;verticalAlign=top;aspect=fixed;imageAspect=0;image=data:image/png,iVBORw0KGgoAAAANSUhEUgAAAV8AAAEACAYAAAAUbXWjAAAAAXNSR0IArs4c6QAAAARnQU1BAACxjwv8YQUAAAAJcEhZcwAADsMAAA7DAcdvqGQAACFPSURBVHhe7d0JdBXVGQfwCwJhJ1QgbCIByio7JQSIQSGhyA4VFJFCUSvQorJDPR7PwUgLQisoS9GiyO4CiBzKvoRNIUWBEkAoW9hL2WI0KLzyTT8oy832Mm/uMv/fOd9x7oQjd2bu+2eYN3MnT+AmAQAAnsrL/wUAAA/hzBc8d+nSJXHw4EHxn//8R3z33Xf3VWpqqnS9rEiRIkWyVUWLFpWu/9nPfiaqV68uwsPDnf8fgBcQvhASP/74oxOwsjp37hz/Kb2UKVPGCWFZ5c+fn/8UgDsQvpArx44dcwL1wIEDdwXskSNH+E/YITIy8q4wrlGjhvPfhx9+mP8EQM4gfCHbjh8/LjZs2CDWr18vkpKSnJBNT0/nn/pTWFiYE8JNmjQRrVu3Fo899pgoX748/xQgYwhfyNCpU6duh+3GjRvFt99+yz+BzNSuXdsJ4scff1xER0eLiIgI/gnA/yF84Ta6FktBm5iYKLZs2SK+/vpr/gnkRtOmTZ0wpiBu3ry5ePDBB/kn4GcIXx+juw1uBS3V1q1b+ScQSnRGTCFMRYGMuyz8CeHrM3Q2u3Tp0tuBm5aWxj8BFehWtxYtWjhB3LlzZ9GgQQP+CdgO4esDp0+fdgJ3yZIlYuXKlbwWdNS2bVvRpUsXJ4jLlSvHa8FGCF9L3bhx43bg0n8vX77MPwETlChRwgngW0GcNy8eRrUNwtcydN32VujSrWBgPrqV7VYI0+UJsAPC1wKHDx++Hbj0BRrYKyYm5nYQV61aldeCiRC+hqL5D+68rECP84J/0OPOd16WoHkrwCwIX8N8+eWXYs6cOU7opqSk8Frws4oVKzoh3Lt3bxEVFcVrQXcIX0OsXr1afPDBB2LevHm8BuB+vXr1En379hVxcXG8BnSF8NXcp59+6oTuF198wWsAstahQwcnhLt3785rQDcIX01R4M6aNUts2rSJ1wDk3KOPPir69evnBDHoBeGrkStXrtwOXcyrAG6iJ+duhXDx4sV5LaiE8NUAfXF2K3T/9a9/8VoA91WpUuV2CNMXdaAOwleh5ORkJ3ApeM+fP89rAUKvdOnSTgBTENeqVYvXgpcQvgrQk2eTJk1yQtfvk5GDWjQZPIXwkCFDnCfpwDsIX49NnDhR/OlPf8KZLmiFzoRHjhwphg4dymsg1BC+HlmxYoUTuvRGCABdxcbGOiHcrl07XgOhgvANMXrBJIXutGnTeA2A/gYMGOCEMF4QGjoI3xB65513nODFY8BgIrobggL4d7/7Ha8BNyF8Q2DdunVO6K5atYrXAJgrPj7eCWF6/RG4B+HrojNnzjih+5e//IXXANjj5ZdfdkK4bNmyvAZyA+HrkpkzZzrBS3PrAtiK5hCmAH7++ed5DQQL4ZtL9BJKCt1ly5bxGgD7dezY0QlhevknBAfhmwvjx493BiCAX9GJx4gRI7gFOYHwDcLx48ed0F2wYAGvAfCvp556ygnhSpUq8RrIDrwSNYfolT307S+CF+B/6LNAnwn6bED2IXxz4PXXX3de13LgwAFeAwCEPhP02aDPCGQPLjtkw/79+53rWvhSDSBr9GUcfR9Ss2ZNXgMyOPPNAr0zjd6HheAFyB76rNBnBu8bzBzOfDNw48YN50u1t956i9cAQE4NGzbM+TIub16c590Le0QiKSnJ+QIBwQuQO/QZos8Sfabgbgjfe7z33nvOYFm7di2vAYDcoM8SfaboswX/h8sO7Pr162Lw4MFi6tSpvAYA3DZw4EDx9ttvi3z58vEa/0L43nT16lXx7LPP4j5FAA+0b9/eeYVWqVKleI0/+T58aSYyCt41a9bwGgAItejoaDF79mxRrVo1XuM/vr7mSzOQde/eHcEL4LFt27aJDh06iJ07d/Ia//Htme+ePXtEp06dxNGjR3kNAHiNXtxJ9wO3adOG1/iHL8N3+/btIiYmRvz000+8BgBUeeCBB8T8+fPFk08+yWv8wXeXHegVP3S9CcELoAe606hHjx7OCwn8xFdnvvTYI11qAH2UKFFC1KpVy6nIyEhRuHDhHBVJS0vLUR05ckQkJyc7dfnyZef/AXqgOSGGDx/OLbv5JnznzJnj3NUAapQvX96ZaOVW0FJRm9ardOrUKWfipFthTEVtWg9qjBkzRiQkJHDLXr4IX3q2fNSoUdyCUGvQoIFo1aqVqFev3u2gpTNck9AZ8a0w3r17t0hMTMQjsh6ihzHeffddbtnJ+vD9/e9/L9555x1uQShERUU519FjY2Od0A0PD+ef2OXKlSvOLVKbNm1ywpgKQqdXr15i7ty53LKP1eHbrVs3sXjxYm6BGwoVKuSEbdOmTZ3AtTlss3IrjOnuGfovhTFdUwb3PPHEE2L58uXcsou14du2bVuxatUqbkFu0OUD+kV2K3D9GrZZuTOM6VH1Xbt28U8gN375y1+KFStWcMseVoZvz549xaJFi7gFwShevLgTuFT0ZgLIOXpy8vPPP3fq2LFjvBaC0adPH/Hhhx9yyxIUvjZ54YUX6JcJKshq1apVYPLkyYGUlBTeo5Bb33//fWDhwoWBZ555JlCsWDHpfkdlXcOGDeM9agerwnfEiBHSg4bKvCpXrhwYMmRIYPPmzbwnIVROnjwZmDp1auDmP6WlxwKVeU2YMIH3pPmsCd8333xTerBQGVe3bt0Cc+bMCaSlpfFeBC/t3r078MYbbwQaN24sPT4oeX3wwQe8B81mRfjSmYTsIKHur+LFiwcGDx4c2LVrF+890MGMGTMQwjmo+fPn854zl/HhO2/ePOnBQd1dFStWDLz66quBw4cP854DHSGEs1+fffYZ7zUzGR2+K1askB4U1P+rVq1agfHjxwfOnTvHew1MgBDOXi1fvpz3mHmMDd9t27YFwsPDpQcEJQJRUVGB6dOnB3744QfeY2AihHDWtXbtWt5bZjEyfJOTkwNVqlSRHgi/V1xcXGDu3Lm8p8AWCOGMq0CBAkbeqWNc+J4+fTrQpEkT6UHwc0VHRweWLFnCewlsNWXKlEClSpWkY8DPRd9p7Nixg/eSGYwKX7pZPT4+Xrrz/Vp090JCQkLg+vXrvJfAdidOnHDuWJGNBz9X9erVndv3TGFU+Pbu3Vu60/1a9MSUSYMN3EXXOtu1aycdG36t5s2bB65evcp7SG/GzO3wxz/+UYwePZpb/kbz5Y4cOVI89dRTvMYeJ0+eFCkpKc5k5mfPnhXnz58XFy9edObXTU1NdWYNS09Pd14DRUM3T548Il++fCIsLMx5s0XRokWduYNLlizpvJwxIiLCmbD95j9LRYUKFfhvscuMGTPEhAkTnLdxgxC//e1vxfTp07mlLyPClyYm6dy5M7f8K3/+/E7oUlHImIqC85tvvnHeIL1v3z7nzRGHDh1ywuPatWv8p9xXoEABUbVqVVGtWjXnLRq1a9cWdevWFfXr13cC3GT0i4oCeOLEibzG32gO70GDBnFLUxS+Orv5oQzc/MDc9U8LP1bXrl0D27dv571ilm+//dZ5JHTAgAHOl6U3z1al26iqqD/UL+of9ZP6a6pNmzYFOnbsKN1OP1WhQoWcfaEz7cO3U6dO0p3rlypbtmzg/fff571hhjNnzgQ++uijQL9+/QKRkZHS7dK9aLIh6j9tB22PaWjM0NiRbZtfqmnTpoGLFy/yHtGP1uE7atQo6U71S9HMV6Z8obZ3797AuHHjAi1btpRui+lF20XbR9tpCho7fp897bnnnuO9oR9tw5fOOGQ70y81cuRI3hP6on+e021ujRo1km6DrUXbS9ttyuUJGkuy7fBLvf3227wn9KJl+CYlJQVKly4t3ZG210MPPaT1jE10P/GsWbMCbdq0kfbfb0X7gfaH7vdZ05iisSXbBtsrf/78gXXr1vGe0Id24UtzEdDbFGQ70fbq0KFDYN++fbwn9EL/3H7llVcwn0YGRfuF9o/OlyVobNEYk/Xf9qJHs//973/zntCDduE7cOBA6c6zvWi6Rx2tXLky0KVLF2mfUfKi/UX7TVc01mT9tr369u3Le0APWoXvu+++K91pNhfdDfDJJ5/wHtDHxx9/HIiJiZH2GZW9ov1H+1FHNOZMvRMlNzVx4kTeA+ppE77r168PhIWFSXeYrUX37ur2pQ2FRbNmzaT9RQVXtD91DGEaezQGZX22tfLmzRtYvXo17wG1tAhfmujbb9+YDxo0iLdeD/TPZL9ea/eqaP/qeDnCb2/8rl+/vhb3bmsRvnQzu2wn2Vpjx47lLVePviDq0aOHtJ+o0BTtb92+mBszZoy0r7YWZY5qysN30aJF0p1ja82cOZO3XC26NWr06NHSPqK8Kdr/Ot2iRtdDZf20tSh7VFIavjT1W8OGDaU7xsZatmwZb7laNOgwX4YeRcdBdQjcaeHChc51UVlfbSvKHpXTTyoNXz+deekwyz5d58KcyHoWHRdd5pCg+4H98pATZZAqysKXZhyS7QzbqlixYs6bB1Sjx7VLlSol7SNKj6LjQ8dJF/Tma1k/bStVs58pC18/zMBPL/n88ccfeYvVoFcv9e/fX9o/lJ5Fx4uOmw7atm0r7aNNRVmkgpLwnTx5snQn2FR0b6dqGzZs8M3Zi21Fx42Onw6GDRsm7aNNRZnkNc/Dl27stn2e0bp16/LWquO3b65tLV2eyHrppZek/bOlKJO8fuDJ8/C1/Z7e8uXL85aq47f7pm0vHe5JJb169ZL2z5byej97Gr6239NbsmRJ3lI16Dd3dHS0tG8os4uOqw6Pots+laiXt/15Fr6239NL81IcO3aMt9Z7a9asCUREREj7hrKj6PjScVaNHs+V9c+G8vLeX8/C1/Z7ehMTE3lLvTd79mxpn1B2Fh1vlWhe3HLlykn7ZkN5de+vJ+Fr+z29c+fO5S31Hr5Y82ep/iKO5qbIly+ftG82lBf3/noSvjbf0zt9+nTeSu+99tpr0j6h/FF0/FWiSyCyftlQXtz7G/Lw/etf/yrdOBtq0qRJvJXeGz58uLRPKH8VjQOV5syZI+2XDUXZFUohD9+oqCjphpleb7zxBm+h9+hdYbI+ofxZNB5Ueuutt6T9Mr0ou0IppOH74YcfSjfK9KL3zKkyZMgQaZ9Q/i4aFyq9+OKL0n6ZXpRhoRLS8H300UelG2Ry0dsI6A3LKvhpFjhUzkvlDF1Xrlyx8vVTlGGhErLwXbBggXRjTC6aZi8pKYm30FsJCQnSPqFQdxaNE1XoDoGCBQtK+2VyUZaFQsjC18YnYVRN9zdt2jRpf1AoWdF4UWXKlCnSPplclGWhEJLwXbx4sXQjTK5Ro0bx1nnrs88+k/YHhcqsaNyoYuMUppRpbgtJ+LZv3166AaZWp06deMu8RW+/sPGfcajQF40bVW9PuXDhQqBx48bSfplalGlucz18ly9fLu28qUXv2Dp06BBvnXfoEc4aNWpI+4RCZado/NA4UmHt2rXWPQFH2eYm18O3W7du0o6bWkuXLuUt81aHDh2k/UGhclI0jlShh5BkfTK1KNvc5Gr42va44bhx43jLvDVixAhpf1CoYIrGkyp9+vSR9snUcnNWOVfD9+mnn5Z22MSit8mqMG/ePGl/UKjcFI0rFeiNzPXq1ZP2ycSijHOLa+FLUyrKOmti0f28Bw4c4C3zDk2WTW87lvUJhcpN0bhSNRn7xx9/LO2TqeXW9LGuhW/fvn2lHTWxVE3XFxcXJ+0PCuVG0fhS5bnnnpP2ycSirHODK+H71VdfSTtpYtHjwyqMHTtW2h8Uys2icabCkSNHApUqVZL2ycSizMstV8J30KBB0g6aWH//+995q7yzZcsWaV9QqFAUjTcVaO5rWX9MLMq83Mp1+NKEGhUqVJB20LRyY4cGw8YJSVD6Fo03Vbp27Srtk2lFmUfZlxu5Dl9bpo18+OGHA8ePH+et8g4uN6BUlKrLDzt37gwUKVJE2ifTKrfTTeY6fG35TTZ16lTeIu/s2bNH2hcUyoui8aeCLTP0UfblRq7CNzk5Wdop0+qJJ57gLfJWx44dpf1BobwoGn+qxMbGSvtkWlEGBivvzf9B0BYvXsxLZhs5ciQveWf+/Pli2bJl3ALwHo0/GocqjBkzhpfMlqsM5BAOStOmTaW/DUwqVS8grF69urQ/KJSXReNQlaFDh0r7ZFJRBgYr6PC1YR6HMmXKBFJSUniLvENzRsj6g0KpKFVzmNBnjz6Dsj6ZVMHO9xD0ZQcbLjn85je/ERUqVOCWNy5cuCASEhK4BaAejUcal16jzx59Bk0XdBZyCOeIDff2qnrWnS5zyPqDQqksVZffbJjPJNh7foMKXxvu7X3ppZd4a7xz4sQJaV9QKB2KxqcK9FmU9cekCuae36AuOyxZsoSXzJQvXz4l/9yZNGkSLwHoR9X4pM8ifSZNFlQmcghnmw339r7wwgu8Nd45ffp0IE+ePNL+oFA6FI1PGqcq0GdS1ieTKqf3/Ob4zNeWL9q8NmXKFPpFxy0A/dD4pHGqgi+/eHMiOAdMv7dXxRsq0tPTA+Hh4dL+oFA6FY1TGq8q0GdT1idTKqf3/ObozHft2rXiq6++4paZ+vfvz0vemTFjhrh06RK3APRF45TGqwoqPptuomykjMyuHIXv8uXLeclM3bt3F61ateKWd2bOnMlLAPpTNV7ps0mfUZPlJCNzFL7btm3jJTOpuK60YsUKsWfPHm4B6I/GK41bFUy/9rtlyxZeyga+/JClY8eOSa9zmFItW7bkLfFWz549pf1BoXQuGreqxMTESPtkSh0+fJi3JHPZPvPdunUrL5mpa9euvOSds2fPioULF3ILwBw0bmn8qtCtWzdeMtPmzZt5KXPZDl+TLzmEhYWJLl26cMs7qqbrA3CDqvFL4VukSBFumSe7lx6yHb6JiYm8ZB4K3ipVqnDLOzjrBZOpGr+VKlUy+uw329d9+fJDpugaBv1RU2vBggW8Jd7Zu3evtC8olElF41iFxYsXS/tjSh04cIC3JGPZOvM1+ZIDnfGquORgw5OAAKrGMX1m69Spwy3zrF+/npcylq3wze4FZB3RQaRrvl5bunQpLwGYS+U4NvnSQ7Yyk8+AM/Xzn/9cemptQiUmJvJWeIfmKJX1BYUysVTMe0127dol7Y8JFRkZyVuRsSzPfG/ueKdM1LJlS6e8puoGdYBQUDWeGzRoINq3b88tsxw5ckTs27ePW3JZhm+OntjQjIp7e8nKlSt5CcB8KsezyZcesrrum2X45mSiCJ2ourf3xo0bYs2aNdwCMB+NZxrXKlD4litXjltm2bBhAy/JZRm+69at4yWzqLq3l37bpaencwvAfDSes/PtfSiEh4cbe/ab1bMRmYZvcnKyOHXqFLfM0rZtW17y1saNG3kJwB4qx/Vjjz3GS2ahx7N3797NrftlGr6mXnIgjz76KC95y+Tb8gAyonJct2jRQuTPn59bZsns0oOV4du8eXNRtWpVbnnL9Gk3AWRUjuuyZcs6n2kTZXa5JtPw/frrr3nJLKrOenfs2CF++OEHbgHYg8b1zp07ueU9Ovs1UWYZmmH4pqWliaNHj3LLLKrCNykpiZcA7KMyfGNiYnjJLJShlKUyGYYvfdlmIrrFTFX47tq1i5cA7KNyfMfFxYnixYtzyywZZWmG4ZvV0xm6at26tbK5QDP7ZhPAdCrH9wMPPGDsdd+MstS68G3Tpg0veW/v3r28BGAf1eM7NjaWl8zim/BV8XZiQtd2UlNTuQVgHxrfKr8Hio+P5yWz+CJ8y5QpIxo2bMgtbx08eJCXAOylcpw3atRIREREcMscOQrfa9euiUOHDnHLHCovORw+fJiXAOylepyb+LQbZSll6r2k4WvqJQf6sk0VmkIOwHaqxznd9WAiWaZKw9fU28yioqJ4yXvHjx/nJQB7qR7nKj/juSHLVKvOfGvWrMlL3jt58iQvAdhL9ThX+RnPjWyf+ZoYvtWrV3fuBVTl9OnTvARgL9XjnD7j9Fk3jdXhW6tWLV5S49y5c7wEYC8dxrnqz3owshW+NGP9/v37uWUOlQeEJpu+evUqtwDsReNc9csCTAxfytR73wZyX/iaeNZLVB6QS5cu8RKA/VSPdxPDl9ybrdaEr8oL8TjrBT9RPd5t+dLtvvA19TYzlb8Nv/vuO14CsJ/q8W7qme+92Xpf+F6+fJmXzFGxYkVRrFgxbnkPE6iDn6ge7/RZp8+8ae69XHNf+F65coWXzKH6N6Hs0UEAW+kw3k08+733xNaKM1/VB+LebzEBbKbDeLcyfE088zX1AjwABMfEzzzOfEMgb977diOAtXQY7yae+WZ5zffixYu8ZI4SJUrwkhoFChTgJQD76TDew8PDeckcWZ75mvjAgOoX6xUsWJCXAOynw3hXfcIVDCvDV/WBUPXCTgAVdBjvJr7JONPwpW8xTbxtSvWBUHmPMYDXdBjvJn7mKFvvvFPkrvA18U4HOgiqr0GZeP0JIFg6jHf6zJt+9ntX+Jp4p4MO137CwsJw9gu+QOOcxrsOTP/SzfgzX10uvNObkwFsp9M4NzF87/xODeHrknLlyvESgL10Guem3/FwV/jiNrPgVahQgZcA7KXTOEf4KqbLAahUqRIvAdhLp3Fu1RduCN/gRUZG8hKAvXQa56aHb57ATbwsEhISxKpVq8T169elRfeoydbfqsx+fsdf46phw4aJCRMmcEsd2m9t27blFoCdVq5cKeLj47ml1ogRI0L22c+TJ4/zpuRgiua+kC1TxcXFiVdfffV/f8ed4RtK9NfcG8iysA5mXWxsLP8t6hw9ehRnv2C9I0eOiMqVK3NLrY0bN94VbHfWvaGX0zaFb6h5Fr5+QPdApqamcgvALkWLFsX7Cl101zVfyJ1HHnmElwDsg/HtLoSvi+rVq8dLAPbB+HYXwtdFDRs25CUA+2B8uwvh66ImTZrwEoB9GjduzEvgBnzh5rJChQrhVfJgHZpA/fvvv+cWuAFnvi6Ljo7mJQB7YFy7D+HrspYtW/ISgD0wrt2H8HWZDg98ALgN49p9uObrMnryrnDhwiI9PZ3XAJiNJk9PS0tzngID92BvuowGaJs2bbgFYD4azwhe92GPhgAm2AGbYDyHBsI3BNq1a8dLAObDeA4NhG8IVKtWDQ9cgBVoHNN4BvchfEOkc+fOvARgLozj0EH4hkjXrl15CcBcGMehg/ANkTp16ohmzZpxC8A8NH5pHENoIHxDqGfPnrwEYB6M39DCQxYhdPbsWVG2bFluAZjlzJkzIiIiglvgNpz5hhANXJw9gIlo3CJ4QwvhG2K//vWveQnAHBi3oYfLDh6g16/s2bOHWwB6q1u3rti9eze3IFRw5uuB559/npcA9Ifx6g2c+Xrg2rVrzvWzS5cu8RoAPYWHhztfFBcoUIDXQKjgzNcDNJAHDhzILQB90ThF8HoDZ74eodt2ypcvL7C7QVd58uQRp06dwu2RHsGZr0doQL/88svcAtAPjU8Er3dw5uuhlJQU8dBDD3ELQC8nTpwQFStW5BaEGs58PUQDe/jw4dwC0AeNSwSvt3Dm67ELFy6IypUri9TUVF4DoFbRokXF0aNHxYMPPshrwAs48/UYDfA//OEP3AJQj8Yjgtd7OPNVpEaNGuLgwYPcAlCjevXq4sCBA9wCL+HMV5HXX3+dlwDUwThUB2e+CnXq1EksW7aMWwDe6tixo/j888+5BV5D+Cq0d+9eZxITABVosqdHHnmEW+A1XHZQiAb+2LFjuQXgHRp3CF61cOargejoaLF9+3ZuAYQWvZtt27Zt3AJVcOargYkTJ/ISQOhhvOkB4auB5s2b4/IDeILGGY03UA+XHTQSHx8vVq9ezS0Ad8XFxYlVq1ZxC1RD+Grk0KFDolGjRuLq1au8BsAdxYoVE//4xz9EtWrVeA2ohssOGqEPxowZM7gF4B4aVwhevSB8NfP000+LESNGcAsg92g80bgCveCyg6bo6aMvvviCWwDB6dChA56i1BTCV1M09WSLFi0w6QkEjSZv2rJlC2Ys0xQuO2iKPjBz5swRBQsW5DUA2UfjhsYPgldfCF+NNWnSRMybN49bANlH44bGD+gL4au5rl27imnTpnELIGs0XmjcgN4QvgZ48cUXRUJCArcAMkbjhMYL6A/ha4gxY8aI0aNHcwvgfjQ+aJyAGXC3g2GGDh0qJk2axC2A/xkyZAgmzDEMwtdA9EH785//zC3wu1deeQW/kA2Eyw4Gog/a8OHDuQV+RuMAwWsmhK+hxo8fL1577TVugR/R8adxAGbCZQfD0VkPXQcGf6Hru3T5CcyF8LXARx99JPr06cMtsN3s2bPFs88+yy0wFcLXEmvXrhXPPPOMOHv2LK8B20RERIi5c+eK1q1b8xowGa75WoI+kJs3b3Zexgn2oeNKxxfBaw+Er0VosuytW7eKfv368RqwAR1POq6YDN0uCF8L/e1vf8MN95ag40jHE+yDa74W27hxoxgwYIBITk7mNWCKWrVqORPkxMbG8hqwDc58LUYfXHppYv/+/XkNmICOFx03BK/dEL6Wo0m133vvPed2tFKlSvFa0BEdHzpOdLwwib79EL4+0bt3b7F3717nv6AfHB//Qfj6CN0nSmdWixYtElWrVuW1oBIdBzoedFzo+IB/IHx96MknnxQHDx7E/MCK0f6n40DHA/wH4etTefPmFW+++abzT90ePXrwWvAC7W/a77T/6TiAP+FWM3CsWrVKjBs3TmzYsIHXgNtatWrlnO3Gx8fzGvAzhC/c5ZNPPnFu7N++fTuvgdxq1qyZM/Pcr371K14DgPCFDFAIT548WSQmJvIayKmYmBgxePBghC5IIXwhU3Q5gp60WrJkCa+BrHTp0sV5shCXFyAzCF/Iln/+85/i/fffF7NmzRKXLl3itXBLeHi4MwEOPZ1Wp04dXguQMYQv5MiNGzecybxpXtk1a9bwWv9q06aNM48yTWaPOxcgJxC+ELRDhw45Dwh8+umnzlwEftGoUSPRvXt355YxTPMIwUL4givossSyZcvE8uXLnUm/bdOyZUvRvn170bFjR1xWAFcgfMF19Cqj1atXi3Xr1on169eLo0eP8k/MERkZ6dyX+/jjj4u4uDg8+guuQ/hCyNHliS1btogvv/xS7NixQyQlJQmdhl2ePHlE48aNxS9+8QsRFRUlWrRogcsJEHIIX/DcTz/9JL755huxZ88esW/fPrF//34noA8fPiyuXbvGf8p9BQoUcCayoWCtWbOmqF27tqhbt66oX7++yJcvH/8pAG8gfEErJ0+eFCkpKeLUqVPO5Yvz58+LixcvisuXL4vU1FSRlpYm0tPTnQCnoUtnrRScYWFhonDhwqJo0aKiRIkSomTJkqJ06dLO5YLy5cuLihUrigoVKvDfAqAewhcAQAHcmAgAoADCFwDAc0L8F/rxMJbU5j6wAAAAAElFTkSuQmCC;" vertex="1" parent="1">
          <mxGeometry x="258" y="585" width="24" height="17.5" as="geometry" />
        </mxCell>
        <mxCell id="KHGWq4t0KqPDSNJ2tSIA-86" style="edgeStyle=orthogonalEdgeStyle;rounded=0;orthogonalLoop=1;jettySize=auto;html=1;entryX=0.5;entryY=0;entryDx=0;entryDy=0;endArrow=none;endFill=0;" edge="1" parent="1" source="KHGWq4t0KqPDSNJ2tSIA-75" target="KHGWq4t0KqPDSNJ2tSIA-71">
          <mxGeometry relative="1" as="geometry" />
        </mxCell>
        <mxCell id="KHGWq4t0KqPDSNJ2tSIA-75" value="" style="shape=image;verticalLabelPosition=bottom;labelBackgroundColor=default;verticalAlign=top;aspect=fixed;imageAspect=0;image=data:image/png,iVBORw0KGgoAAAANSUhEUgAAAV8AAAEACAYAAAAUbXWjAAAAAXNSR0IArs4c6QAAAARnQU1BAACxjwv8YQUAAAAJcEhZcwAADsMAAA7DAcdvqGQAACFPSURBVHhe7d0JdBXVGQfwCwJhJ1QgbCIByio7JQSIQSGhyA4VFJFCUSvQorJDPR7PwUgLQisoS9GiyO4CiBzKvoRNIUWBEkAoW9hL2WI0KLzyTT8oy832Mm/uMv/fOd9x7oQjd2bu+2eYN3MnT+AmAQAAnsrL/wUAAA/hzBc8d+nSJXHw4EHxn//8R3z33Xf3VWpqqnS9rEiRIkWyVUWLFpWu/9nPfiaqV68uwsPDnf8fgBcQvhASP/74oxOwsjp37hz/Kb2UKVPGCWFZ5c+fn/8UgDsQvpArx44dcwL1wIEDdwXskSNH+E/YITIy8q4wrlGjhvPfhx9+mP8EQM4gfCHbjh8/LjZs2CDWr18vkpKSnJBNT0/nn/pTWFiYE8JNmjQRrVu3Fo899pgoX748/xQgYwhfyNCpU6duh+3GjRvFt99+yz+BzNSuXdsJ4scff1xER0eLiIgI/gnA/yF84Ta6FktBm5iYKLZs2SK+/vpr/gnkRtOmTZ0wpiBu3ry5ePDBB/kn4GcIXx+juw1uBS3V1q1b+ScQSnRGTCFMRYGMuyz8CeHrM3Q2u3Tp0tuBm5aWxj8BFehWtxYtWjhB3LlzZ9GgQQP+CdgO4esDp0+fdgJ3yZIlYuXKlbwWdNS2bVvRpUsXJ4jLlSvHa8FGCF9L3bhx43bg0n8vX77MPwETlChRwgngW0GcNy8eRrUNwtcydN32VujSrWBgPrqV7VYI0+UJsAPC1wKHDx++Hbj0BRrYKyYm5nYQV61aldeCiRC+hqL5D+68rECP84J/0OPOd16WoHkrwCwIX8N8+eWXYs6cOU7opqSk8Frws4oVKzoh3Lt3bxEVFcVrQXcIX0OsXr1afPDBB2LevHm8BuB+vXr1En379hVxcXG8BnSF8NXcp59+6oTuF198wWsAstahQwcnhLt3785rQDcIX01R4M6aNUts2rSJ1wDk3KOPPir69evnBDHoBeGrkStXrtwOXcyrAG6iJ+duhXDx4sV5LaiE8NUAfXF2K3T/9a9/8VoA91WpUuV2CNMXdaAOwleh5ORkJ3ApeM+fP89rAUKvdOnSTgBTENeqVYvXgpcQvgrQk2eTJk1yQtfvk5GDWjQZPIXwkCFDnCfpwDsIX49NnDhR/OlPf8KZLmiFzoRHjhwphg4dymsg1BC+HlmxYoUTuvRGCABdxcbGOiHcrl07XgOhgvANMXrBJIXutGnTeA2A/gYMGOCEMF4QGjoI3xB65513nODFY8BgIrobggL4d7/7Ha8BNyF8Q2DdunVO6K5atYrXAJgrPj7eCWF6/RG4B+HrojNnzjih+5e//IXXANjj5ZdfdkK4bNmyvAZyA+HrkpkzZzrBS3PrAtiK5hCmAH7++ed5DQQL4ZtL9BJKCt1ly5bxGgD7dezY0QlhevknBAfhmwvjx493BiCAX9GJx4gRI7gFOYHwDcLx48ed0F2wYAGvAfCvp556ygnhSpUq8RrIDrwSNYfolT307S+CF+B/6LNAnwn6bED2IXxz4PXXX3de13LgwAFeAwCEPhP02aDPCGQPLjtkw/79+53rWvhSDSBr9GUcfR9Ss2ZNXgMyOPPNAr0zjd6HheAFyB76rNBnBu8bzBzOfDNw48YN50u1t956i9cAQE4NGzbM+TIub16c590Le0QiKSnJ+QIBwQuQO/QZos8Sfabgbgjfe7z33nvOYFm7di2vAYDcoM8SfaboswX/h8sO7Pr162Lw4MFi6tSpvAYA3DZw4EDx9ttvi3z58vEa/0L43nT16lXx7LPP4j5FAA+0b9/eeYVWqVKleI0/+T58aSYyCt41a9bwGgAItejoaDF79mxRrVo1XuM/vr7mSzOQde/eHcEL4LFt27aJDh06iJ07d/Ia//Htme+ePXtEp06dxNGjR3kNAHiNXtxJ9wO3adOG1/iHL8N3+/btIiYmRvz000+8BgBUeeCBB8T8+fPFk08+yWv8wXeXHegVP3S9CcELoAe606hHjx7OCwn8xFdnvvTYI11qAH2UKFFC1KpVy6nIyEhRuHDhHBVJS0vLUR05ckQkJyc7dfnyZef/AXqgOSGGDx/OLbv5JnznzJnj3NUAapQvX96ZaOVW0FJRm9ardOrUKWfipFthTEVtWg9qjBkzRiQkJHDLXr4IX3q2fNSoUdyCUGvQoIFo1aqVqFev3u2gpTNck9AZ8a0w3r17t0hMTMQjsh6ihzHeffddbtnJ+vD9/e9/L9555x1uQShERUU519FjY2Od0A0PD+ef2OXKlSvOLVKbNm1ywpgKQqdXr15i7ty53LKP1eHbrVs3sXjxYm6BGwoVKuSEbdOmTZ3AtTlss3IrjOnuGfovhTFdUwb3PPHEE2L58uXcsou14du2bVuxatUqbkFu0OUD+kV2K3D9GrZZuTOM6VH1Xbt28U8gN375y1+KFStWcMseVoZvz549xaJFi7gFwShevLgTuFT0ZgLIOXpy8vPPP3fq2LFjvBaC0adPH/Hhhx9yyxIUvjZ54YUX6JcJKshq1apVYPLkyYGUlBTeo5Bb33//fWDhwoWBZ555JlCsWDHpfkdlXcOGDeM9agerwnfEiBHSg4bKvCpXrhwYMmRIYPPmzbwnIVROnjwZmDp1auDmP6WlxwKVeU2YMIH3pPmsCd8333xTerBQGVe3bt0Cc+bMCaSlpfFeBC/t3r078MYbbwQaN24sPT4oeX3wwQe8B81mRfjSmYTsIKHur+LFiwcGDx4c2LVrF+890MGMGTMQwjmo+fPn854zl/HhO2/ePOnBQd1dFStWDLz66quBw4cP854DHSGEs1+fffYZ7zUzGR2+K1askB4U1P+rVq1agfHjxwfOnTvHew1MgBDOXi1fvpz3mHmMDd9t27YFwsPDpQcEJQJRUVGB6dOnB3744QfeY2AihHDWtXbtWt5bZjEyfJOTkwNVqlSRHgi/V1xcXGDu3Lm8p8AWCOGMq0CBAkbeqWNc+J4+fTrQpEkT6UHwc0VHRweWLFnCewlsNWXKlEClSpWkY8DPRd9p7Nixg/eSGYwKX7pZPT4+Xrrz/Vp090JCQkLg+vXrvJfAdidOnHDuWJGNBz9X9erVndv3TGFU+Pbu3Vu60/1a9MSUSYMN3EXXOtu1aycdG36t5s2bB65evcp7SG/GzO3wxz/+UYwePZpb/kbz5Y4cOVI89dRTvMYeJ0+eFCkpKc5k5mfPnhXnz58XFy9edObXTU1NdWYNS09Pd14DRUM3T548Il++fCIsLMx5s0XRokWduYNLlizpvJwxIiLCmbD95j9LRYUKFfhvscuMGTPEhAkTnLdxgxC//e1vxfTp07mlLyPClyYm6dy5M7f8K3/+/E7oUlHImIqC85tvvnHeIL1v3z7nzRGHDh1ywuPatWv8p9xXoEABUbVqVVGtWjXnLRq1a9cWdevWFfXr13cC3GT0i4oCeOLEibzG32gO70GDBnFLUxS+Orv5oQzc/MDc9U8LP1bXrl0D27dv571ilm+//dZ5JHTAgAHOl6U3z1al26iqqD/UL+of9ZP6a6pNmzYFOnbsKN1OP1WhQoWcfaEz7cO3U6dO0p3rlypbtmzg/fff571hhjNnzgQ++uijQL9+/QKRkZHS7dK9aLIh6j9tB22PaWjM0NiRbZtfqmnTpoGLFy/yHtGP1uE7atQo6U71S9HMV6Z8obZ3797AuHHjAi1btpRui+lF20XbR9tpCho7fp897bnnnuO9oR9tw5fOOGQ70y81cuRI3hP6on+e021ujRo1km6DrUXbS9ttyuUJGkuy7fBLvf3227wn9KJl+CYlJQVKly4t3ZG210MPPaT1jE10P/GsWbMCbdq0kfbfb0X7gfaH7vdZ05iisSXbBtsrf/78gXXr1vGe0Id24UtzEdDbFGQ70fbq0KFDYN++fbwn9EL/3H7llVcwn0YGRfuF9o/OlyVobNEYk/Xf9qJHs//973/zntCDduE7cOBA6c6zvWi6Rx2tXLky0KVLF2mfUfKi/UX7TVc01mT9tr369u3Le0APWoXvu+++K91pNhfdDfDJJ5/wHtDHxx9/HIiJiZH2GZW9ov1H+1FHNOZMvRMlNzVx4kTeA+ppE77r168PhIWFSXeYrUX37ur2pQ2FRbNmzaT9RQVXtD91DGEaezQGZX22tfLmzRtYvXo17wG1tAhfmujbb9+YDxo0iLdeD/TPZL9ea/eqaP/qeDnCb2/8rl+/vhb3bmsRvnQzu2wn2Vpjx47lLVePviDq0aOHtJ+o0BTtb92+mBszZoy0r7YWZY5qysN30aJF0p1ja82cOZO3XC26NWr06NHSPqK8Kdr/Ot2iRtdDZf20tSh7VFIavjT1W8OGDaU7xsZatmwZb7laNOgwX4YeRcdBdQjcaeHChc51UVlfbSvKHpXTTyoNXz+deekwyz5d58KcyHoWHRdd5pCg+4H98pATZZAqysKXZhyS7QzbqlixYs6bB1Sjx7VLlSol7SNKj6LjQ8dJF/Tma1k/bStVs58pC18/zMBPL/n88ccfeYvVoFcv9e/fX9o/lJ5Fx4uOmw7atm0r7aNNRVmkgpLwnTx5snQn2FR0b6dqGzZs8M3Zi21Fx42Onw6GDRsm7aNNRZnkNc/Dl27stn2e0bp16/LWquO3b65tLV2eyHrppZek/bOlKJO8fuDJ8/C1/Z7e8uXL85aq47f7pm0vHe5JJb169ZL2z5byej97Gr6239NbsmRJ3lI16Dd3dHS0tG8os4uOqw6Pots+laiXt/15Fr6239NL81IcO3aMt9Z7a9asCUREREj7hrKj6PjScVaNHs+V9c+G8vLeX8/C1/Z7ehMTE3lLvTd79mxpn1B2Fh1vlWhe3HLlykn7ZkN5de+vJ+Fr+z29c+fO5S31Hr5Y82ep/iKO5qbIly+ftG82lBf3/noSvjbf0zt9+nTeSu+99tpr0j6h/FF0/FWiSyCyftlQXtz7G/Lw/etf/yrdOBtq0qRJvJXeGz58uLRPKH8VjQOV5syZI+2XDUXZFUohD9+oqCjphpleb7zxBm+h9+hdYbI+ofxZNB5Ueuutt6T9Mr0ou0IppOH74YcfSjfK9KL3zKkyZMgQaZ9Q/i4aFyq9+OKL0n6ZXpRhoRLS8H300UelG2Ry0dsI6A3LKvhpFjhUzkvlDF1Xrlyx8vVTlGGhErLwXbBggXRjTC6aZi8pKYm30FsJCQnSPqFQdxaNE1XoDoGCBQtK+2VyUZaFQsjC18YnYVRN9zdt2jRpf1AoWdF4UWXKlCnSPplclGWhEJLwXbx4sXQjTK5Ro0bx1nnrs88+k/YHhcqsaNyoYuMUppRpbgtJ+LZv3166AaZWp06deMu8RW+/sPGfcajQF40bVW9PuXDhQqBx48bSfplalGlucz18ly9fLu28qUXv2Dp06BBvnXfoEc4aNWpI+4RCZado/NA4UmHt2rXWPQFH2eYm18O3W7du0o6bWkuXLuUt81aHDh2k/UGhclI0jlShh5BkfTK1KNvc5Gr42va44bhx43jLvDVixAhpf1CoYIrGkyp9+vSR9snUcnNWOVfD9+mnn5Z22MSit8mqMG/ePGl/UKjcFI0rFeiNzPXq1ZP2ycSijHOLa+FLUyrKOmti0f28Bw4c4C3zDk2WTW87lvUJhcpN0bhSNRn7xx9/LO2TqeXW9LGuhW/fvn2lHTWxVE3XFxcXJ+0PCuVG0fhS5bnnnpP2ycSirHODK+H71VdfSTtpYtHjwyqMHTtW2h8Uys2icabCkSNHApUqVZL2ycSizMstV8J30KBB0g6aWH//+995q7yzZcsWaV9QqFAUjTcVaO5rWX9MLMq83Mp1+NKEGhUqVJB20LRyY4cGw8YJSVD6Fo03Vbp27Srtk2lFmUfZlxu5Dl9bpo18+OGHA8ePH+et8g4uN6BUlKrLDzt37gwUKVJE2ifTKrfTTeY6fG35TTZ16lTeIu/s2bNH2hcUyoui8aeCLTP0UfblRq7CNzk5Wdop0+qJJ57gLfJWx44dpf1BobwoGn+qxMbGSvtkWlEGBivvzf9B0BYvXsxLZhs5ciQveWf+/Pli2bJl3ALwHo0/GocqjBkzhpfMlqsM5BAOStOmTaW/DUwqVS8grF69urQ/KJSXReNQlaFDh0r7ZFJRBgYr6PC1YR6HMmXKBFJSUniLvENzRsj6g0KpKFVzmNBnjz6Dsj6ZVMHO9xD0ZQcbLjn85je/ERUqVOCWNy5cuCASEhK4BaAejUcal16jzx59Bk0XdBZyCOeIDff2qnrWnS5zyPqDQqksVZffbJjPJNh7foMKXxvu7X3ppZd4a7xz4sQJaV9QKB2KxqcK9FmU9cekCuae36AuOyxZsoSXzJQvXz4l/9yZNGkSLwHoR9X4pM8ifSZNFlQmcghnmw339r7wwgu8Nd45ffp0IE+ePNL+oFA6FI1PGqcq0GdS1ieTKqf3/Ob4zNeWL9q8NmXKFPpFxy0A/dD4pHGqgi+/eHMiOAdMv7dXxRsq0tPTA+Hh4dL+oFA6FY1TGq8q0GdT1idTKqf3/ObozHft2rXiq6++4paZ+vfvz0vemTFjhrh06RK3APRF45TGqwoqPptuomykjMyuHIXv8uXLeclM3bt3F61ateKWd2bOnMlLAPpTNV7ps0mfUZPlJCNzFL7btm3jJTOpuK60YsUKsWfPHm4B6I/GK41bFUy/9rtlyxZeyga+/JClY8eOSa9zmFItW7bkLfFWz549pf1BoXQuGreqxMTESPtkSh0+fJi3JHPZPvPdunUrL5mpa9euvOSds2fPioULF3ILwBw0bmn8qtCtWzdeMtPmzZt5KXPZDl+TLzmEhYWJLl26cMs7qqbrA3CDqvFL4VukSBFumSe7lx6yHb6JiYm8ZB4K3ipVqnDLOzjrBZOpGr+VKlUy+uw329d9+fJDpugaBv1RU2vBggW8Jd7Zu3evtC8olElF41iFxYsXS/tjSh04cIC3JGPZOvM1+ZIDnfGquORgw5OAAKrGMX1m69Spwy3zrF+/npcylq3wze4FZB3RQaRrvl5bunQpLwGYS+U4NvnSQ7Yyk8+AM/Xzn/9cemptQiUmJvJWeIfmKJX1BYUysVTMe0127dol7Y8JFRkZyVuRsSzPfG/ueKdM1LJlS6e8puoGdYBQUDWeGzRoINq3b88tsxw5ckTs27ePW3JZhm+OntjQjIp7e8nKlSt5CcB8KsezyZcesrrum2X45mSiCJ2ourf3xo0bYs2aNdwCMB+NZxrXKlD4litXjltm2bBhAy/JZRm+69at4yWzqLq3l37bpaencwvAfDSes/PtfSiEh4cbe/ab1bMRmYZvcnKyOHXqFLfM0rZtW17y1saNG3kJwB4qx/Vjjz3GS2ahx7N3797NrftlGr6mXnIgjz76KC95y+Tb8gAyonJct2jRQuTPn59bZsns0oOV4du8eXNRtWpVbnnL9Gk3AWRUjuuyZcs6n2kTZXa5JtPw/frrr3nJLKrOenfs2CF++OEHbgHYg8b1zp07ueU9Ovs1UWYZmmH4pqWliaNHj3LLLKrCNykpiZcA7KMyfGNiYnjJLJShlKUyGYYvfdlmIrrFTFX47tq1i5cA7KNyfMfFxYnixYtzyywZZWmG4ZvV0xm6at26tbK5QDP7ZhPAdCrH9wMPPGDsdd+MstS68G3Tpg0veW/v3r28BGAf1eM7NjaWl8zim/BV8XZiQtd2UlNTuQVgHxrfKr8Hio+P5yWz+CJ8y5QpIxo2bMgtbx08eJCXAOylcpw3atRIREREcMscOQrfa9euiUOHDnHLHCovORw+fJiXAOylepyb+LQbZSll6r2k4WvqJQf6sk0VmkIOwHaqxznd9WAiWaZKw9fU28yioqJ4yXvHjx/nJQB7qR7nKj/juSHLVKvOfGvWrMlL3jt58iQvAdhL9ThX+RnPjWyf+ZoYvtWrV3fuBVTl9OnTvARgL9XjnD7j9Fk3jdXhW6tWLV5S49y5c7wEYC8dxrnqz3owshW+NGP9/v37uWUOlQeEJpu+evUqtwDsReNc9csCTAxfytR73wZyX/iaeNZLVB6QS5cu8RKA/VSPdxPDl9ybrdaEr8oL8TjrBT9RPd5t+dLtvvA19TYzlb8Nv/vuO14CsJ/q8W7qme+92Xpf+F6+fJmXzFGxYkVRrFgxbnkPE6iDn6ge7/RZp8+8ae69XHNf+F65coWXzKH6N6Hs0UEAW+kw3k08+733xNaKM1/VB+LebzEBbKbDeLcyfE088zX1AjwABMfEzzzOfEMgb977diOAtXQY7yae+WZ5zffixYu8ZI4SJUrwkhoFChTgJQD76TDew8PDeckcWZ75mvjAgOoX6xUsWJCXAOynw3hXfcIVDCvDV/WBUPXCTgAVdBjvJr7JONPwpW8xTbxtSvWBUHmPMYDXdBjvJn7mKFvvvFPkrvA18U4HOgiqr0GZeP0JIFg6jHf6zJt+9ntX+Jp4p4MO137CwsJw9gu+QOOcxrsOTP/SzfgzX10uvNObkwFsp9M4NzF87/xODeHrknLlyvESgL10Guem3/FwV/jiNrPgVahQgZcA7KXTOEf4KqbLAahUqRIvAdhLp3Fu1RduCN/gRUZG8hKAvXQa56aHb57ATbwsEhISxKpVq8T169elRfeoydbfqsx+fsdf46phw4aJCRMmcEsd2m9t27blFoCdVq5cKeLj47ml1ogRI0L22c+TJ4/zpuRgiua+kC1TxcXFiVdfffV/f8ed4RtK9NfcG8iysA5mXWxsLP8t6hw9ehRnv2C9I0eOiMqVK3NLrY0bN94VbHfWvaGX0zaFb6h5Fr5+QPdApqamcgvALkWLFsX7Cl101zVfyJ1HHnmElwDsg/HtLoSvi+rVq8dLAPbB+HYXwtdFDRs25CUA+2B8uwvh66ImTZrwEoB9GjduzEvgBnzh5rJChQrhVfJgHZpA/fvvv+cWuAFnvi6Ljo7mJQB7YFy7D+HrspYtW/ISgD0wrt2H8HWZDg98ALgN49p9uObrMnryrnDhwiI9PZ3XAJiNJk9PS0tzngID92BvuowGaJs2bbgFYD4azwhe92GPhgAm2AGbYDyHBsI3BNq1a8dLAObDeA4NhG8IVKtWDQ9cgBVoHNN4BvchfEOkc+fOvARgLozj0EH4hkjXrl15CcBcGMehg/ANkTp16ohmzZpxC8A8NH5pHENoIHxDqGfPnrwEYB6M39DCQxYhdPbsWVG2bFluAZjlzJkzIiIiglvgNpz5hhANXJw9gIlo3CJ4QwvhG2K//vWveQnAHBi3oYfLDh6g16/s2bOHWwB6q1u3rti9eze3IFRw5uuB559/npcA9Ifx6g2c+Xrg2rVrzvWzS5cu8RoAPYWHhztfFBcoUIDXQKjgzNcDNJAHDhzILQB90ThF8HoDZ74eodt2ypcvL7C7QVd58uQRp06dwu2RHsGZr0doQL/88svcAtAPjU8Er3dw5uuhlJQU8dBDD3ELQC8nTpwQFStW5BaEGs58PUQDe/jw4dwC0AeNSwSvt3Dm67ELFy6IypUri9TUVF4DoFbRokXF0aNHxYMPPshrwAs48/UYDfA//OEP3AJQj8Yjgtd7OPNVpEaNGuLgwYPcAlCjevXq4sCBA9wCL+HMV5HXX3+dlwDUwThUB2e+CnXq1EksW7aMWwDe6tixo/j888+5BV5D+Cq0d+9eZxITABVosqdHHnmEW+A1XHZQiAb+2LFjuQXgHRp3CF61cOargejoaLF9+3ZuAYQWvZtt27Zt3AJVcOargYkTJ/ISQOhhvOkB4auB5s2b4/IDeILGGY03UA+XHTQSHx8vVq9ezS0Ad8XFxYlVq1ZxC1RD+Grk0KFDolGjRuLq1au8BsAdxYoVE//4xz9EtWrVeA2ohssOGqEPxowZM7gF4B4aVwhevSB8NfP000+LESNGcAsg92g80bgCveCyg6bo6aMvvviCWwDB6dChA56i1BTCV1M09WSLFi0w6QkEjSZv2rJlC2Ys0xQuO2iKPjBz5swRBQsW5DUA2UfjhsYPgldfCF+NNWnSRMybN49bANlH44bGD+gL4au5rl27imnTpnELIGs0XmjcgN4QvgZ48cUXRUJCArcAMkbjhMYL6A/ha4gxY8aI0aNHcwvgfjQ+aJyAGXC3g2GGDh0qJk2axC2A/xkyZAgmzDEMwtdA9EH785//zC3wu1deeQW/kA2Eyw4Gog/a8OHDuQV+RuMAwWsmhK+hxo8fL1577TVugR/R8adxAGbCZQfD0VkPXQcGf6Hru3T5CcyF8LXARx99JPr06cMtsN3s2bPFs88+yy0wFcLXEmvXrhXPPPOMOHv2LK8B20RERIi5c+eK1q1b8xowGa75WoI+kJs3b3Zexgn2oeNKxxfBaw+Er0VosuytW7eKfv368RqwAR1POq6YDN0uCF8L/e1vf8MN95ag40jHE+yDa74W27hxoxgwYIBITk7mNWCKWrVqORPkxMbG8hqwDc58LUYfXHppYv/+/XkNmICOFx03BK/dEL6Wo0m133vvPed2tFKlSvFa0BEdHzpOdLwwib79EL4+0bt3b7F3717nv6AfHB//Qfj6CN0nSmdWixYtElWrVuW1oBIdBzoedFzo+IB/IHx96MknnxQHDx7E/MCK0f6n40DHA/wH4etTefPmFW+++abzT90ePXrwWvAC7W/a77T/6TiAP+FWM3CsWrVKjBs3TmzYsIHXgNtatWrlnO3Gx8fzGvAzhC/c5ZNPPnFu7N++fTuvgdxq1qyZM/Pcr371K14DgPCFDFAIT548WSQmJvIayKmYmBgxePBghC5IIXwhU3Q5gp60WrJkCa+BrHTp0sV5shCXFyAzCF/Iln/+85/i/fffF7NmzRKXLl3itXBLeHi4MwEOPZ1Wp04dXguQMYQv5MiNGzecybxpXtk1a9bwWv9q06aNM48yTWaPOxcgJxC+ELRDhw45Dwh8+umnzlwEftGoUSPRvXt355YxTPMIwUL4givossSyZcvE8uXLnUm/bdOyZUvRvn170bFjR1xWAFcgfMF19Cqj1atXi3Xr1on169eLo0eP8k/MERkZ6dyX+/jjj4u4uDg8+guuQ/hCyNHliS1btogvv/xS7NixQyQlJQmdhl2ePHlE48aNxS9+8QsRFRUlWrRogcsJEHIIX/DcTz/9JL755huxZ88esW/fPrF//34noA8fPiyuXbvGf8p9BQoUcCayoWCtWbOmqF27tqhbt66oX7++yJcvH/8pAG8gfEErJ0+eFCkpKeLUqVPO5Yvz58+LixcvisuXL4vU1FSRlpYm0tPTnQCnoUtnrRScYWFhonDhwqJo0aKiRIkSomTJkqJ06dLO5YLy5cuLihUrigoVKvDfAqAewhcAQAHcmAgAoADCFwDAc0L8F/rxMJbU5j6wAAAAAElFTkSuQmCC;" vertex="1" parent="1">
          <mxGeometry x="399" y="585" width="24" height="17.5" as="geometry" />
        </mxCell>
        <mxCell id="KHGWq4t0KqPDSNJ2tSIA-76" value="" style="shape=image;verticalLabelPosition=bottom;labelBackgroundColor=default;verticalAlign=top;aspect=fixed;imageAspect=0;image=data:image/png,iVBORw0KGgoAAAANSUhEUgAAAV8AAAEACAYAAAAUbXWjAAAAAXNSR0IArs4c6QAAAARnQU1BAACxjwv8YQUAAAAJcEhZcwAADsMAAA7DAcdvqGQAACFPSURBVHhe7d0JdBXVGQfwCwJhJ1QgbCIByio7JQSIQSGhyA4VFJFCUSvQorJDPR7PwUgLQisoS9GiyO4CiBzKvoRNIUWBEkAoW9hL2WI0KLzyTT8oy832Mm/uMv/fOd9x7oQjd2bu+2eYN3MnT+AmAQAAnsrL/wUAAA/hzBc8d+nSJXHw4EHxn//8R3z33Xf3VWpqqnS9rEiRIkWyVUWLFpWu/9nPfiaqV68uwsPDnf8fgBcQvhASP/74oxOwsjp37hz/Kb2UKVPGCWFZ5c+fn/8UgDsQvpArx44dcwL1wIEDdwXskSNH+E/YITIy8q4wrlGjhvPfhx9+mP8EQM4gfCHbjh8/LjZs2CDWr18vkpKSnJBNT0/nn/pTWFiYE8JNmjQRrVu3Fo899pgoX748/xQgYwhfyNCpU6duh+3GjRvFt99+yz+BzNSuXdsJ4scff1xER0eLiIgI/gnA/yF84Ta6FktBm5iYKLZs2SK+/vpr/gnkRtOmTZ0wpiBu3ry5ePDBB/kn4GcIXx+juw1uBS3V1q1b+ScQSnRGTCFMRYGMuyz8CeHrM3Q2u3Tp0tuBm5aWxj8BFehWtxYtWjhB3LlzZ9GgQQP+CdgO4esDp0+fdgJ3yZIlYuXKlbwWdNS2bVvRpUsXJ4jLlSvHa8FGCF9L3bhx43bg0n8vX77MPwETlChRwgngW0GcNy8eRrUNwtcydN32VujSrWBgPrqV7VYI0+UJsAPC1wKHDx++Hbj0BRrYKyYm5nYQV61aldeCiRC+hqL5D+68rECP84J/0OPOd16WoHkrwCwIX8N8+eWXYs6cOU7opqSk8Frws4oVKzoh3Lt3bxEVFcVrQXcIX0OsXr1afPDBB2LevHm8BuB+vXr1En379hVxcXG8BnSF8NXcp59+6oTuF198wWsAstahQwcnhLt3785rQDcIX01R4M6aNUts2rSJ1wDk3KOPPir69evnBDHoBeGrkStXrtwOXcyrAG6iJ+duhXDx4sV5LaiE8NUAfXF2K3T/9a9/8VoA91WpUuV2CNMXdaAOwleh5ORkJ3ApeM+fP89rAUKvdOnSTgBTENeqVYvXgpcQvgrQk2eTJk1yQtfvk5GDWjQZPIXwkCFDnCfpwDsIX49NnDhR/OlPf8KZLmiFzoRHjhwphg4dymsg1BC+HlmxYoUTuvRGCABdxcbGOiHcrl07XgOhgvANMXrBJIXutGnTeA2A/gYMGOCEMF4QGjoI3xB65513nODFY8BgIrobggL4d7/7Ha8BNyF8Q2DdunVO6K5atYrXAJgrPj7eCWF6/RG4B+HrojNnzjih+5e//IXXANjj5ZdfdkK4bNmyvAZyA+HrkpkzZzrBS3PrAtiK5hCmAH7++ed5DQQL4ZtL9BJKCt1ly5bxGgD7dezY0QlhevknBAfhmwvjx493BiCAX9GJx4gRI7gFOYHwDcLx48ed0F2wYAGvAfCvp556ygnhSpUq8RrIDrwSNYfolT307S+CF+B/6LNAnwn6bED2IXxz4PXXX3de13LgwAFeAwCEPhP02aDPCGQPLjtkw/79+53rWvhSDSBr9GUcfR9Ss2ZNXgMyOPPNAr0zjd6HheAFyB76rNBnBu8bzBzOfDNw48YN50u1t956i9cAQE4NGzbM+TIub16c590Le0QiKSnJ+QIBwQuQO/QZos8Sfabgbgjfe7z33nvOYFm7di2vAYDcoM8SfaboswX/h8sO7Pr162Lw4MFi6tSpvAYA3DZw4EDx9ttvi3z58vEa/0L43nT16lXx7LPP4j5FAA+0b9/eeYVWqVKleI0/+T58aSYyCt41a9bwGgAItejoaDF79mxRrVo1XuM/vr7mSzOQde/eHcEL4LFt27aJDh06iJ07d/Ia//Htme+ePXtEp06dxNGjR3kNAHiNXtxJ9wO3adOG1/iHL8N3+/btIiYmRvz000+8BgBUeeCBB8T8+fPFk08+yWv8wXeXHegVP3S9CcELoAe606hHjx7OCwn8xFdnvvTYI11qAH2UKFFC1KpVy6nIyEhRuHDhHBVJS0vLUR05ckQkJyc7dfnyZef/AXqgOSGGDx/OLbv5JnznzJnj3NUAapQvX96ZaOVW0FJRm9ardOrUKWfipFthTEVtWg9qjBkzRiQkJHDLXr4IX3q2fNSoUdyCUGvQoIFo1aqVqFev3u2gpTNck9AZ8a0w3r17t0hMTMQjsh6ihzHeffddbtnJ+vD9/e9/L9555x1uQShERUU519FjY2Od0A0PD+ef2OXKlSvOLVKbNm1ywpgKQqdXr15i7ty53LKP1eHbrVs3sXjxYm6BGwoVKuSEbdOmTZ3AtTlss3IrjOnuGfovhTFdUwb3PPHEE2L58uXcsou14du2bVuxatUqbkFu0OUD+kV2K3D9GrZZuTOM6VH1Xbt28U8gN375y1+KFStWcMseVoZvz549xaJFi7gFwShevLgTuFT0ZgLIOXpy8vPPP3fq2LFjvBaC0adPH/Hhhx9yyxIUvjZ54YUX6JcJKshq1apVYPLkyYGUlBTeo5Bb33//fWDhwoWBZ555JlCsWDHpfkdlXcOGDeM9agerwnfEiBHSg4bKvCpXrhwYMmRIYPPmzbwnIVROnjwZmDp1auDmP6WlxwKVeU2YMIH3pPmsCd8333xTerBQGVe3bt0Cc+bMCaSlpfFeBC/t3r078MYbbwQaN24sPT4oeX3wwQe8B81mRfjSmYTsIKHur+LFiwcGDx4c2LVrF+890MGMGTMQwjmo+fPn854zl/HhO2/ePOnBQd1dFStWDLz66quBw4cP854DHSGEs1+fffYZ7zUzGR2+K1askB4U1P+rVq1agfHjxwfOnTvHew1MgBDOXi1fvpz3mHmMDd9t27YFwsPDpQcEJQJRUVGB6dOnB3744QfeY2AihHDWtXbtWt5bZjEyfJOTkwNVqlSRHgi/V1xcXGDu3Lm8p8AWCOGMq0CBAkbeqWNc+J4+fTrQpEkT6UHwc0VHRweWLFnCewlsNWXKlEClSpWkY8DPRd9p7Nixg/eSGYwKX7pZPT4+Xrrz/Vp090JCQkLg+vXrvJfAdidOnHDuWJGNBz9X9erVndv3TGFU+Pbu3Vu60/1a9MSUSYMN3EXXOtu1aycdG36t5s2bB65evcp7SG/GzO3wxz/+UYwePZpb/kbz5Y4cOVI89dRTvMYeJ0+eFCkpKc5k5mfPnhXnz58XFy9edObXTU1NdWYNS09Pd14DRUM3T548Il++fCIsLMx5s0XRokWduYNLlizpvJwxIiLCmbD95j9LRYUKFfhvscuMGTPEhAkTnLdxgxC//e1vxfTp07mlLyPClyYm6dy5M7f8K3/+/E7oUlHImIqC85tvvnHeIL1v3z7nzRGHDh1ywuPatWv8p9xXoEABUbVqVVGtWjXnLRq1a9cWdevWFfXr13cC3GT0i4oCeOLEibzG32gO70GDBnFLUxS+Orv5oQzc/MDc9U8LP1bXrl0D27dv571ilm+//dZ5JHTAgAHOl6U3z1al26iqqD/UL+of9ZP6a6pNmzYFOnbsKN1OP1WhQoWcfaEz7cO3U6dO0p3rlypbtmzg/fff571hhjNnzgQ++uijQL9+/QKRkZHS7dK9aLIh6j9tB22PaWjM0NiRbZtfqmnTpoGLFy/yHtGP1uE7atQo6U71S9HMV6Z8obZ3797AuHHjAi1btpRui+lF20XbR9tpCho7fp897bnnnuO9oR9tw5fOOGQ70y81cuRI3hP6on+e021ujRo1km6DrUXbS9ttyuUJGkuy7fBLvf3227wn9KJl+CYlJQVKly4t3ZG210MPPaT1jE10P/GsWbMCbdq0kfbfb0X7gfaH7vdZ05iisSXbBtsrf/78gXXr1vGe0Id24UtzEdDbFGQ70fbq0KFDYN++fbwn9EL/3H7llVcwn0YGRfuF9o/OlyVobNEYk/Xf9qJHs//973/zntCDduE7cOBA6c6zvWi6Rx2tXLky0KVLF2mfUfKi/UX7TVc01mT9tr369u3Le0APWoXvu+++K91pNhfdDfDJJ5/wHtDHxx9/HIiJiZH2GZW9ov1H+1FHNOZMvRMlNzVx4kTeA+ppE77r168PhIWFSXeYrUX37ur2pQ2FRbNmzaT9RQVXtD91DGEaezQGZX22tfLmzRtYvXo17wG1tAhfmujbb9+YDxo0iLdeD/TPZL9ea/eqaP/qeDnCb2/8rl+/vhb3bmsRvnQzu2wn2Vpjx47lLVePviDq0aOHtJ+o0BTtb92+mBszZoy0r7YWZY5qysN30aJF0p1ja82cOZO3XC26NWr06NHSPqK8Kdr/Ot2iRtdDZf20tSh7VFIavjT1W8OGDaU7xsZatmwZb7laNOgwX4YeRcdBdQjcaeHChc51UVlfbSvKHpXTTyoNXz+deekwyz5d58KcyHoWHRdd5pCg+4H98pATZZAqysKXZhyS7QzbqlixYs6bB1Sjx7VLlSol7SNKj6LjQ8dJF/Tma1k/bStVs58pC18/zMBPL/n88ccfeYvVoFcv9e/fX9o/lJ5Fx4uOmw7atm0r7aNNRVmkgpLwnTx5snQn2FR0b6dqGzZs8M3Zi21Fx42Onw6GDRsm7aNNRZnkNc/Dl27stn2e0bp16/LWquO3b65tLV2eyHrppZek/bOlKJO8fuDJ8/C1/Z7e8uXL85aq47f7pm0vHe5JJb169ZL2z5byej97Gr6239NbsmRJ3lI16Dd3dHS0tG8os4uOqw6Pots+laiXt/15Fr6239NL81IcO3aMt9Z7a9asCUREREj7hrKj6PjScVaNHs+V9c+G8vLeX8/C1/Z7ehMTE3lLvTd79mxpn1B2Fh1vlWhe3HLlykn7ZkN5de+vJ+Fr+z29c+fO5S31Hr5Y82ep/iKO5qbIly+ftG82lBf3/noSvjbf0zt9+nTeSu+99tpr0j6h/FF0/FWiSyCyftlQXtz7G/Lw/etf/yrdOBtq0qRJvJXeGz58uLRPKH8VjQOV5syZI+2XDUXZFUohD9+oqCjphpleb7zxBm+h9+hdYbI+ofxZNB5Ueuutt6T9Mr0ou0IppOH74YcfSjfK9KL3zKkyZMgQaZ9Q/i4aFyq9+OKL0n6ZXpRhoRLS8H300UelG2Ry0dsI6A3LKvhpFjhUzkvlDF1Xrlyx8vVTlGGhErLwXbBggXRjTC6aZi8pKYm30FsJCQnSPqFQdxaNE1XoDoGCBQtK+2VyUZaFQsjC18YnYVRN9zdt2jRpf1AoWdF4UWXKlCnSPplclGWhEJLwXbx4sXQjTK5Ro0bx1nnrs88+k/YHhcqsaNyoYuMUppRpbgtJ+LZv3166AaZWp06deMu8RW+/sPGfcajQF40bVW9PuXDhQqBx48bSfplalGlucz18ly9fLu28qUXv2Dp06BBvnXfoEc4aNWpI+4RCZado/NA4UmHt2rXWPQFH2eYm18O3W7du0o6bWkuXLuUt81aHDh2k/UGhclI0jlShh5BkfTK1KNvc5Gr42va44bhx43jLvDVixAhpf1CoYIrGkyp9+vSR9snUcnNWOVfD9+mnn5Z22MSit8mqMG/ePGl/UKjcFI0rFeiNzPXq1ZP2ycSijHOLa+FLUyrKOmti0f28Bw4c4C3zDk2WTW87lvUJhcpN0bhSNRn7xx9/LO2TqeXW9LGuhW/fvn2lHTWxVE3XFxcXJ+0PCuVG0fhS5bnnnpP2ycSirHODK+H71VdfSTtpYtHjwyqMHTtW2h8Uys2icabCkSNHApUqVZL2ycSizMstV8J30KBB0g6aWH//+995q7yzZcsWaV9QqFAUjTcVaO5rWX9MLMq83Mp1+NKEGhUqVJB20LRyY4cGw8YJSVD6Fo03Vbp27Srtk2lFmUfZlxu5Dl9bpo18+OGHA8ePH+et8g4uN6BUlKrLDzt37gwUKVJE2ifTKrfTTeY6fG35TTZ16lTeIu/s2bNH2hcUyoui8aeCLTP0UfblRq7CNzk5Wdop0+qJJ57gLfJWx44dpf1BobwoGn+qxMbGSvtkWlEGBivvzf9B0BYvXsxLZhs5ciQveWf+/Pli2bJl3ALwHo0/GocqjBkzhpfMlqsM5BAOStOmTaW/DUwqVS8grF69urQ/KJSXReNQlaFDh0r7ZFJRBgYr6PC1YR6HMmXKBFJSUniLvENzRsj6g0KpKFVzmNBnjz6Dsj6ZVMHO9xD0ZQcbLjn85je/ERUqVOCWNy5cuCASEhK4BaAejUcal16jzx59Bk0XdBZyCOeIDff2qnrWnS5zyPqDQqksVZffbJjPJNh7foMKXxvu7X3ppZd4a7xz4sQJaV9QKB2KxqcK9FmU9cekCuae36AuOyxZsoSXzJQvXz4l/9yZNGkSLwHoR9X4pM8ifSZNFlQmcghnmw339r7wwgu8Nd45ffp0IE+ePNL+oFA6FI1PGqcq0GdS1ieTKqf3/Ob4zNeWL9q8NmXKFPpFxy0A/dD4pHGqgi+/eHMiOAdMv7dXxRsq0tPTA+Hh4dL+oFA6FY1TGq8q0GdT1idTKqf3/ObozHft2rXiq6++4paZ+vfvz0vemTFjhrh06RK3APRF45TGqwoqPptuomykjMyuHIXv8uXLeclM3bt3F61ateKWd2bOnMlLAPpTNV7ps0mfUZPlJCNzFL7btm3jJTOpuK60YsUKsWfPHm4B6I/GK41bFUy/9rtlyxZeyga+/JClY8eOSa9zmFItW7bkLfFWz549pf1BoXQuGreqxMTESPtkSh0+fJi3JHPZPvPdunUrL5mpa9euvOSds2fPioULF3ILwBw0bmn8qtCtWzdeMtPmzZt5KXPZDl+TLzmEhYWJLl26cMs7qqbrA3CDqvFL4VukSBFumSe7lx6yHb6JiYm8ZB4K3ipVqnDLOzjrBZOpGr+VKlUy+uw329d9+fJDpugaBv1RU2vBggW8Jd7Zu3evtC8olElF41iFxYsXS/tjSh04cIC3JGPZOvM1+ZIDnfGquORgw5OAAKrGMX1m69Spwy3zrF+/npcylq3wze4FZB3RQaRrvl5bunQpLwGYS+U4NvnSQ7Yyk8+AM/Xzn/9cemptQiUmJvJWeIfmKJX1BYUysVTMe0127dol7Y8JFRkZyVuRsSzPfG/ueKdM1LJlS6e8puoGdYBQUDWeGzRoINq3b88tsxw5ckTs27ePW3JZhm+OntjQjIp7e8nKlSt5CcB8KsezyZcesrrum2X45mSiCJ2ourf3xo0bYs2aNdwCMB+NZxrXKlD4litXjltm2bBhAy/JZRm+69at4yWzqLq3l37bpaencwvAfDSes/PtfSiEh4cbe/ab1bMRmYZvcnKyOHXqFLfM0rZtW17y1saNG3kJwB4qx/Vjjz3GS2ahx7N3797NrftlGr6mXnIgjz76KC95y+Tb8gAyonJct2jRQuTPn59bZsns0oOV4du8eXNRtWpVbnnL9Gk3AWRUjuuyZcs6n2kTZXa5JtPw/frrr3nJLKrOenfs2CF++OEHbgHYg8b1zp07ueU9Ovs1UWYZmmH4pqWliaNHj3LLLKrCNykpiZcA7KMyfGNiYnjJLJShlKUyGYYvfdlmIrrFTFX47tq1i5cA7KNyfMfFxYnixYtzyywZZWmG4ZvV0xm6at26tbK5QDP7ZhPAdCrH9wMPPGDsdd+MstS68G3Tpg0veW/v3r28BGAf1eM7NjaWl8zim/BV8XZiQtd2UlNTuQVgHxrfKr8Hio+P5yWz+CJ8y5QpIxo2bMgtbx08eJCXAOylcpw3atRIREREcMscOQrfa9euiUOHDnHLHCovORw+fJiXAOylepyb+LQbZSll6r2k4WvqJQf6sk0VmkIOwHaqxznd9WAiWaZKw9fU28yioqJ4yXvHjx/nJQB7qR7nKj/juSHLVKvOfGvWrMlL3jt58iQvAdhL9ThX+RnPjWyf+ZoYvtWrV3fuBVTl9OnTvARgL9XjnD7j9Fk3jdXhW6tWLV5S49y5c7wEYC8dxrnqz3owshW+NGP9/v37uWUOlQeEJpu+evUqtwDsReNc9csCTAxfytR73wZyX/iaeNZLVB6QS5cu8RKA/VSPdxPDl9ybrdaEr8oL8TjrBT9RPd5t+dLtvvA19TYzlb8Nv/vuO14CsJ/q8W7qme+92Xpf+F6+fJmXzFGxYkVRrFgxbnkPE6iDn6ge7/RZp8+8ae69XHNf+F65coWXzKH6N6Hs0UEAW+kw3k08+733xNaKM1/VB+LebzEBbKbDeLcyfE088zX1AjwABMfEzzzOfEMgb977diOAtXQY7yae+WZ5zffixYu8ZI4SJUrwkhoFChTgJQD76TDew8PDeckcWZ75mvjAgOoX6xUsWJCXAOynw3hXfcIVDCvDV/WBUPXCTgAVdBjvJr7JONPwpW8xTbxtSvWBUHmPMYDXdBjvJn7mKFvvvFPkrvA18U4HOgiqr0GZeP0JIFg6jHf6zJt+9ntX+Jp4p4MO137CwsJw9gu+QOOcxrsOTP/SzfgzX10uvNObkwFsp9M4NzF87/xODeHrknLlyvESgL10Guem3/FwV/jiNrPgVahQgZcA7KXTOEf4KqbLAahUqRIvAdhLp3Fu1RduCN/gRUZG8hKAvXQa56aHb57ATbwsEhISxKpVq8T169elRfeoydbfqsx+fsdf46phw4aJCRMmcEsd2m9t27blFoCdVq5cKeLj47ml1ogRI0L22c+TJ4/zpuRgiua+kC1TxcXFiVdfffV/f8ed4RtK9NfcG8iysA5mXWxsLP8t6hw9ehRnv2C9I0eOiMqVK3NLrY0bN94VbHfWvaGX0zaFb6h5Fr5+QPdApqamcgvALkWLFsX7Cl101zVfyJ1HHnmElwDsg/HtLoSvi+rVq8dLAPbB+HYXwtdFDRs25CUA+2B8uwvh66ImTZrwEoB9GjduzEvgBnzh5rJChQrhVfJgHZpA/fvvv+cWuAFnvi6Ljo7mJQB7YFy7D+HrspYtW/ISgD0wrt2H8HWZDg98ALgN49p9uObrMnryrnDhwiI9PZ3XAJiNJk9PS0tzngID92BvuowGaJs2bbgFYD4azwhe92GPhgAm2AGbYDyHBsI3BNq1a8dLAObDeA4NhG8IVKtWDQ9cgBVoHNN4BvchfEOkc+fOvARgLozj0EH4hkjXrl15CcBcGMehg/ANkTp16ohmzZpxC8A8NH5pHENoIHxDqGfPnrwEYB6M39DCQxYhdPbsWVG2bFluAZjlzJkzIiIiglvgNpz5hhANXJw9gIlo3CJ4QwvhG2K//vWveQnAHBi3oYfLDh6g16/s2bOHWwB6q1u3rti9eze3IFRw5uuB559/npcA9Ifx6g2c+Xrg2rVrzvWzS5cu8RoAPYWHhztfFBcoUIDXQKjgzNcDNJAHDhzILQB90ThF8HoDZ74eodt2ypcvL7C7QVd58uQRp06dwu2RHsGZr0doQL/88svcAtAPjU8Er3dw5uuhlJQU8dBDD3ELQC8nTpwQFStW5BaEGs58PUQDe/jw4dwC0AeNSwSvt3Dm67ELFy6IypUri9TUVF4DoFbRokXF0aNHxYMPPshrwAs48/UYDfA//OEP3AJQj8Yjgtd7OPNVpEaNGuLgwYPcAlCjevXq4sCBA9wCL+HMV5HXX3+dlwDUwThUB2e+CnXq1EksW7aMWwDe6tixo/j888+5BV5D+Cq0d+9eZxITABVosqdHHnmEW+A1XHZQiAb+2LFjuQXgHRp3CF61cOargejoaLF9+3ZuAYQWvZtt27Zt3AJVcOargYkTJ/ISQOhhvOkB4auB5s2b4/IDeILGGY03UA+XHTQSHx8vVq9ezS0Ad8XFxYlVq1ZxC1RD+Grk0KFDolGjRuLq1au8BsAdxYoVE//4xz9EtWrVeA2ohssOGqEPxowZM7gF4B4aVwhevSB8NfP000+LESNGcAsg92g80bgCveCyg6bo6aMvvviCWwDB6dChA56i1BTCV1M09WSLFi0w6QkEjSZv2rJlC2Ys0xQuO2iKPjBz5swRBQsW5DUA2UfjhsYPgldfCF+NNWnSRMybN49bANlH44bGD+gL4au5rl27imnTpnELIGs0XmjcgN4QvgZ48cUXRUJCArcAMkbjhMYL6A/ha4gxY8aI0aNHcwvgfjQ+aJyAGXC3g2GGDh0qJk2axC2A/xkyZAgmzDEMwtdA9EH785//zC3wu1deeQW/kA2Eyw4Gog/a8OHDuQV+RuMAwWsmhK+hxo8fL1577TVugR/R8adxAGbCZQfD0VkPXQcGf6Hru3T5CcyF8LXARx99JPr06cMtsN3s2bPFs88+yy0wFcLXEmvXrhXPPPOMOHv2LK8B20RERIi5c+eK1q1b8xowGa75WoI+kJs3b3Zexgn2oeNKxxfBaw+Er0VosuytW7eKfv368RqwAR1POq6YDN0uCF8L/e1vf8MN95ag40jHE+yDa74W27hxoxgwYIBITk7mNWCKWrVqORPkxMbG8hqwDc58LUYfXHppYv/+/XkNmICOFx03BK/dEL6Wo0m133vvPed2tFKlSvFa0BEdHzpOdLwwib79EL4+0bt3b7F3717nv6AfHB//Qfj6CN0nSmdWixYtElWrVuW1oBIdBzoedFzo+IB/IHx96MknnxQHDx7E/MCK0f6n40DHA/wH4etTefPmFW+++abzT90ePXrwWvAC7W/a77T/6TiAP+FWM3CsWrVKjBs3TmzYsIHXgNtatWrlnO3Gx8fzGvAzhC/c5ZNPPnFu7N++fTuvgdxq1qyZM/Pcr371K14DgPCFDFAIT548WSQmJvIayKmYmBgxePBghC5IIXwhU3Q5gp60WrJkCa+BrHTp0sV5shCXFyAzCF/Iln/+85/i/fffF7NmzRKXLl3itXBLeHi4MwEOPZ1Wp04dXguQMYQv5MiNGzecybxpXtk1a9bwWv9q06aNM48yTWaPOxcgJxC+ELRDhw45Dwh8+umnzlwEftGoUSPRvXt355YxTPMIwUL4givossSyZcvE8uXLnUm/bdOyZUvRvn170bFjR1xWAFcgfMF19Cqj1atXi3Xr1on169eLo0eP8k/MERkZ6dyX+/jjj4u4uDg8+guuQ/hCyNHliS1btogvv/xS7NixQyQlJQmdhl2ePHlE48aNxS9+8QsRFRUlWrRogcsJEHIIX/DcTz/9JL755huxZ88esW/fPrF//34noA8fPiyuXbvGf8p9BQoUcCayoWCtWbOmqF27tqhbt66oX7++yJcvH/8pAG8gfEErJ0+eFCkpKeLUqVPO5Yvz58+LixcvisuXL4vU1FSRlpYm0tPTnQCnoUtnrRScYWFhonDhwqJo0aKiRIkSomTJkqJ06dLO5YLy5cuLihUrigoVKvDfAqAewhcAQAHcmAgAoADCFwDAc0L8F/rxMJbU5j6wAAAAAElFTkSuQmCC;" vertex="1" parent="1">
          <mxGeometry x="552" y="585" width="24" height="17.5" as="geometry" />
        </mxCell>
        <mxCell id="KHGWq4t0KqPDSNJ2tSIA-77" value="" style="shape=image;verticalLabelPosition=bottom;labelBackgroundColor=default;verticalAlign=top;aspect=fixed;imageAspect=0;image=data:image/png,iVBORw0KGgoAAAANSUhEUgAAAV8AAAEACAYAAAAUbXWjAAAAAXNSR0IArs4c6QAAAARnQU1BAACxjwv8YQUAAAAJcEhZcwAADsMAAA7DAcdvqGQAACFPSURBVHhe7d0JdBXVGQfwCwJhJ1QgbCIByio7JQSIQSGhyA4VFJFCUSvQorJDPR7PwUgLQisoS9GiyO4CiBzKvoRNIUWBEkAoW9hL2WI0KLzyTT8oy832Mm/uMv/fOd9x7oQjd2bu+2eYN3MnT+AmAQAAnsrL/wUAAA/hzBc8d+nSJXHw4EHxn//8R3z33Xf3VWpqqnS9rEiRIkWyVUWLFpWu/9nPfiaqV68uwsPDnf8fgBcQvhASP/74oxOwsjp37hz/Kb2UKVPGCWFZ5c+fn/8UgDsQvpArx44dcwL1wIEDdwXskSNH+E/YITIy8q4wrlGjhvPfhx9+mP8EQM4gfCHbjh8/LjZs2CDWr18vkpKSnJBNT0/nn/pTWFiYE8JNmjQRrVu3Fo899pgoX748/xQgYwhfyNCpU6duh+3GjRvFt99+yz+BzNSuXdsJ4scff1xER0eLiIgI/gnA/yF84Ta6FktBm5iYKLZs2SK+/vpr/gnkRtOmTZ0wpiBu3ry5ePDBB/kn4GcIXx+juw1uBS3V1q1b+ScQSnRGTCFMRYGMuyz8CeHrM3Q2u3Tp0tuBm5aWxj8BFehWtxYtWjhB3LlzZ9GgQQP+CdgO4esDp0+fdgJ3yZIlYuXKlbwWdNS2bVvRpUsXJ4jLlSvHa8FGCF9L3bhx43bg0n8vX77MPwETlChRwgngW0GcNy8eRrUNwtcydN32VujSrWBgPrqV7VYI0+UJsAPC1wKHDx++Hbj0BRrYKyYm5nYQV61aldeCiRC+hqL5D+68rECP84J/0OPOd16WoHkrwCwIX8N8+eWXYs6cOU7opqSk8Frws4oVKzoh3Lt3bxEVFcVrQXcIX0OsXr1afPDBB2LevHm8BuB+vXr1En379hVxcXG8BnSF8NXcp59+6oTuF198wWsAstahQwcnhLt3785rQDcIX01R4M6aNUts2rSJ1wDk3KOPPir69evnBDHoBeGrkStXrtwOXcyrAG6iJ+duhXDx4sV5LaiE8NUAfXF2K3T/9a9/8VoA91WpUuV2CNMXdaAOwleh5ORkJ3ApeM+fP89rAUKvdOnSTgBTENeqVYvXgpcQvgrQk2eTJk1yQtfvk5GDWjQZPIXwkCFDnCfpwDsIX49NnDhR/OlPf8KZLmiFzoRHjhwphg4dymsg1BC+HlmxYoUTuvRGCABdxcbGOiHcrl07XgOhgvANMXrBJIXutGnTeA2A/gYMGOCEMF4QGjoI3xB65513nODFY8BgIrobggL4d7/7Ha8BNyF8Q2DdunVO6K5atYrXAJgrPj7eCWF6/RG4B+HrojNnzjih+5e//IXXANjj5ZdfdkK4bNmyvAZyA+HrkpkzZzrBS3PrAtiK5hCmAH7++ed5DQQL4ZtL9BJKCt1ly5bxGgD7dezY0QlhevknBAfhmwvjx493BiCAX9GJx4gRI7gFOYHwDcLx48ed0F2wYAGvAfCvp556ygnhSpUq8RrIDrwSNYfolT307S+CF+B/6LNAnwn6bED2IXxz4PXXX3de13LgwAFeAwCEPhP02aDPCGQPLjtkw/79+53rWvhSDSBr9GUcfR9Ss2ZNXgMyOPPNAr0zjd6HheAFyB76rNBnBu8bzBzOfDNw48YN50u1t956i9cAQE4NGzbM+TIub16c590Le0QiKSnJ+QIBwQuQO/QZos8Sfabgbgjfe7z33nvOYFm7di2vAYDcoM8SfaboswX/h8sO7Pr162Lw4MFi6tSpvAYA3DZw4EDx9ttvi3z58vEa/0L43nT16lXx7LPP4j5FAA+0b9/eeYVWqVKleI0/+T58aSYyCt41a9bwGgAItejoaDF79mxRrVo1XuM/vr7mSzOQde/eHcEL4LFt27aJDh06iJ07d/Ia//Htme+ePXtEp06dxNGjR3kNAHiNXtxJ9wO3adOG1/iHL8N3+/btIiYmRvz000+8BgBUeeCBB8T8+fPFk08+yWv8wXeXHegVP3S9CcELoAe606hHjx7OCwn8xFdnvvTYI11qAH2UKFFC1KpVy6nIyEhRuHDhHBVJS0vLUR05ckQkJyc7dfnyZef/AXqgOSGGDx/OLbv5JnznzJnj3NUAapQvX96ZaOVW0FJRm9ardOrUKWfipFthTEVtWg9qjBkzRiQkJHDLXr4IX3q2fNSoUdyCUGvQoIFo1aqVqFev3u2gpTNck9AZ8a0w3r17t0hMTMQjsh6ihzHeffddbtnJ+vD9/e9/L9555x1uQShERUU519FjY2Od0A0PD+ef2OXKlSvOLVKbNm1ywpgKQqdXr15i7ty53LKP1eHbrVs3sXjxYm6BGwoVKuSEbdOmTZ3AtTlss3IrjOnuGfovhTFdUwb3PPHEE2L58uXcsou14du2bVuxatUqbkFu0OUD+kV2K3D9GrZZuTOM6VH1Xbt28U8gN375y1+KFStWcMseVoZvz549xaJFi7gFwShevLgTuFT0ZgLIOXpy8vPPP3fq2LFjvBaC0adPH/Hhhx9yyxIUvjZ54YUX6JcJKshq1apVYPLkyYGUlBTeo5Bb33//fWDhwoWBZ555JlCsWDHpfkdlXcOGDeM9agerwnfEiBHSg4bKvCpXrhwYMmRIYPPmzbwnIVROnjwZmDp1auDmP6WlxwKVeU2YMIH3pPmsCd8333xTerBQGVe3bt0Cc+bMCaSlpfFeBC/t3r078MYbbwQaN24sPT4oeX3wwQe8B81mRfjSmYTsIKHur+LFiwcGDx4c2LVrF+890MGMGTMQwjmo+fPn854zl/HhO2/ePOnBQd1dFStWDLz66quBw4cP854DHSGEs1+fffYZ7zUzGR2+K1askB4U1P+rVq1agfHjxwfOnTvHew1MgBDOXi1fvpz3mHmMDd9t27YFwsPDpQcEJQJRUVGB6dOnB3744QfeY2AihHDWtXbtWt5bZjEyfJOTkwNVqlSRHgi/V1xcXGDu3Lm8p8AWCOGMq0CBAkbeqWNc+J4+fTrQpEkT6UHwc0VHRweWLFnCewlsNWXKlEClSpWkY8DPRd9p7Nixg/eSGYwKX7pZPT4+Xrrz/Vp090JCQkLg+vXrvJfAdidOnHDuWJGNBz9X9erVndv3TGFU+Pbu3Vu60/1a9MSUSYMN3EXXOtu1aycdG36t5s2bB65evcp7SG/GzO3wxz/+UYwePZpb/kbz5Y4cOVI89dRTvMYeJ0+eFCkpKc5k5mfPnhXnz58XFy9edObXTU1NdWYNS09Pd14DRUM3T548Il++fCIsLMx5s0XRokWduYNLlizpvJwxIiLCmbD95j9LRYUKFfhvscuMGTPEhAkTnLdxgxC//e1vxfTp07mlLyPClyYm6dy5M7f8K3/+/E7oUlHImIqC85tvvnHeIL1v3z7nzRGHDh1ywuPatWv8p9xXoEABUbVqVVGtWjXnLRq1a9cWdevWFfXr13cC3GT0i4oCeOLEibzG32gO70GDBnFLUxS+Orv5oQzc/MDc9U8LP1bXrl0D27dv571ilm+//dZ5JHTAgAHOl6U3z1al26iqqD/UL+of9ZP6a6pNmzYFOnbsKN1OP1WhQoWcfaEz7cO3U6dO0p3rlypbtmzg/fff571hhjNnzgQ++uijQL9+/QKRkZHS7dK9aLIh6j9tB22PaWjM0NiRbZtfqmnTpoGLFy/yHtGP1uE7atQo6U71S9HMV6Z8obZ3797AuHHjAi1btpRui+lF20XbR9tpCho7fp897bnnnuO9oR9tw5fOOGQ70y81cuRI3hP6on+e021ujRo1km6DrUXbS9ttyuUJGkuy7fBLvf3227wn9KJl+CYlJQVKly4t3ZG210MPPaT1jE10P/GsWbMCbdq0kfbfb0X7gfaH7vdZ05iisSXbBtsrf/78gXXr1vGe0Id24UtzEdDbFGQ70fbq0KFDYN++fbwn9EL/3H7llVcwn0YGRfuF9o/OlyVobNEYk/Xf9qJHs//973/zntCDduE7cOBA6c6zvWi6Rx2tXLky0KVLF2mfUfKi/UX7TVc01mT9tr369u3Le0APWoXvu+++K91pNhfdDfDJJ5/wHtDHxx9/HIiJiZH2GZW9ov1H+1FHNOZMvRMlNzVx4kTeA+ppE77r168PhIWFSXeYrUX37ur2pQ2FRbNmzaT9RQVXtD91DGEaezQGZX22tfLmzRtYvXo17wG1tAhfmujbb9+YDxo0iLdeD/TPZL9ea/eqaP/qeDnCb2/8rl+/vhb3bmsRvnQzu2wn2Vpjx47lLVePviDq0aOHtJ+o0BTtb92+mBszZoy0r7YWZY5qysN30aJF0p1ja82cOZO3XC26NWr06NHSPqK8Kdr/Ot2iRtdDZf20tSh7VFIavjT1W8OGDaU7xsZatmwZb7laNOgwX4YeRcdBdQjcaeHChc51UVlfbSvKHpXTTyoNXz+deekwyz5d58KcyHoWHRdd5pCg+4H98pATZZAqysKXZhyS7QzbqlixYs6bB1Sjx7VLlSol7SNKj6LjQ8dJF/Tma1k/bStVs58pC18/zMBPL/n88ccfeYvVoFcv9e/fX9o/lJ5Fx4uOmw7atm0r7aNNRVmkgpLwnTx5snQn2FR0b6dqGzZs8M3Zi21Fx42Onw6GDRsm7aNNRZnkNc/Dl27stn2e0bp16/LWquO3b65tLV2eyHrppZek/bOlKJO8fuDJ8/C1/Z7e8uXL85aq47f7pm0vHe5JJb169ZL2z5byej97Gr6239NbsmRJ3lI16Dd3dHS0tG8os4uOqw6Pots+laiXt/15Fr6239NL81IcO3aMt9Z7a9asCUREREj7hrKj6PjScVaNHs+V9c+G8vLeX8/C1/Z7ehMTE3lLvTd79mxpn1B2Fh1vlWhe3HLlykn7ZkN5de+vJ+Fr+z29c+fO5S31Hr5Y82ep/iKO5qbIly+ftG82lBf3/noSvjbf0zt9+nTeSu+99tpr0j6h/FF0/FWiSyCyftlQXtz7G/Lw/etf/yrdOBtq0qRJvJXeGz58uLRPKH8VjQOV5syZI+2XDUXZFUohD9+oqCjphpleb7zxBm+h9+hdYbI+ofxZNB5Ueuutt6T9Mr0ou0IppOH74YcfSjfK9KL3zKkyZMgQaZ9Q/i4aFyq9+OKL0n6ZXpRhoRLS8H300UelG2Ry0dsI6A3LKvhpFjhUzkvlDF1Xrlyx8vVTlGGhErLwXbBggXRjTC6aZi8pKYm30FsJCQnSPqFQdxaNE1XoDoGCBQtK+2VyUZaFQsjC18YnYVRN9zdt2jRpf1AoWdF4UWXKlCnSPplclGWhEJLwXbx4sXQjTK5Ro0bx1nnrs88+k/YHhcqsaNyoYuMUppRpbgtJ+LZv3166AaZWp06deMu8RW+/sPGfcajQF40bVW9PuXDhQqBx48bSfplalGlucz18ly9fLu28qUXv2Dp06BBvnXfoEc4aNWpI+4RCZado/NA4UmHt2rXWPQFH2eYm18O3W7du0o6bWkuXLuUt81aHDh2k/UGhclI0jlShh5BkfTK1KNvc5Gr42va44bhx43jLvDVixAhpf1CoYIrGkyp9+vSR9snUcnNWOVfD9+mnn5Z22MSit8mqMG/ePGl/UKjcFI0rFeiNzPXq1ZP2ycSijHOLa+FLUyrKOmti0f28Bw4c4C3zDk2WTW87lvUJhcpN0bhSNRn7xx9/LO2TqeXW9LGuhW/fvn2lHTWxVE3XFxcXJ+0PCuVG0fhS5bnnnpP2ycSirHODK+H71VdfSTtpYtHjwyqMHTtW2h8Uys2icabCkSNHApUqVZL2ycSizMstV8J30KBB0g6aWH//+995q7yzZcsWaV9QqFAUjTcVaO5rWX9MLMq83Mp1+NKEGhUqVJB20LRyY4cGw8YJSVD6Fo03Vbp27Srtk2lFmUfZlxu5Dl9bpo18+OGHA8ePH+et8g4uN6BUlKrLDzt37gwUKVJE2ifTKrfTTeY6fG35TTZ16lTeIu/s2bNH2hcUyoui8aeCLTP0UfblRq7CNzk5Wdop0+qJJ57gLfJWx44dpf1BobwoGn+qxMbGSvtkWlEGBivvzf9B0BYvXsxLZhs5ciQveWf+/Pli2bJl3ALwHo0/GocqjBkzhpfMlqsM5BAOStOmTaW/DUwqVS8grF69urQ/KJSXReNQlaFDh0r7ZFJRBgYr6PC1YR6HMmXKBFJSUniLvENzRsj6g0KpKFVzmNBnjz6Dsj6ZVMHO9xD0ZQcbLjn85je/ERUqVOCWNy5cuCASEhK4BaAejUcal16jzx59Bk0XdBZyCOeIDff2qnrWnS5zyPqDQqksVZffbJjPJNh7foMKXxvu7X3ppZd4a7xz4sQJaV9QKB2KxqcK9FmU9cekCuae36AuOyxZsoSXzJQvXz4l/9yZNGkSLwHoR9X4pM8ifSZNFlQmcghnmw339r7wwgu8Nd45ffp0IE+ePNL+oFA6FI1PGqcq0GdS1ieTKqf3/Ob4zNeWL9q8NmXKFPpFxy0A/dD4pHGqgi+/eHMiOAdMv7dXxRsq0tPTA+Hh4dL+oFA6FY1TGq8q0GdT1idTKqf3/ObozHft2rXiq6++4paZ+vfvz0vemTFjhrh06RK3APRF45TGqwoqPptuomykjMyuHIXv8uXLeclM3bt3F61ateKWd2bOnMlLAPpTNV7ps0mfUZPlJCNzFL7btm3jJTOpuK60YsUKsWfPHm4B6I/GK41bFUy/9rtlyxZeyga+/JClY8eOSa9zmFItW7bkLfFWz549pf1BoXQuGreqxMTESPtkSh0+fJi3JHPZPvPdunUrL5mpa9euvOSds2fPioULF3ILwBw0bmn8qtCtWzdeMtPmzZt5KXPZDl+TLzmEhYWJLl26cMs7qqbrA3CDqvFL4VukSBFumSe7lx6yHb6JiYm8ZB4K3ipVqnDLOzjrBZOpGr+VKlUy+uw329d9+fJDpugaBv1RU2vBggW8Jd7Zu3evtC8olElF41iFxYsXS/tjSh04cIC3JGPZOvM1+ZIDnfGquORgw5OAAKrGMX1m69Spwy3zrF+/npcylq3wze4FZB3RQaRrvl5bunQpLwGYS+U4NvnSQ7Yyk8+AM/Xzn/9cemptQiUmJvJWeIfmKJX1BYUysVTMe0127dol7Y8JFRkZyVuRsSzPfG/ueKdM1LJlS6e8puoGdYBQUDWeGzRoINq3b88tsxw5ckTs27ePW3JZhm+OntjQjIp7e8nKlSt5CcB8KsezyZcesrrum2X45mSiCJ2ourf3xo0bYs2aNdwCMB+NZxrXKlD4litXjltm2bBhAy/JZRm+69at4yWzqLq3l37bpaencwvAfDSes/PtfSiEh4cbe/ab1bMRmYZvcnKyOHXqFLfM0rZtW17y1saNG3kJwB4qx/Vjjz3GS2ahx7N3797NrftlGr6mXnIgjz76KC95y+Tb8gAyonJct2jRQuTPn59bZsns0oOV4du8eXNRtWpVbnnL9Gk3AWRUjuuyZcs6n2kTZXa5JtPw/frrr3nJLKrOenfs2CF++OEHbgHYg8b1zp07ueU9Ovs1UWYZmmH4pqWliaNHj3LLLKrCNykpiZcA7KMyfGNiYnjJLJShlKUyGYYvfdlmIrrFTFX47tq1i5cA7KNyfMfFxYnixYtzyywZZWmG4ZvV0xm6at26tbK5QDP7ZhPAdCrH9wMPPGDsdd+MstS68G3Tpg0veW/v3r28BGAf1eM7NjaWl8zim/BV8XZiQtd2UlNTuQVgHxrfKr8Hio+P5yWz+CJ8y5QpIxo2bMgtbx08eJCXAOylcpw3atRIREREcMscOQrfa9euiUOHDnHLHCovORw+fJiXAOylepyb+LQbZSll6r2k4WvqJQf6sk0VmkIOwHaqxznd9WAiWaZKw9fU28yioqJ4yXvHjx/nJQB7qR7nKj/juSHLVKvOfGvWrMlL3jt58iQvAdhL9ThX+RnPjWyf+ZoYvtWrV3fuBVTl9OnTvARgL9XjnD7j9Fk3jdXhW6tWLV5S49y5c7wEYC8dxrnqz3owshW+NGP9/v37uWUOlQeEJpu+evUqtwDsReNc9csCTAxfytR73wZyX/iaeNZLVB6QS5cu8RKA/VSPdxPDl9ybrdaEr8oL8TjrBT9RPd5t+dLtvvA19TYzlb8Nv/vuO14CsJ/q8W7qme+92Xpf+F6+fJmXzFGxYkVRrFgxbnkPE6iDn6ge7/RZp8+8ae69XHNf+F65coWXzKH6N6Hs0UEAW+kw3k08+733xNaKM1/VB+LebzEBbKbDeLcyfE088zX1AjwABMfEzzzOfEMgb977diOAtXQY7yae+WZ5zffixYu8ZI4SJUrwkhoFChTgJQD76TDew8PDeckcWZ75mvjAgOoX6xUsWJCXAOynw3hXfcIVDCvDV/WBUPXCTgAVdBjvJr7JONPwpW8xTbxtSvWBUHmPMYDXdBjvJn7mKFvvvFPkrvA18U4HOgiqr0GZeP0JIFg6jHf6zJt+9ntX+Jp4p4MO137CwsJw9gu+QOOcxrsOTP/SzfgzX10uvNObkwFsp9M4NzF87/xODeHrknLlyvESgL10Guem3/FwV/jiNrPgVahQgZcA7KXTOEf4KqbLAahUqRIvAdhLp3Fu1RduCN/gRUZG8hKAvXQa56aHb57ATbwsEhISxKpVq8T169elRfeoydbfqsx+fsdf46phw4aJCRMmcEsd2m9t27blFoCdVq5cKeLj47ml1ogRI0L22c+TJ4/zpuRgiua+kC1TxcXFiVdfffV/f8ed4RtK9NfcG8iysA5mXWxsLP8t6hw9ehRnv2C9I0eOiMqVK3NLrY0bN94VbHfWvaGX0zaFb6h5Fr5+QPdApqamcgvALkWLFsX7Cl101zVfyJ1HHnmElwDsg/HtLoSvi+rVq8dLAPbB+HYXwtdFDRs25CUA+2B8uwvh66ImTZrwEoB9GjduzEvgBnzh5rJChQrhVfJgHZpA/fvvv+cWuAFnvi6Ljo7mJQB7YFy7D+HrspYtW/ISgD0wrt2H8HWZDg98ALgN49p9uObrMnryrnDhwiI9PZ3XAJiNJk9PS0tzngID92BvuowGaJs2bbgFYD4azwhe92GPhgAm2AGbYDyHBsI3BNq1a8dLAObDeA4NhG8IVKtWDQ9cgBVoHNN4BvchfEOkc+fOvARgLozj0EH4hkjXrl15CcBcGMehg/ANkTp16ohmzZpxC8A8NH5pHENoIHxDqGfPnrwEYB6M39DCQxYhdPbsWVG2bFluAZjlzJkzIiIiglvgNpz5hhANXJw9gIlo3CJ4QwvhG2K//vWveQnAHBi3oYfLDh6g16/s2bOHWwB6q1u3rti9eze3IFRw5uuB559/npcA9Ifx6g2c+Xrg2rVrzvWzS5cu8RoAPYWHhztfFBcoUIDXQKjgzNcDNJAHDhzILQB90ThF8HoDZ74eodt2ypcvL7C7QVd58uQRp06dwu2RHsGZr0doQL/88svcAtAPjU8Er3dw5uuhlJQU8dBDD3ELQC8nTpwQFStW5BaEGs58PUQDe/jw4dwC0AeNSwSvt3Dm67ELFy6IypUri9TUVF4DoFbRokXF0aNHxYMPPshrwAs48/UYDfA//OEP3AJQj8Yjgtd7OPNVpEaNGuLgwYPcAlCjevXq4sCBA9wCL+HMV5HXX3+dlwDUwThUB2e+CnXq1EksW7aMWwDe6tixo/j888+5BV5D+Cq0d+9eZxITABVosqdHHnmEW+A1XHZQiAb+2LFjuQXgHRp3CF61cOargejoaLF9+3ZuAYQWvZtt27Zt3AJVcOargYkTJ/ISQOhhvOkB4auB5s2b4/IDeILGGY03UA+XHTQSHx8vVq9ezS0Ad8XFxYlVq1ZxC1RD+Grk0KFDolGjRuLq1au8BsAdxYoVE//4xz9EtWrVeA2ohssOGqEPxowZM7gF4B4aVwhevSB8NfP000+LESNGcAsg92g80bgCveCyg6bo6aMvvviCWwDB6dChA56i1BTCV1M09WSLFi0w6QkEjSZv2rJlC2Ys0xQuO2iKPjBz5swRBQsW5DUA2UfjhsYPgldfCF+NNWnSRMybN49bANlH44bGD+gL4au5rl27imnTpnELIGs0XmjcgN4QvgZ48cUXRUJCArcAMkbjhMYL6A/ha4gxY8aI0aNHcwvgfjQ+aJyAGXC3g2GGDh0qJk2axC2A/xkyZAgmzDEMwtdA9EH785//zC3wu1deeQW/kA2Eyw4Gog/a8OHDuQV+RuMAwWsmhK+hxo8fL1577TVugR/R8adxAGbCZQfD0VkPXQcGf6Hru3T5CcyF8LXARx99JPr06cMtsN3s2bPFs88+yy0wFcLXEmvXrhXPPPOMOHv2LK8B20RERIi5c+eK1q1b8xowGa75WoI+kJs3b3Zexgn2oeNKxxfBaw+Er0VosuytW7eKfv368RqwAR1POq6YDN0uCF8L/e1vf8MN95ag40jHE+yDa74W27hxoxgwYIBITk7mNWCKWrVqORPkxMbG8hqwDc58LUYfXHppYv/+/XkNmICOFx03BK/dEL6Wo0m133vvPed2tFKlSvFa0BEdHzpOdLwwib79EL4+0bt3b7F3717nv6AfHB//Qfj6CN0nSmdWixYtElWrVuW1oBIdBzoedFzo+IB/IHx96MknnxQHDx7E/MCK0f6n40DHA/wH4etTefPmFW+++abzT90ePXrwWvAC7W/a77T/6TiAP+FWM3CsWrVKjBs3TmzYsIHXgNtatWrlnO3Gx8fzGvAzhC/c5ZNPPnFu7N++fTuvgdxq1qyZM/Pcr371K14DgPCFDFAIT548WSQmJvIayKmYmBgxePBghC5IIXwhU3Q5gp60WrJkCa+BrHTp0sV5shCXFyAzCF/Iln/+85/i/fffF7NmzRKXLl3itXBLeHi4MwEOPZ1Wp04dXguQMYQv5MiNGzecybxpXtk1a9bwWv9q06aNM48yTWaPOxcgJxC+ELRDhw45Dwh8+umnzlwEftGoUSPRvXt355YxTPMIwUL4givossSyZcvE8uXLnUm/bdOyZUvRvn170bFjR1xWAFcgfMF19Cqj1atXi3Xr1on169eLo0eP8k/MERkZ6dyX+/jjj4u4uDg8+guuQ/hCyNHliS1btogvv/xS7NixQyQlJQmdhl2ePHlE48aNxS9+8QsRFRUlWrRogcsJEHIIX/DcTz/9JL755huxZ88esW/fPrF//34noA8fPiyuXbvGf8p9BQoUcCayoWCtWbOmqF27tqhbt66oX7++yJcvH/8pAG8gfEErJ0+eFCkpKeLUqVPO5Yvz58+LixcvisuXL4vU1FSRlpYm0tPTnQCnoUtnrRScYWFhonDhwqJo0aKiRIkSomTJkqJ06dLO5YLy5cuLihUrigoVKvDfAqAewhcAQAHcmAgAoADCFwDAc0L8F/rxMJbU5j6wAAAAAElFTkSuQmCC;" vertex="1" parent="1">
          <mxGeometry x="706.06" y="584" width="24" height="17.5" as="geometry" />
        </mxCell>
        <mxCell id="KHGWq4t0KqPDSNJ2tSIA-79" value="" style="group" vertex="1" connectable="0" parent="1">
          <mxGeometry x="590" y="105" width="56.75" height="50.75" as="geometry" />
        </mxCell>
        <mxCell id="KHGWq4t0KqPDSNJ2tSIA-26" value="" style="strokeWidth=2;html=1;shape=mxgraph.flowchart.database;whiteSpace=wrap;rotation=90;fillColor=#d5e8d4;strokeColor=#82b366;" vertex="1" parent="KHGWq4t0KqPDSNJ2tSIA-79">
          <mxGeometry x="10.5" y="4.5" width="50.75" height="41.75" as="geometry" />
        </mxCell>
        <mxCell id="KHGWq4t0KqPDSNJ2tSIA-78" value="" style="shape=message;html=1;html=1;outlineConnect=0;labelPosition=center;verticalLabelPosition=bottom;align=center;verticalAlign=top;" vertex="1" parent="KHGWq4t0KqPDSNJ2tSIA-79">
          <mxGeometry y="4.5" width="28.5" height="20.5" as="geometry" />
        </mxCell>
        <mxCell id="KHGWq4t0KqPDSNJ2tSIA-83" style="edgeStyle=orthogonalEdgeStyle;rounded=0;orthogonalLoop=1;jettySize=auto;html=1;entryX=0.6;entryY=0;entryDx=0;entryDy=0;entryPerimeter=0;endArrow=none;endFill=0;" edge="1" parent="1" source="KHGWq4t0KqPDSNJ2tSIA-74" target="KHGWq4t0KqPDSNJ2tSIA-70">
          <mxGeometry relative="1" as="geometry" />
        </mxCell>
        <mxCell id="KHGWq4t0KqPDSNJ2tSIA-89" style="edgeStyle=orthogonalEdgeStyle;rounded=0;orthogonalLoop=1;jettySize=auto;html=1;entryX=0.529;entryY=0.031;entryDx=0;entryDy=0;entryPerimeter=0;endArrow=none;endFill=0;" edge="1" parent="1" source="KHGWq4t0KqPDSNJ2tSIA-76" target="KHGWq4t0KqPDSNJ2tSIA-72">
          <mxGeometry relative="1" as="geometry" />
        </mxCell>
        <mxCell id="KHGWq4t0KqPDSNJ2tSIA-91" style="edgeStyle=orthogonalEdgeStyle;rounded=0;orthogonalLoop=1;jettySize=auto;html=1;entryX=0.551;entryY=0;entryDx=0;entryDy=0;entryPerimeter=0;endArrow=none;endFill=0;" edge="1" parent="1" source="KHGWq4t0KqPDSNJ2tSIA-77" target="KHGWq4t0KqPDSNJ2tSIA-73">
          <mxGeometry relative="1" as="geometry" />
        </mxCell>
        <mxCell id="KHGWq4t0KqPDSNJ2tSIA-92" value="" style="shape=cylinder3;whiteSpace=wrap;html=1;boundedLbl=1;backgroundOutline=1;size=15;fillColor=#ffe6cc;strokeColor=#d79b00;" vertex="1" parent="1">
          <mxGeometry x="64" y="690" width="60" height="50" as="geometry" />
        </mxCell>
        <mxCell id="KHGWq4t0KqPDSNJ2tSIA-93" value="" style="shape=cylinder3;whiteSpace=wrap;html=1;boundedLbl=1;backgroundOutline=1;size=15;fillColor=#ffe6cc;strokeColor=#d79b00;" vertex="1" parent="1">
          <mxGeometry x="210" y="690" width="60" height="50" as="geometry" />
        </mxCell>
        <mxCell id="KHGWq4t0KqPDSNJ2tSIA-94" value="" style="shape=cylinder3;whiteSpace=wrap;html=1;boundedLbl=1;backgroundOutline=1;size=15;fillColor=#ffe6cc;strokeColor=#d79b00;" vertex="1" parent="1">
          <mxGeometry x="361" y="690" width="60" height="50" as="geometry" />
        </mxCell>
        <mxCell id="KHGWq4t0KqPDSNJ2tSIA-95" value="" style="shape=cylinder3;whiteSpace=wrap;html=1;boundedLbl=1;backgroundOutline=1;size=15;fillColor=#ffe6cc;strokeColor=#d79b00;" vertex="1" parent="1">
          <mxGeometry x="512" y="690" width="60" height="50" as="geometry" />
        </mxCell>
        <mxCell id="KHGWq4t0KqPDSNJ2tSIA-96" value="" style="sketch=0;pointerEvents=1;shadow=0;dashed=0;html=1;strokeColor=none;fillColor=#505050;labelPosition=center;verticalLabelPosition=bottom;verticalAlign=top;outlineConnect=0;align=center;shape=mxgraph.office.concepts.folder;" vertex="1" parent="1">
          <mxGeometry x="663" y="696.5" width="40" height="37" as="geometry" />
        </mxCell>
        <mxCell id="KHGWq4t0KqPDSNJ2tSIA-97" style="edgeStyle=orthogonalEdgeStyle;rounded=0;orthogonalLoop=1;jettySize=auto;html=1;entryX=0.3;entryY=1;entryDx=0;entryDy=0;entryPerimeter=0;endArrow=none;endFill=0;" edge="1" parent="1" source="KHGWq4t0KqPDSNJ2tSIA-92" target="KHGWq4t0KqPDSNJ2tSIA-64">
          <mxGeometry relative="1" as="geometry" />
        </mxCell>
        <mxCell id="KHGWq4t0KqPDSNJ2tSIA-99" style="edgeStyle=orthogonalEdgeStyle;rounded=0;orthogonalLoop=1;jettySize=auto;html=1;entryX=0.3;entryY=1;entryDx=0;entryDy=0;entryPerimeter=0;endArrow=none;endFill=0;" edge="1" parent="1" source="KHGWq4t0KqPDSNJ2tSIA-93" target="KHGWq4t0KqPDSNJ2tSIA-70">
          <mxGeometry relative="1" as="geometry" />
        </mxCell>
        <mxCell id="KHGWq4t0KqPDSNJ2tSIA-100" style="edgeStyle=orthogonalEdgeStyle;rounded=0;orthogonalLoop=1;jettySize=auto;html=1;entryX=0.3;entryY=1;entryDx=0;entryDy=0;entryPerimeter=0;endArrow=none;endFill=0;" edge="1" parent="1" source="KHGWq4t0KqPDSNJ2tSIA-94" target="KHGWq4t0KqPDSNJ2tSIA-71">
          <mxGeometry relative="1" as="geometry" />
        </mxCell>
        <mxCell id="KHGWq4t0KqPDSNJ2tSIA-101" style="edgeStyle=orthogonalEdgeStyle;rounded=0;orthogonalLoop=1;jettySize=auto;html=1;entryX=0.301;entryY=1.008;entryDx=0;entryDy=0;entryPerimeter=0;endArrow=none;endFill=0;" edge="1" parent="1" source="KHGWq4t0KqPDSNJ2tSIA-95" target="KHGWq4t0KqPDSNJ2tSIA-72">
          <mxGeometry relative="1" as="geometry" />
        </mxCell>
        <mxCell id="KHGWq4t0KqPDSNJ2tSIA-104" style="edgeStyle=orthogonalEdgeStyle;rounded=0;orthogonalLoop=1;jettySize=auto;html=1;entryX=0.203;entryY=1.019;entryDx=0;entryDy=0;entryPerimeter=0;endArrow=none;endFill=0;" edge="1" parent="1" source="KHGWq4t0KqPDSNJ2tSIA-96" target="KHGWq4t0KqPDSNJ2tSIA-73">
          <mxGeometry relative="1" as="geometry" />
        </mxCell>
        <mxCell id="KHGWq4t0KqPDSNJ2tSIA-116" value="" style="group" vertex="1" connectable="0" parent="1">
          <mxGeometry x="38" y="790" width="752" height="65" as="geometry" />
        </mxCell>
        <mxCell id="KHGWq4t0KqPDSNJ2tSIA-110" value="" style="ellipse;whiteSpace=wrap;html=1;rotation=90;fillColor=#d5e8d4;strokeColor=#82b366;" vertex="1" parent="KHGWq4t0KqPDSNJ2tSIA-116">
          <mxGeometry x="-14.75" y="15" width="64.5" height="35" as="geometry" />
        </mxCell>
        <mxCell id="KHGWq4t0KqPDSNJ2tSIA-115" value="&lt;font style=&quot;font-size: 14px;&quot;&gt;Service Bus&lt;/font&gt;" style="shape=partialRectangle;whiteSpace=wrap;html=1;top=1;left=0;fillColor=#d5e8d4;strokeColor=#82b366;perimeterSpacing=0;" vertex="1" parent="KHGWq4t0KqPDSNJ2tSIA-116">
          <mxGeometry x="17" y="0.20000000000004547" width="716" height="64.5" as="geometry" />
        </mxCell>
        <mxCell id="KHGWq4t0KqPDSNJ2tSIA-111" value="" style="ellipse;whiteSpace=wrap;html=1;rotation=90;fillColor=#d5e8d4;strokeColor=#82b366;" vertex="1" parent="KHGWq4t0KqPDSNJ2tSIA-116">
          <mxGeometry x="702" y="15" width="65" height="35" as="geometry" />
        </mxCell>
        <mxCell id="KHGWq4t0KqPDSNJ2tSIA-117" value="" style="shape=message;html=1;html=1;outlineConnect=0;labelPosition=center;verticalLabelPosition=bottom;align=center;verticalAlign=top;" vertex="1" parent="1">
          <mxGeometry x="30" y="780" width="40" height="30" as="geometry" />
        </mxCell>
        <mxCell id="KHGWq4t0KqPDSNJ2tSIA-120" style="edgeStyle=orthogonalEdgeStyle;rounded=0;orthogonalLoop=1;jettySize=auto;html=1;entryX=0.319;entryY=-0.003;entryDx=0;entryDy=0;entryPerimeter=0;endArrow=none;endFill=0;" edge="1" parent="1" source="KHGWq4t0KqPDSNJ2tSIA-70" target="KHGWq4t0KqPDSNJ2tSIA-115">
          <mxGeometry relative="1" as="geometry">
            <Array as="points">
              <mxPoint x="283" y="730" />
              <mxPoint x="283" y="730" />
            </Array>
          </mxGeometry>
        </mxCell>
        <mxCell id="KHGWq4t0KqPDSNJ2tSIA-124" style="edgeStyle=orthogonalEdgeStyle;rounded=0;orthogonalLoop=1;jettySize=auto;html=1;entryX=0.764;entryY=0.009;entryDx=0;entryDy=0;entryPerimeter=0;endArrow=none;endFill=0;" edge="1" parent="1" source="KHGWq4t0KqPDSNJ2tSIA-72" target="KHGWq4t0KqPDSNJ2tSIA-115">
          <mxGeometry relative="1" as="geometry">
            <Array as="points">
              <mxPoint x="602" y="700" />
              <mxPoint x="602" y="700" />
            </Array>
          </mxGeometry>
        </mxCell>
        <mxCell id="KHGWq4t0KqPDSNJ2tSIA-125" style="edgeStyle=orthogonalEdgeStyle;rounded=0;orthogonalLoop=1;jettySize=auto;html=1;entryX=0.957;entryY=0.017;entryDx=0;entryDy=0;entryPerimeter=0;endArrow=none;endFill=0;" edge="1" parent="1" source="KHGWq4t0KqPDSNJ2tSIA-73" target="KHGWq4t0KqPDSNJ2tSIA-115">
          <mxGeometry relative="1" as="geometry">
            <Array as="points">
              <mxPoint x="740" y="700" />
              <mxPoint x="740" y="700" />
            </Array>
          </mxGeometry>
        </mxCell>
        <mxCell id="KHGWq4t0KqPDSNJ2tSIA-127" style="edgeStyle=orthogonalEdgeStyle;rounded=0;orthogonalLoop=1;jettySize=auto;html=1;exitX=0.75;exitY=1;exitDx=0;exitDy=0;entryX=0.531;entryY=-0.004;entryDx=0;entryDy=0;entryPerimeter=0;endArrow=none;endFill=0;" edge="1" parent="1" source="KHGWq4t0KqPDSNJ2tSIA-71" target="KHGWq4t0KqPDSNJ2tSIA-115">
          <mxGeometry relative="1" as="geometry" />
        </mxCell>
      </root>
    </mxGraphModel>
  </diagram>
</mxfile>
